Playpen-Rg00LongFast.ufo
<glyph name="exclam" format="2">
  <advance width="462"/>
  <unicode hex="0021"/>
  <outline>
    <contour>
      <point x="232" y="173" type="curve" smooth="yes"/>
      <point x="255" y="173"/>
      <point x="267" y="180"/>
      <point x="267" y="195" type="curve" smooth="yes"/>
      <point x="267" y="1190" type="line" smooth="yes"/>
      <point x="267" y="1205"/>
      <point x="255" y="1212"/>
      <point x="232" y="1212" type="curve" smooth="yes"/>
      <point x="209" y="1212"/>
      <point x="197" y="1205"/>
      <point x="197" y="1190" type="curve" smooth="yes"/>
      <point x="197" y="195" type="line" smooth="yes"/>
      <point x="197" y="180"/>
      <point x="209" y="173"/>
    </contour>
    <contour>
      <point x="232" y="-11" type="curve" smooth="yes"/>
      <point x="261" y="-11"/>
      <point x="277" y="5"/>
      <point x="276" y="39" type="curve" smooth="yes"/>
      <point x="275" y="73"/>
      <point x="261" y="90"/>
      <point x="232" y="90" type="curve" smooth="yes"/>
      <point x="202" y="90"/>
      <point x="187" y="73"/>
      <point x="187" y="39" type="curve" smooth="yes"/>
      <point x="187" y="5"/>
      <point x="202" y="-11"/>
    </contour>
  </outline>
</glyph>
<glyph name="dollar" format="2">
  <advance width="853"/>
  <unicode hex="0024"/>
  <outline>
    <contour>
      <point x="428" y="-15" type="curve" smooth="yes"/>
      <point x="630" y="-15"/>
      <point x="760" y="124"/>
      <point x="760" y="308" type="curve" smooth="yes"/>
      <point x="760" y="516"/>
      <point x="598" y="592"/>
      <point x="446" y="659" type="curve" smooth="yes"/>
      <point x="315" y="717"/>
      <point x="213" y="768"/>
      <point x="211" y="923" type="curve" smooth="yes"/>
      <point x="209" y="1055"/>
      <point x="298" y="1144"/>
      <point x="441" y="1144" type="curve" smooth="yes"/>
      <point x="557" y="1144"/>
      <point x="621" y="1092"/>
      <point x="682" y="1024" type="curve" smooth="yes"/>
      <point x="695" y="1010"/>
      <point x="709" y="1012"/>
      <point x="724" y="1026" type="curve" smooth="yes"/>
      <point x="738" y="1040"/>
      <point x="741" y="1052"/>
      <point x="728" y="1068" type="curve" smooth="yes"/>
      <point x="652" y="1161"/>
      <point x="561" y="1212"/>
      <point x="441" y="1212" type="curve" smooth="yes"/>
      <point x="272" y="1212"/>
      <point x="137" y="1106"/>
      <point x="137" y="925" type="curve" smooth="yes"/>
      <point x="137" y="719"/>
      <point x="283" y="652"/>
      <point x="426" y="587" type="curve" smooth="yes"/>
      <point x="570" y="521"/>
      <point x="686" y="467"/>
      <point x="686" y="306" type="curve" smooth="yes"/>
      <point x="686" y="159"/>
      <point x="588" y="53"/>
      <point x="428" y="53" type="curve" smooth="yes"/>
      <point x="304" y="53"/>
      <point x="212" y="114"/>
      <point x="152" y="182" type="curve" smooth="yes"/>
      <point x="134" y="202"/>
      <point x="125" y="206"/>
      <point x="106" y="189" type="curve" smooth="yes"/>
      <point x="88" y="173"/>
      <point x="89" y="160"/>
      <point x="102" y="143" type="curve" smooth="yes"/>
      <point x="174" y="48"/>
      <point x="289" y="-15"/>
    </contour>
    <contour>
      <point x="435" y="-120" type="curve" smooth="yes"/>
      <point x="456" y="-120"/>
      <point x="467" y="-113"/>
      <point x="467" y="-98" type="curve" smooth="yes"/>
      <point x="467" y="1307" type="line" smooth="yes"/>
      <point x="467" y="1322"/>
      <point x="456" y="1329"/>
      <point x="435" y="1329" type="curve" smooth="yes"/>
      <point x="414" y="1329"/>
      <point x="403" y="1322"/>
      <point x="403" y="1307" type="curve" smooth="yes"/>
      <point x="403" y="-98" type="line" smooth="yes"/>
      <point x="403" y="-113"/>
      <point x="414" y="-120"/>
    </contour>
  </outline>
</glyph>
<glyph name="parenright" format="2">
	<unicode hex="0029"/>
	<advance width="389"/>
	<outline>
		<contour>
			<point x="86" y="-17" type="curve" smooth="yes"/>
			<point x="74" y="-43"/>
			<point x="80" y="-50"/>
			<point x="102" y="-59" type="curve" smooth="yes"/>
			<point x="126" y="-69"/>
			<point x="134" y="-66"/>
			<point x="143" y="-47" type="curve" smooth="yes"/>
			<point x="230" y="137"/>
			<point x="282" y="352"/>
			<point x="282" y="600" type="curve" smooth="yes"/>
			<point x="282" y="847"/>
			<point x="230" y="1063"/>
			<point x="143" y="1247" type="curve" smooth="yes"/>
			<point x="134" y="1266"/>
			<point x="126" y="1269"/>
			<point x="102" y="1259" type="curve" smooth="yes"/>
			<point x="80" y="1250"/>
			<point x="74" y="1243"/>
			<point x="86" y="1217" type="curve" smooth="yes"/>
			<point x="164" y="1049"/>
			<point x="212" y="843"/>
			<point x="212" y="600" type="curve" smooth="yes"/>
			<point x="212" y="356"/>
			<point x="164" y="151"/>
		</contour>
	</outline>
</glyph>
<glyph name="asterisk" format="2">
  <advance width="358"/>
  <unicode hex="002A"/>
  <outline>
    <contour>
      <point x="179" y="1131" type="curve" smooth="yes"/>
      <point x="198" y="1131"/>
      <point x="206" y="1140"/>
      <point x="206" y="1152" type="curve" smooth="yes"/>
      <point x="206" y="1500" type="line" smooth="yes"/>
      <point x="206" y="1512"/>
      <point x="198" y="1521"/>
      <point x="179" y="1521" type="curve" smooth="yes"/>
      <point x="160" y="1521"/>
      <point x="151" y="1512"/>
      <point x="151" y="1500" type="curve" smooth="yes"/>
      <point x="151" y="1152" type="line" smooth="yes"/>
      <point x="151" y="1140"/>
      <point x="160" y="1131"/>
    </contour>
    <contour>
      <point x="10" y="1228" type="curve" smooth="yes"/>
      <point x="19" y="1212"/>
      <point x="31" y="1208"/>
      <point x="43" y="1215" type="curve" smooth="yes"/>
      <point x="343" y="1388" type="line" smooth="yes"/>
      <point x="354" y="1395"/>
      <point x="358" y="1407"/>
      <point x="348" y="1423" type="curve" smooth="yes"/>
      <point x="339" y="1440"/>
      <point x="326" y="1443"/>
      <point x="315" y="1437" type="curve" smooth="yes"/>
      <point x="15" y="1263" type="line" smooth="yes"/>
      <point x="4" y="1257"/>
      <point x="0" y="1245"/>
    </contour>
    <contour>
      <point x="348" y="1228" type="curve" smooth="yes"/>
      <point x="358" y="1245"/>
      <point x="354" y="1257"/>
      <point x="343" y="1263" type="curve" smooth="yes"/>
      <point x="43" y="1437" type="line" smooth="yes"/>
      <point x="31" y="1443"/>
      <point x="19" y="1440"/>
      <point x="10" y="1423" type="curve" smooth="yes"/>
      <point x="0" y="1407"/>
      <point x="4" y="1395"/>
      <point x="15" y="1388" type="curve" smooth="yes"/>
      <point x="315" y="1215" type="line" smooth="yes"/>
      <point x="326" y="1208"/>
      <point x="339" y="1212"/>
    </contour>
  </outline>
</glyph>
<glyph name="plus" format="2">
	<unicode hex="002B"/>
	<advance width="610"/>
	<outline>
		<contour>
			<point x="305" y="124" type="curve" smooth="yes"/>
			<point x="328" y="124"/>
			<point x="339" y="131"/>
			<point x="339" y="145" type="curve" smooth="yes"/>
			<point x="339" y="553" type="line" smooth="yes"/>
			<point x="339" y="567"/>
			<point x="328" y="574"/>
			<point x="305" y="574" type="curve" smooth="yes"/>
			<point x="282" y="574"/>
			<point x="271" y="567"/>
			<point x="271" y="553" type="curve" smooth="yes"/>
			<point x="271" y="145" type="line" smooth="yes"/>
			<point x="271" y="131"/>
			<point x="282" y="124"/>
		</contour>
		<component base="minus"/>
	</outline>
</glyph>
<glyph name="hyphen" format="2">
	<unicode hex="002D"/>
	<advance width="460"/>
	<outline>
		<contour>
			<point x="100" y="241" type="curve" smooth="yes"/>
			<point x="360" y="241" type="line" smooth="yes"/>
			<point x="376" y="241"/>
			<point x="382" y="249"/>
			<point x="382" y="273" type="curve" smooth="yes"/>
			<point x="382" y="297"/>
			<point x="376" y="305"/>
			<point x="360" y="305" type="curve" smooth="yes"/>
			<point x="100" y="305" type="line" smooth="yes"/>
			<point x="84" y="305"/>
			<point x="78" y="297"/>
			<point x="78" y="273" type="curve" smooth="yes"/>
			<point x="78" y="249"/>
			<point x="84" y="241"/>
		</contour>
	</outline>
</glyph>
<glyph name="slash" format="2">
	<unicode hex="002F"/>
	<advance width="420"/>
	<outline>
		<contour>
			<point x="38" y="-60" type="curve" smooth="yes"/>
			<point x="61" y="-66"/>
			<point x="74" y="-62"/>
			<point x="78" y="-47" type="curve" smooth="yes"/>
			<point x="410" y="1229" type="line" smooth="yes"/>
			<point x="414" y="1244"/>
			<point x="404" y="1254"/>
			<point x="382" y="1260" type="curve" smooth="yes"/>
			<point x="359" y="1266"/>
			<point x="346" y="1262"/>
			<point x="342" y="1247" type="curve" smooth="yes"/>
			<point x="10" y="-29" type="line" smooth="yes"/>
			<point x="6" y="-44"/>
			<point x="16" y="-54"/>
		</contour>
	</outline>
</glyph>
<glyph name="zero" format="2">
  <advance width="1182"/>
  <unicode hex="0030"/>
  <outline>
    <contour>
      <point x="593" y="-19" type="curve" smooth="yes"/>
      <point x="891" y="-19"/>
      <point x="1073" y="271"/>
      <point x="1073" y="750" type="curve" smooth="yes"/>
      <point x="1073" y="1225"/>
      <point x="891" y="1515"/>
      <point x="593" y="1515" type="curve" smooth="yes"/>
      <point x="293" y="1515"/>
      <point x="109" y="1225"/>
      <point x="109" y="750" type="curve" smooth="yes"/>
      <point x="109" y="271"/>
      <point x="293" y="-19"/>
    </contour>
    <contour>
      <point x="591" y="66" type="curve" smooth="yes"/>
      <point x="350" y="66"/>
      <point x="203" y="325"/>
      <point x="203" y="750" type="curve" smooth="yes"/>
      <point x="203" y="1173"/>
      <point x="350" y="1430"/>
      <point x="591" y="1430" type="curve" smooth="yes"/>
      <point x="833" y="1430"/>
      <point x="979" y="1173"/>
      <point x="979" y="750" type="curve" smooth="yes"/>
      <point x="979" y="325"/>
      <point x="833" y="66"/>
    </contour>
  </outline>
</glyph>
<glyph name="one" format="2">
  <advance width="696"/>
  <unicode hex="0031"/>
  <outline>
    <contour>
      <point x="375" y="-14" type="curve" smooth="yes"/>
      <point x="406" y="-14"/>
      <point x="419" y="-4"/>
      <point x="419" y="14" type="curve" smooth="yes"/>
      <point x="419" y="1488" type="line" smooth="yes"/>
      <point x="419" y="1501"/>
      <point x="410" y="1515"/>
      <point x="379" y="1515" type="curve" smooth="yes"/>
      <point x="349" y="1515"/>
      <point x="339" y="1510"/>
      <point x="323" y="1493" type="curve" smooth="yes"/>
      <point x="225" y="1385"/>
      <point x="139" y="1313"/>
      <point x="46" y="1249" type="curve" smooth="yes"/>
      <point x="25" y="1235"/>
      <point x="21" y="1220"/>
      <point x="36" y="1198" type="curve" smooth="yes"/>
      <point x="49" y="1176"/>
      <point x="68" y="1174"/>
      <point x="89" y="1188" type="curve" smooth="yes"/>
      <point x="173" y="1241"/>
      <point x="261" y="1318"/>
      <point x="331" y="1391" type="curve"/>
      <point x="331" y="14" type="line" smooth="yes"/>
      <point x="331" y="-4"/>
      <point x="344" y="-14"/>
    </contour>
  </outline>
</glyph>
<glyph name="three" format="2">
	<unicode hex="0033"/>
	<advance width="901"/>
	<outline>
		<contour>
			<point x="435" y="-15" type="curve" smooth="yes"/>
			<point x="679" y="-15"/>
			<point x="797" y="108"/>
			<point x="797" y="327" type="curve" smooth="yes"/>
			<point x="797" y="484"/>
			<point x="719" y="606"/>
			<point x="539" y="642" type="curve"/>
			<point x="688" y="684"/>
			<point x="747" y="797"/>
			<point x="747" y="923" type="curve" smooth="yes"/>
			<point x="747" y="1124"/>
			<point x="603" y="1212"/>
			<point x="421" y="1212" type="curve" smooth="yes"/>
			<point x="297" y="1212"/>
			<point x="163" y="1148"/>
			<point x="103" y="1070" type="curve" smooth="yes"/>
			<point x="94" y="1058"/>
			<point x="85" y="1044"/>
			<point x="105" y="1028" type="curve" smooth="yes"/>
			<point x="121" y="1015"/>
			<point x="136" y="1011"/>
			<point x="150" y="1028" type="curve" smooth="yes"/>
			<point x="211" y="1098"/>
			<point x="311" y="1144"/>
			<point x="421" y="1144" type="curve" smooth="yes"/>
			<point x="550" y="1144"/>
			<point x="674" y="1081"/>
			<point x="674" y="923" type="curve" smooth="yes"/>
			<point x="674" y="788"/>
			<point x="593" y="672"/>
			<point x="413" y="672" type="curve" smooth="yes"/>
			<point x="324" y="672" type="line" smooth="yes"/>
			<point x="309" y="672"/>
			<point x="302" y="665"/>
			<point x="302" y="642" type="curve" smooth="yes"/>
			<point x="302" y="620"/>
			<point x="306" y="608"/>
			<point x="324" y="608" type="curve" smooth="yes"/>
			<point x="409" y="608" type="line" smooth="yes"/>
			<point x="598" y="608"/>
			<point x="723" y="501"/>
			<point x="723" y="327" type="curve" smooth="yes"/>
			<point x="723" y="146"/>
			<point x="623" y="53"/>
			<point x="435" y="53" type="curve" smooth="yes"/>
			<point x="300" y="53"/>
			<point x="182" y="128"/>
			<point x="111" y="253" type="curve" smooth="yes"/>
			<point x="102" y="269"/>
			<point x="91" y="269"/>
			<point x="72" y="259" type="curve" smooth="yes"/>
			<point x="49" y="247"/>
			<point x="50" y="233"/>
			<point x="62" y="211" type="curve" smooth="yes"/>
			<point x="143" y="65"/>
			<point x="292" y="-15"/>
		</contour>
	</outline>
</glyph>
<glyph name="five" format="2">
  <advance width="1126"/>
  <unicode hex="0035"/>
  <outline>
    <contour>
      <point x="568" y="-19" type="curve" smooth="yes"/>
      <point x="848" y="-19"/>
      <point x="1014" y="186"/>
      <point x="1014" y="474" type="curve" smooth="yes"/>
      <point x="1014" y="751"/>
      <point x="863" y="931"/>
      <point x="585" y="931" type="curve" smooth="yes"/>
      <point x="464" y="931"/>
      <point x="346" y="880"/>
      <point x="273" y="814" type="curve"/>
      <point x="294" y="1408" type="line"/>
      <point x="929" y="1408" type="line" smooth="yes"/>
      <point x="949" y="1408"/>
      <point x="958" y="1421"/>
      <point x="958" y="1449" type="curve" smooth="yes"/>
      <point x="958" y="1479"/>
      <point x="946" y="1488"/>
      <point x="929" y="1488" type="curve" smooth="yes"/>
      <point x="253" y="1488" type="line" smooth="yes"/>
      <point x="231" y="1488"/>
      <point x="218" y="1480"/>
      <point x="216" y="1460" type="curve" smooth="yes"/>
      <point x="189" y="723" type="line" smooth="yes"/>
      <point x="188" y="699"/>
      <point x="225" y="675"/>
      <point x="263" y="714" type="curve" smooth="yes"/>
      <point x="348" y="804"/>
      <point x="468" y="851"/>
      <point x="585" y="851" type="curve" smooth="yes"/>
      <point x="805" y="851"/>
      <point x="923" y="696"/>
      <point x="923" y="474" type="curve" smooth="yes"/>
      <point x="923" y="240"/>
      <point x="804" y="61"/>
      <point x="568" y="61" type="curve" smooth="yes"/>
      <point x="420" y="61"/>
      <point x="271" y="133"/>
      <point x="181" y="291" type="curve" smooth="yes"/>
      <point x="170" y="311"/>
      <point x="156" y="311"/>
      <point x="133" y="299" type="curve" smooth="yes"/>
      <point x="104" y="284"/>
      <point x="105" y="266"/>
      <point x="120" y="239" type="curve" smooth="yes"/>
      <point x="221" y="56"/>
      <point x="410" y="-19"/>
    </contour>
  </outline>
</glyph>
<glyph name="six" format="2">
	<unicode hex="0036"/>
	<advance width="968"/>
	<outline>
		<contour>
			<point x="516" y="-15" type="curve" smooth="yes"/>
			<point x="739" y="-15"/>
			<point x="875" y="127"/>
			<point x="875" y="382" type="curve" smooth="yes"/>
			<point x="875" y="590"/>
			<point x="752" y="725"/>
			<point x="550" y="725" type="curve" smooth="yes"/>
			<point x="390" y="725"/>
			<point x="219" y="625"/>
			<point x="168" y="343" type="curve"/>
			<point x="208" y="266" type="line"/>
			<point x="249" y="577"/>
			<point x="420" y="661"/>
			<point x="550" y="661" type="curve" smooth="yes"/>
			<point x="705" y="661"/>
			<point x="802" y="551"/>
			<point x="802" y="382" type="curve" smooth="yes"/>
			<point x="802" y="175"/>
			<point x="698" y="49"/>
			<point x="516" y="49" type="curve" smooth="yes"/>
			<point x="343" y="49"/>
			<point x="200" y="185"/>
			<point x="200" y="485" type="curve" smooth="yes"/>
			<point x="200" y="852"/>
			<point x="349" y="1070"/>
			<point x="725" y="1150" type="curve" smooth="yes"/>
			<point x="750" y="1155"/>
			<point x="750" y="1163"/>
			<point x="748" y="1185" type="curve" smooth="yes"/>
			<point x="745" y="1215"/>
			<point x="733" y="1216"/>
			<point x="699" y="1209" type="curve" smooth="yes"/>
			<point x="302" y="1129"/>
			<point x="127" y="883"/>
			<point x="127" y="485" type="curve" smooth="yes"/>
			<point x="127" y="179"/>
			<point x="266" y="-15"/>
		</contour>
	</outline>
</glyph>
<glyph name="seven" format="2">
	<unicode hex="0037"/>
	<advance width="731"/>
	<outline>
		<contour>
			<point x="160" y="-10" type="curve" smooth="yes"/>
			<point x="190" y="-21"/>
			<point x="197" y="-10"/>
			<point x="209" y="18" type="curve" smooth="yes"/>
			<point x="710" y="1149" type="line" smooth="yes"/>
			<point x="718" y="1167"/>
			<point x="706" y="1190"/>
			<point x="685" y="1190" type="curve" smooth="yes"/>
			<point x="48" y="1190" type="line" smooth="yes"/>
			<point x="30" y="1190"/>
			<point x="26" y="1178"/>
			<point x="26" y="1156" type="curve" smooth="yes"/>
			<point x="26" y="1133"/>
			<point x="33" y="1126"/>
			<point x="48" y="1126" type="curve" smooth="yes"/>
			<point x="627" y="1126" type="line"/>
			<point x="140" y="29" type="line" smooth="yes"/>
			<point x="131" y="8"/>
			<point x="135" y="-1"/>
		</contour>
	</outline>
</glyph>
<glyph name="eight" format="2">
  <advance width="901"/>
  <unicode hex="0038"/>
  <outline>
    <contour>
      <point x="449" y="-15" type="curve" smooth="yes"/>
      <point x="668" y="-15"/>
      <point x="827" y="123"/>
      <point x="827" y="314" type="curve" smooth="yes"/>
      <point x="827" y="454"/>
      <point x="719" y="581"/>
      <point x="541" y="649" type="curve"/>
      <point x="688" y="716"/>
      <point x="777" y="829"/>
      <point x="777" y="948" type="curve" smooth="yes"/>
      <point x="777" y="1112"/>
      <point x="655" y="1212"/>
      <point x="454" y="1212" type="curve" smooth="yes"/>
      <point x="250" y="1212"/>
      <point x="125" y="1109"/>
      <point x="125" y="941" type="curve" smooth="yes"/>
      <point x="125" y="814"/>
      <point x="215" y="708"/>
      <point x="363" y="641" type="curve"/>
      <point x="183" y="572"/>
      <point x="74" y="444"/>
      <point x="74" y="303" type="curve" smooth="yes"/>
      <point x="74" y="119"/>
      <point x="232" y="-15"/>
    </contour>
    <contour>
      <point x="452" y="53" type="curve" smooth="yes"/>
      <point x="276" y="53"/>
      <point x="149" y="158"/>
      <point x="149" y="303" type="curve" smooth="yes"/>
      <point x="149" y="431"/>
      <point x="261" y="547"/>
      <point x="444" y="611" type="curve"/>
      <point x="635" y="549"/>
      <point x="752" y="447"/>
      <point x="752" y="314" type="curve" smooth="yes"/>
      <point x="752" y="163"/>
      <point x="626" y="53"/>
    </contour>
    <contour>
      <point x="459" y="678" type="curve"/>
      <point x="298" y="731"/>
      <point x="200" y="831"/>
      <point x="200" y="942" type="curve" smooth="yes"/>
      <point x="200" y="1068"/>
      <point x="296" y="1144"/>
      <point x="454" y="1144" type="curve" smooth="yes"/>
      <point x="608" y="1144"/>
      <point x="702" y="1069"/>
      <point x="702" y="946" type="curve" smooth="yes"/>
      <point x="702" y="832"/>
      <point x="610" y="731"/>
    </contour>
  </outline>
</glyph>
<glyph name="question" format="2">
	<unicode hex="003F"/>
	<advance width="677"/>
	<outline>
		<contour>
			<point x="264" y="173" type="curve" smooth="yes"/>
			<point x="287" y="173"/>
			<point x="299" y="180"/>
			<point x="299" y="195" type="curve" smooth="yes"/>
			<point x="299" y="489" type="line"/>
			<point x="520" y="554"/>
			<point x="654" y="713"/>
			<point x="654" y="911" type="curve" smooth="yes"/>
			<point x="654" y="1098"/>
			<point x="540" y="1212"/>
			<point x="352" y="1212" type="curve" smooth="yes"/>
			<point x="233" y="1212"/>
			<point x="118" y="1169"/>
			<point x="9" y="1085" type="curve" smooth="yes"/>
			<point x="-3" y="1076"/>
			<point x="-2" y="1063"/>
			<point x="13" y="1046" type="curve" smooth="yes"/>
			<point x="23" y="1034"/>
			<point x="37" y="1033"/>
			<point x="46" y="1039" type="curve" smooth="yes"/>
			<point x="151" y="1111"/>
			<point x="254" y="1148"/>
			<point x="352" y="1148" type="curve" smooth="yes"/>
			<point x="495" y="1148"/>
			<point x="582" y="1058"/>
			<point x="582" y="911" type="curve" smooth="yes"/>
			<point x="582" y="736"/>
			<point x="459" y="597"/>
			<point x="256" y="544" type="curve" smooth="yes"/>
			<point x="238" y="539"/>
			<point x="229" y="535"/>
			<point x="229" y="522" type="curve" smooth="yes"/>
			<point x="229" y="195" type="line" smooth="yes"/>
			<point x="229" y="180"/>
			<point x="241" y="173"/>
		</contour>
		<contour>
			<point x="264" y="-11" type="curve" smooth="yes"/>
			<point x="293" y="-11"/>
			<point x="308" y="5"/>
			<point x="308" y="39" type="curve" smooth="yes"/>
			<point x="308" y="73"/>
			<point x="293" y="90"/>
			<point x="264" y="90" type="curve" smooth="yes"/>
			<point x="234" y="90"/>
			<point x="219" y="73"/>
			<point x="219" y="39" type="curve" smooth="yes"/>
			<point x="219" y="5"/>
			<point x="234" y="-11"/>
		</contour>
	</outline>
</glyph>
<glyph name="A" format="2">
	<unicode hex="0041"/>
	<advance width="929"/>
	<outline>
		<contour>
			<point x="68" y="-11" type="curve" smooth="yes"/>
			<point x="91" y="-11"/>
			<point x="99" y="-3"/>
			<point x="106" y="18" type="curve" smooth="yes"/>
			<point x="218" y="358" type="line"/>
			<point x="711" y="358" type="line"/>
			<point x="821" y="18" type="line" smooth="yes"/>
			<point x="828" y="-3"/>
			<point x="836" y="-11"/>
			<point x="860" y="-11" type="curve" smooth="yes"/>
			<point x="888" y="-11"/>
			<point x="899" y="3"/>
			<point x="892" y="25" type="curve" smooth="yes"/>
			<point x="509" y="1180" type="line" smooth="yes"/>
			<point x="501" y="1205"/>
			<point x="489" y="1212"/>
			<point x="465" y="1212" type="curve" smooth="yes"/>
			<point x="440" y="1212"/>
			<point x="428" y="1205"/>
			<point x="420" y="1180" type="curve" smooth="yes"/>
			<point x="37" y="25" type="line" smooth="yes"/>
			<point x="30" y="3"/>
			<point x="40" y="-11"/>
		</contour>
		<contour>
			<point x="239" y="422" type="line"/>
			<point x="465" y="1105" type="line"/>
			<point x="689" y="422" type="line"/>
		</contour>
	</outline>
	<anchor name="bottom" x="465" y="0"/>
	<anchor name="ogonek" x="890" y="-3"/>
	<anchor name="top" x="465" y="1139"/>
</glyph>
<glyph name="D" format="2">
  <advance width="1347"/>
  <unicode hex="0044"/>
  <anchor x="614" y="0" name="bottom"/>
  <anchor x="298" y="748" name="center"/>
  <anchor x="631" y="1424" name="top"/>
  <outline>
    <contour>
      <point x="260" y="0" type="curve" smooth="yes"/>
      <point x="456" y="0" type="line" smooth="yes"/>
      <point x="929" y="0"/>
      <point x="1209" y="305"/>
      <point x="1209" y="820" type="curve" smooth="yes"/>
      <point x="1209" y="1240"/>
      <point x="961" y="1488"/>
      <point x="543" y="1488" type="curve" smooth="yes"/>
      <point x="260" y="1488" type="line" smooth="yes"/>
      <point x="231" y="1488"/>
      <point x="216" y="1479"/>
      <point x="216" y="1460" type="curve" smooth="yes"/>
      <point x="216" y="28" type="line" smooth="yes"/>
      <point x="216" y="9"/>
      <point x="231" y="0"/>
    </contour>
    <contour>
      <point x="304" y="85" type="line"/>
      <point x="304" y="1403" type="line"/>
      <point x="543" y="1403" type="line" smooth="yes"/>
      <point x="900" y="1403"/>
      <point x="1111" y="1186"/>
      <point x="1111" y="820" type="curve" smooth="yes"/>
      <point x="1111" y="358"/>
      <point x="868" y="85"/>
      <point x="455" y="85" type="curve" smooth="yes"/>
    </contour>
  </outline>
</glyph>
<glyph name="E" format="2">
  <advance width="1026"/>
  <unicode hex="0045"/>
  <anchor x="569" y="0" name="bottom"/>
  <anchor x="933" y="0" name="ogonek"/>
  <anchor x="599" y="1424" name="top"/>
  <outline>
    <contour>
      <point x="260" y="0" type="curve" smooth="yes"/>
      <point x="930" y="0" type="line" smooth="yes"/>
      <point x="950" y="0"/>
      <point x="958" y="10"/>
      <point x="958" y="40" type="curve" smooth="yes"/>
      <point x="958" y="70"/>
      <point x="950" y="80"/>
      <point x="930" y="80" type="curve" smooth="yes"/>
      <point x="304" y="80" type="line"/>
      <point x="304" y="746" type="line"/>
      <point x="833" y="746" type="line" smooth="yes"/>
      <point x="853" y="746"/>
      <point x="860" y="756"/>
      <point x="860" y="786" type="curve" smooth="yes"/>
      <point x="860" y="816"/>
      <point x="853" y="826"/>
      <point x="833" y="826" type="curve" smooth="yes"/>
      <point x="304" y="826" type="line"/>
      <point x="304" y="1408" type="line"/>
      <point x="930" y="1408" type="line" smooth="yes"/>
      <point x="950" y="1408"/>
      <point x="958" y="1418"/>
      <point x="958" y="1448" type="curve" smooth="yes"/>
      <point x="958" y="1478"/>
      <point x="950" y="1488"/>
      <point x="930" y="1488" type="curve" smooth="yes"/>
      <point x="260" y="1488" type="line" smooth="yes"/>
      <point x="231" y="1488"/>
      <point x="216" y="1479"/>
      <point x="216" y="1460" type="curve" smooth="yes"/>
      <point x="216" y="40" type="line" smooth="yes"/>
      <point x="216" y="13"/>
      <point x="231" y="0"/>
    </contour>
  </outline>
</glyph>
<glyph name="F" format="2">
  <advance width="774"/>
  <unicode hex="0046"/>
  <outline>
    <contour>
      <point x="208" y="-11" type="curve"/>
      <point x="231" y="-11"/>
      <point x="243" y="-4"/>
      <point x="243" y="11" type="curve" smooth="yes"/>
      <point x="243" y="563" type="line"/>
      <point x="651" y="563" type="line" smooth="yes"/>
      <point x="667" y="563"/>
      <point x="673" y="571"/>
      <point x="673" y="595" type="curve" smooth="yes"/>
      <point x="673" y="619"/>
      <point x="667" y="627"/>
      <point x="651" y="627" type="curve" smooth="yes"/>
      <point x="243" y="627" type="line"/>
      <point x="243" y="1126" type="line"/>
      <point x="728" y="1126" type="line" smooth="yes"/>
      <point x="744" y="1126"/>
      <point x="750" y="1134"/>
      <point x="750" y="1158" type="curve" smooth="yes"/>
      <point x="750" y="1182"/>
      <point x="744" y="1190"/>
      <point x="728" y="1190" type="curve" smooth="yes"/>
      <point x="208" y="1190" type="line" smooth="yes"/>
      <point x="185" y="1190"/>
      <point x="173" y="1183"/>
      <point x="173" y="1168" type="curve" smooth="yes"/>
      <point x="173" y="11" type="line" smooth="yes"/>
      <point x="173" y="-4"/>
      <point x="185" y="-11"/>
    </contour>
  </outline>
</glyph>
<glyph name="G" format="2">
  <advance width="1356"/>
  <unicode hex="0047"/>
  <anchor x="679" y="0" name="bottom"/>
  <anchor x="698" y="1424" name="top"/>
  <outline>
    <contour>
      <point x="669" y="-19" type="curve" smooth="yes"/>
      <point x="946" y="-19"/>
      <point x="1199" y="214"/>
      <point x="1199" y="746" type="curve" smooth="yes"/>
      <point x="1199" y="775"/>
      <point x="1191" y="785"/>
      <point x="1171" y="785" type="curve" smooth="yes"/>
      <point x="729" y="785" type="line" smooth="yes"/>
      <point x="709" y="785"/>
      <point x="701" y="775"/>
      <point x="701" y="745" type="curve" smooth="yes"/>
      <point x="701" y="714"/>
      <point x="709" y="705"/>
      <point x="729" y="705" type="curve" smooth="yes"/>
      <point x="1109" y="705" type="line"/>
      <point x="1109" y="283"/>
      <point x="893" y="66"/>
      <point x="669" y="66" type="curve" smooth="yes"/>
      <point x="419" y="66"/>
      <point x="231" y="330"/>
      <point x="231" y="728" type="curve" smooth="yes"/>
      <point x="231" y="1150"/>
      <point x="436" y="1430"/>
      <point x="719" y="1430" type="curve" smooth="yes"/>
      <point x="860" y="1430"/>
      <point x="933" y="1389"/>
      <point x="1030" y="1279" type="curve" smooth="yes"/>
      <point x="1043" y="1266"/>
      <point x="1058" y="1271"/>
      <point x="1076" y="1288" type="curve" smooth="yes"/>
      <point x="1090" y="1300"/>
      <point x="1099" y="1310"/>
      <point x="1088" y="1326" type="curve" smooth="yes"/>
      <point x="991" y="1460"/>
      <point x="869" y="1515"/>
      <point x="721" y="1515" type="curve" smooth="yes"/>
      <point x="375" y="1515"/>
      <point x="138" y="1190"/>
      <point x="138" y="728" type="curve" smooth="yes"/>
      <point x="138" y="290"/>
      <point x="355" y="-19"/>
    </contour>
  </outline>
</glyph>
<glyph name="H" format="2">
  <advance width="1375"/>
  <unicode hex="0048"/>
  <anchor x="688" y="0" name="bottom"/>
  <anchor x="688" y="1150" name="center"/>
  <anchor x="688" y="1424" name="top"/>
  <outline>
    <contour>
      <point x="260" y="-14" type="curve" smooth="yes"/>
      <point x="289" y="-14"/>
      <point x="304" y="-5"/>
      <point x="304" y="14" type="curve" smooth="yes"/>
      <point x="304" y="740" type="line"/>
      <point x="1071" y="740" type="line"/>
      <point x="1071" y="14" type="line" smooth="yes"/>
      <point x="1071" y="-5"/>
      <point x="1086" y="-14"/>
      <point x="1115" y="-14" type="curve" smooth="yes"/>
      <point x="1144" y="-14"/>
      <point x="1159" y="-5"/>
      <point x="1159" y="14" type="curve" smooth="yes"/>
      <point x="1159" y="1488" type="line" smooth="yes"/>
      <point x="1159" y="1506"/>
      <point x="1144" y="1515"/>
      <point x="1115" y="1515" type="curve" smooth="yes"/>
      <point x="1086" y="1515"/>
      <point x="1071" y="1506"/>
      <point x="1071" y="1488" type="curve" smooth="yes"/>
      <point x="1071" y="820" type="line"/>
      <point x="304" y="820" type="line"/>
      <point x="304" y="1488" type="line" smooth="yes"/>
      <point x="304" y="1506"/>
      <point x="289" y="1515"/>
      <point x="260" y="1515" type="curve" smooth="yes"/>
      <point x="231" y="1515"/>
      <point x="216" y="1506"/>
      <point x="216" y="1488" type="curve" smooth="yes"/>
      <point x="216" y="14" type="line" smooth="yes"/>
      <point x="216" y="-5"/>
      <point x="231" y="-14"/>
    </contour>
  </outline>
</glyph>
<glyph name="I" format="2">
	<unicode hex="0049"/>
	<advance width="418"/>
	<outline>
		<contour>
			<point x="209" y="-11" type="curve" smooth="yes"/>
			<point x="232" y="-11"/>
			<point x="244" y="-4"/>
			<point x="244" y="11" type="curve" smooth="yes"/>
			<point x="244" y="1190" type="line" smooth="yes"/>
			<point x="244" y="1205"/>
			<point x="232" y="1212"/>
			<point x="209" y="1212" type="curve" smooth="yes"/>
			<point x="186" y="1212"/>
			<point x="174" y="1205"/>
			<point x="174" y="1190" type="curve" smooth="yes"/>
			<point x="174" y="11" type="line" smooth="yes"/>
			<point x="174" y="-4"/>
			<point x="186" y="-11"/>
		</contour>
	</outline>
	<anchor name="bottom" x="209" y="0"/>
	<anchor name="ogonek" x="232" y="-7"/>
	<anchor name="top" x="209" y="1139"/>
</glyph>
<glyph name="J" format="2">
  <advance width="1006"/>
  <unicode hex="004A"/>
  <anchor x="479" y="0" name="bottom"/>
  <anchor x="775" y="1424" name="top"/>
  <outline>
    <contour>
      <point x="440" y="-19" type="curve" smooth="yes"/>
      <point x="768" y="-19"/>
      <point x="819" y="284"/>
      <point x="819" y="465" type="curve" smooth="yes"/>
      <point x="819" y="1488" type="line" smooth="yes"/>
      <point x="819" y="1506"/>
      <point x="804" y="1515"/>
      <point x="775" y="1515" type="curve" smooth="yes"/>
      <point x="746" y="1515"/>
      <point x="731" y="1506"/>
      <point x="731" y="1488" type="curve" smooth="yes"/>
      <point x="731" y="465" type="line" smooth="yes"/>
      <point x="731" y="324"/>
      <point x="710" y="66"/>
      <point x="440" y="66" type="curve" smooth="yes"/>
      <point x="304" y="66"/>
      <point x="218" y="135"/>
      <point x="151" y="298" type="curve" smooth="yes"/>
      <point x="145" y="315"/>
      <point x="126" y="314"/>
      <point x="108" y="308" type="curve" smooth="yes"/>
      <point x="88" y="301"/>
      <point x="75" y="291"/>
      <point x="80" y="274" type="curve" smooth="yes"/>
      <point x="140" y="83"/>
      <point x="265" y="-19"/>
    </contour>
  </outline>
</glyph>
<glyph name="K" format="2">
  <advance width="852"/>
  <unicode hex="004B"/>
  <anchor x="472" y="0" name="bottom"/>
  <anchor x="472" y="1139" name="top"/>
  <outline>
    <contour>
      <point x="209" y="-11" type="curve" smooth="yes"/>
      <point x="234" y="-11"/>
      <point x="243" y="-3"/>
      <point x="243" y="15" type="curve" smooth="yes"/>
      <point x="243" y="594" type="line"/>
      <point x="388" y="390"/>
      <point x="582" y="144"/>
      <point x="764" y="-4" type="curve" smooth="yes"/>
      <point x="780" y="-17"/>
      <point x="795" y="-17"/>
      <point x="809" y="-3" type="curve" smooth="yes"/>
      <point x="829" y="17"/>
      <point x="823" y="33"/>
      <point x="811" y="43" type="curve" smooth="yes"/>
      <point x="641" y="185"/>
      <point x="482" y="374"/>
      <point x="295" y="628" type="curve"/>
      <point x="808" y="1161" type="line" smooth="yes"/>
      <point x="818" y="1171"/>
      <point x="818" y="1181"/>
      <point x="803" y="1198" type="curve" smooth="yes"/>
      <point x="789" y="1213"/>
      <point x="778" y="1218"/>
      <point x="765" y="1205" type="curve" smooth="yes"/>
      <point x="243" y="665" type="line"/>
      <point x="243" y="1190" type="line" smooth="yes"/>
      <point x="243" y="1205"/>
      <point x="231" y="1212"/>
      <point x="208" y="1212" type="curve" smooth="yes"/>
      <point x="185" y="1212"/>
      <point x="173" y="1205"/>
      <point x="173" y="1190" type="curve" smooth="yes"/>
      <point x="173" y="15" type="line" smooth="yes"/>
      <point x="173" y="-3"/>
      <point x="184" y="-11"/>
    </contour>
  </outline>
</glyph>
<glyph name="L" format="2">
	<unicode hex="004C"/>
	<advance width="775"/>
	<outline>
		<contour>
			<point x="208" y="0" type="curve" smooth="yes"/>
			<point x="722" y="0" type="line" smooth="yes"/>
			<point x="738" y="0"/>
			<point x="744" y="8"/>
			<point x="744" y="32" type="curve" smooth="yes"/>
			<point x="744" y="56"/>
			<point x="738" y="64"/>
			<point x="722" y="64" type="curve" smooth="yes"/>
			<point x="243" y="64" type="line"/>
			<point x="243" y="1190" type="line" smooth="yes"/>
			<point x="243" y="1205"/>
			<point x="231" y="1212"/>
			<point x="208" y="1212" type="curve" smooth="yes"/>
			<point x="185" y="1212"/>
			<point x="173" y="1205"/>
			<point x="173" y="1190" type="curve" smooth="yes"/>
			<point x="173" y="32" type="line" smooth="yes"/>
			<point x="173" y="10"/>
			<point x="185" y="0"/>
		</contour>
	</outline>
	<anchor name="bottom" x="465" y="0"/>
	<anchor name="center" x="209" y="612"/>
	<anchor name="centerCase" x="232" y="612"/>
	<anchor name="top" x="209" y="1139"/>
	<anchor name="topright" x="263" y="1190"/>
</glyph>
<glyph name="N" format="2">
  <advance width="1100"/>
  <unicode hex="004E"/>
  <anchor x="550" y="0" name="bottom"/>
  <anchor x="550" y="1139" name="top"/>
  <outline>
    <contour>
      <point x="208" y="-11" type="curve" smooth="yes"/>
      <point x="231" y="-11"/>
      <point x="243" y="-4"/>
      <point x="243" y="11" type="curve" smooth="yes"/>
      <point x="243" y="1061" type="line"/>
      <point x="857" y="11" type="line" smooth="yes"/>
      <point x="868" y="-8"/>
      <point x="876" y="-11"/>
      <point x="893" y="-11" type="curve" smooth="yes"/>
      <point x="915" y="-11"/>
      <point x="927" y="-4"/>
      <point x="927" y="11" type="curve" smooth="yes"/>
      <point x="927" y="1190" type="line" smooth="yes"/>
      <point x="927" y="1205"/>
      <point x="915" y="1212"/>
      <point x="892" y="1212" type="curve" smooth="yes"/>
      <point x="869" y="1212"/>
      <point x="857" y="1205"/>
      <point x="857" y="1190" type="curve" smooth="yes"/>
      <point x="857" y="147" type="line"/>
      <point x="248" y="1190" type="line" smooth="yes"/>
      <point x="239" y="1205"/>
      <point x="227" y="1212"/>
      <point x="208" y="1212" type="curve" smooth="yes"/>
      <point x="185" y="1212"/>
      <point x="173" y="1205"/>
      <point x="173" y="1190" type="curve" smooth="yes"/>
      <point x="173" y="11" type="line" smooth="yes"/>
      <point x="173" y="-4"/>
      <point x="185" y="-11"/>
    </contour>
  </outline>
</glyph>
<glyph name="P" format="2">
  <advance width="868"/>
  <unicode hex="0050"/>
  <outline>
    <contour>
      <point x="208" y="-11" type="curve" smooth="yes"/>
      <point x="231" y="-11"/>
      <point x="243" y="-4"/>
      <point x="243" y="11" type="curve" smooth="yes"/>
      <point x="243" y="493" type="line"/>
      <point x="295" y="495"/>
      <point x="355" y="499"/>
      <point x="420" y="508" type="curve" smooth="yes"/>
      <point x="632" y="536"/>
      <point x="812" y="651"/>
      <point x="812" y="893" type="curve" smooth="yes"/>
      <point x="812" y="1107"/>
      <point x="685" y="1190"/>
      <point x="446" y="1190" type="curve" smooth="yes"/>
      <point x="209" y="1190" type="line" smooth="yes"/>
      <point x="185" y="1190"/>
      <point x="173" y="1183"/>
      <point x="173" y="1168" type="curve" smooth="yes"/>
      <point x="173" y="11" type="line" smooth="yes"/>
      <point x="173" y="-4"/>
      <point x="185" y="-11"/>
    </contour>
    <contour>
      <point x="243" y="556" type="curve"/>
      <point x="243" y="1126" type="line"/>
      <point x="446" y="1126" type="line" smooth="yes"/>
      <point x="637" y="1126"/>
      <point x="737" y="1061"/>
      <point x="737" y="891" type="curve" smooth="yes"/>
      <point x="737" y="693"/>
      <point x="598" y="596"/>
      <point x="418" y="571" type="curve" smooth="yes"/>
      <point x="352" y="562"/>
      <point x="289" y="558"/>
    </contour>
  </outline>
</glyph>
<glyph name="Q" format="2">
  <advance width="1147"/>
  <unicode hex="0051"/>
  <anchor x="574" y="0" name="bottom"/>
  <anchor x="574" y="595" name="center"/>
  <anchor x="733" y="9" name="ogonek"/>
  <anchor x="574" y="1139" name="top"/>
  <anchor x="809" y="1138" name="topright"/>
  <outline>
    <contour>
      <point x="867" y="-221" type="curve" smooth="yes"/>
      <point x="886" y="-209"/>
      <point x="886" y="-193"/>
      <point x="877" y="-179" type="curve" smooth="yes"/>
      <point x="620" y="218" type="line" smooth="yes"/>
      <point x="609" y="235"/>
      <point x="594" y="238"/>
      <point x="574" y="224" type="curve" smooth="yes"/>
      <point x="554" y="210"/>
      <point x="556" y="195"/>
      <point x="566" y="180" type="curve" smooth="yes"/>
      <point x="825" y="-218" type="line" smooth="yes"/>
      <point x="834" y="-232"/>
      <point x="851" y="-231"/>
    </contour>
    <component base="O"/>
  </outline>
</glyph>
<glyph name="S" format="2">
	<unicode hex="0053"/>
	<advance width="853"/>
	<outline>
		<contour>
			<point x="428" y="-15" type="curve" smooth="yes"/>
			<point x="630" y="-15"/>
			<point x="760" y="124"/>
			<point x="760" y="308" type="curve" smooth="yes"/>
			<point x="760" y="516"/>
			<point x="598" y="592"/>
			<point x="446" y="659" type="curve" smooth="yes"/>
			<point x="315" y="717"/>
			<point x="213" y="768"/>
			<point x="211" y="923" type="curve" smooth="yes"/>
			<point x="209" y="1055"/>
			<point x="298" y="1144"/>
			<point x="441" y="1144" type="curve" smooth="yes"/>
			<point x="557" y="1144"/>
			<point x="621" y="1092"/>
			<point x="682" y="1024" type="curve" smooth="yes"/>
			<point x="695" y="1010"/>
			<point x="709" y="1012"/>
			<point x="724" y="1026" type="curve" smooth="yes"/>
			<point x="738" y="1040"/>
			<point x="741" y="1052"/>
			<point x="728" y="1068" type="curve" smooth="yes"/>
			<point x="652" y="1161"/>
			<point x="561" y="1212"/>
			<point x="441" y="1212" type="curve" smooth="yes"/>
			<point x="272" y="1212"/>
			<point x="137" y="1106"/>
			<point x="137" y="925" type="curve" smooth="yes"/>
			<point x="137" y="719"/>
			<point x="283" y="652"/>
			<point x="426" y="587" type="curve" smooth="yes"/>
			<point x="570" y="521"/>
			<point x="686" y="467"/>
			<point x="686" y="306" type="curve" smooth="yes"/>
			<point x="686" y="159"/>
			<point x="588" y="53"/>
			<point x="428" y="53" type="curve" smooth="yes"/>
			<point x="304" y="53"/>
			<point x="212" y="114"/>
			<point x="152" y="182" type="curve" smooth="yes"/>
			<point x="134" y="202"/>
			<point x="125" y="206"/>
			<point x="106" y="189" type="curve" smooth="yes"/>
			<point x="88" y="173"/>
			<point x="89" y="160"/>
			<point x="102" y="143" type="curve" smooth="yes"/>
			<point x="174" y="48"/>
			<point x="289" y="-15"/>
		</contour>
	</outline>
	<anchor name="bottom" x="427" y="0"/>
	<anchor name="top" x="448" y="1139"/>
</glyph>
<glyph name="T" format="2">
  <advance width="856"/>
  <unicode hex="0054"/>
  <anchor x="420" y="0" name="bottom"/>
  <anchor x="428" y="595" name="center"/>
  <anchor x="428" y="1139" name="top"/>
  <outline>
    <contour>
      <point x="428" y="-12" type="curve" smooth="yes"/>
      <point x="451" y="-12"/>
      <point x="463" y="-5"/>
      <point x="463" y="10" type="curve" smooth="yes"/>
      <point x="463" y="1126" type="line"/>
      <point x="806" y="1126" type="line" smooth="yes"/>
      <point x="822" y="1126"/>
      <point x="828" y="1134"/>
      <point x="828" y="1158" type="curve" smooth="yes"/>
      <point x="828" y="1182"/>
      <point x="822" y="1190"/>
      <point x="806" y="1190" type="curve" smooth="yes"/>
      <point x="50" y="1190" type="line" smooth="yes"/>
      <point x="34" y="1190"/>
      <point x="28" y="1182"/>
      <point x="28" y="1158" type="curve" smooth="yes"/>
      <point x="28" y="1134"/>
      <point x="34" y="1126"/>
      <point x="50" y="1126" type="curve" smooth="yes"/>
      <point x="393" y="1126" type="line"/>
      <point x="393" y="10" type="line" smooth="yes"/>
      <point x="393" y="-5"/>
      <point x="405" y="-12"/>
    </contour>
  </outline>
</glyph>
<glyph name="V" format="2">
	<unicode hex="0056"/>
	<advance width="899"/>
	<outline>
		<contour>
			<point x="449" y="-11" type="curve" smooth="yes"/>
			<point x="475" y="-11"/>
			<point x="486" y="-4"/>
			<point x="494" y="21" type="curve" smooth="yes"/>
			<point x="868" y="1179" type="line" smooth="yes"/>
			<point x="873" y="1193"/>
			<point x="866" y="1204"/>
			<point x="843" y="1212" type="curve" smooth="yes"/>
			<point x="822" y="1219"/>
			<point x="807" y="1217"/>
			<point x="803" y="1203" type="curve" smooth="yes"/>
			<point x="450" y="95" type="line"/>
			<point x="96" y="1203" type="line" smooth="yes"/>
			<point x="91" y="1217"/>
			<point x="77" y="1219"/>
			<point x="56" y="1212" type="curve" smooth="yes"/>
			<point x="33" y="1204"/>
			<point x="26" y="1193"/>
			<point x="31" y="1179" type="curve" smooth="yes"/>
			<point x="405" y="21" type="line" smooth="yes"/>
			<point x="413" y="-4"/>
			<point x="424" y="-11"/>
		</contour>
	</outline>
</glyph>
<glyph name="W" format="2">
  <advance width="1813"/>
  <unicode hex="0057"/>
  <anchor x="906" y="0" name="bottom"/>
  <anchor x="906" y="1424" name="top"/>
  <outline>
    <contour>
      <point x="455" y="-14" type="curve" smooth="yes"/>
      <point x="488" y="-14"/>
      <point x="503" y="-4"/>
      <point x="511" y="26" type="curve" smooth="yes"/>
      <point x="906" y="1375" type="line"/>
      <point x="1298" y="26" type="line" smooth="yes"/>
      <point x="1306" y="-4"/>
      <point x="1321" y="-14"/>
      <point x="1353" y="-14" type="curve" smooth="yes"/>
      <point x="1385" y="-14"/>
      <point x="1401" y="-4"/>
      <point x="1409" y="26" type="curve" smooth="yes"/>
      <point x="1775" y="1470" type="line" smooth="yes"/>
      <point x="1780" y="1488"/>
      <point x="1773" y="1501"/>
      <point x="1744" y="1511" type="curve" smooth="yes"/>
      <point x="1718" y="1520"/>
      <point x="1698" y="1518"/>
      <point x="1693" y="1496" type="curve" smooth="yes"/>
      <point x="1353" y="126" type="line"/>
      <point x="959" y="1479" type="line" smooth="yes"/>
      <point x="951" y="1505"/>
      <point x="936" y="1515"/>
      <point x="906" y="1515" type="curve" smooth="yes"/>
      <point x="878" y="1515"/>
      <point x="863" y="1505"/>
      <point x="855" y="1479" type="curve" smooth="yes"/>
      <point x="458" y="125" type="line"/>
      <point x="120" y="1496" type="line" smooth="yes"/>
      <point x="115" y="1518"/>
      <point x="95" y="1520"/>
      <point x="69" y="1511" type="curve" smooth="yes"/>
      <point x="40" y="1501"/>
      <point x="33" y="1488"/>
      <point x="38" y="1470" type="curve" smooth="yes"/>
      <point x="400" y="26" type="line" smooth="yes"/>
      <point x="408" y="-4"/>
      <point x="424" y="-14"/>
    </contour>
  </outline>
</glyph>
<glyph name="X" format="2">
	<unicode hex="0058"/>
	<advance width="850"/>
	<outline>
		<contour>
			<point x="57" y="-1" type="curve" smooth="yes"/>
			<point x="78" y="-14"/>
			<point x="92" y="-15"/>
			<point x="101" y="0" type="curve" smooth="yes"/>
			<point x="424" y="547" type="line"/>
			<point x="747" y="0" type="line" smooth="yes"/>
			<point x="756" y="-15"/>
			<point x="770" y="-14"/>
			<point x="791" y="-1" type="curve" smooth="yes"/>
			<point x="810" y="11"/>
			<point x="813" y="24"/>
			<point x="806" y="36" type="curve" smooth="yes"/>
			<point x="469" y="606" type="line"/>
			<point x="801" y="1166" type="line" smooth="yes"/>
			<point x="808" y="1178"/>
			<point x="805" y="1191"/>
			<point x="786" y="1203" type="curve" smooth="yes"/>
			<point x="768" y="1214"/>
			<point x="754" y="1215"/>
			<point x="745" y="1200" type="curve" smooth="yes"/>
			<point x="431" y="670" type="line"/>
			<point x="118" y="1200" type="line" smooth="yes"/>
			<point x="108" y="1217"/>
			<point x="94" y="1216"/>
			<point x="73" y="1203" type="curve" smooth="yes"/>
			<point x="54" y="1191"/>
			<point x="51" y="1178"/>
			<point x="58" y="1166" type="curve" smooth="yes"/>
			<point x="386" y="611" type="line"/>
			<point x="46" y="36" type="line" smooth="yes"/>
			<point x="39" y="24"/>
			<point x="38" y="11"/>
		</contour>
	</outline>
</glyph>
<glyph name="Y" format="2">
	<unicode hex="0059"/>
	<advance width="800"/>
	<outline>
		<contour>
			<point x="395" y="-11" type="curve" smooth="yes"/>
			<point x="418" y="-11"/>
			<point x="430" y="-4"/>
			<point x="430" y="11" type="curve" smooth="yes"/>
			<point x="430" y="516" type="line"/>
			<point x="793" y="1168" type="line" smooth="yes"/>
			<point x="800" y="1181"/>
			<point x="795" y="1192"/>
			<point x="773" y="1204" type="curve" smooth="yes"/>
			<point x="753" y="1215"/>
			<point x="742" y="1217"/>
			<point x="732" y="1199" type="curve" smooth="yes"/>
			<point x="397" y="592" type="line"/>
			<point x="70" y="1199" type="line" smooth="yes"/>
			<point x="60" y="1217"/>
			<point x="47" y="1215"/>
			<point x="27" y="1204" type="curve" smooth="yes"/>
			<point x="5" y="1192"/>
			<point x="0" y="1181"/>
			<point x="7" y="1168" type="curve" smooth="yes"/>
			<point x="360" y="516" type="line"/>
			<point x="360" y="11" type="line" smooth="yes"/>
			<point x="360" y="-4"/>
			<point x="372" y="-11"/>
		</contour>
	</outline>
	<anchor name="bottom" x="395" y="0"/>
	<anchor name="top" x="400" y="1139"/>
</glyph>
<glyph name="Z" format="2">
  <advance width="949"/>
  <unicode hex="005A"/>
  <anchor x="475" y="0" name="bottom"/>
  <anchor x="475" y="786" name="center"/>
  <anchor x="475" y="1424" name="top"/>
  <outline>
    <contour>
      <point x="65" y="0" type="curve" smooth="yes"/>
      <point x="893" y="0" type="line" smooth="yes"/>
      <point x="913" y="0"/>
      <point x="920" y="10"/>
      <point x="920" y="40" type="curve" smooth="yes"/>
      <point x="920" y="70"/>
      <point x="913" y="80"/>
      <point x="893" y="80" type="curve" smooth="yes"/>
      <point x="149" y="80" type="line"/>
      <point x="896" y="1430" type="line" smooth="yes"/>
      <point x="909" y="1454"/>
      <point x="891" y="1488"/>
      <point x="866" y="1488" type="curve" smooth="yes"/>
      <point x="106" y="1488" type="line" smooth="yes"/>
      <point x="86" y="1488"/>
      <point x="79" y="1478"/>
      <point x="79" y="1448" type="curve" smooth="yes"/>
      <point x="79" y="1418"/>
      <point x="86" y="1408"/>
      <point x="106" y="1408" type="curve" smooth="yes"/>
      <point x="783" y="1408" type="line"/>
      <point x="35" y="58" type="line" smooth="yes"/>
      <point x="23" y="34"/>
      <point x="40" y="0"/>
    </contour>
  </outline>
</glyph>
<glyph name="backslash" format="2">
  <advance width="525"/>
  <unicode hex="005C"/>
  <outline>
    <contour>
      <point x="476" y="-75" type="curve" smooth="yes"/>
      <point x="505" y="-67"/>
      <point x="518" y="-56"/>
      <point x="513" y="-37" type="curve" smooth="yes"/>
      <point x="98" y="1559" type="line" smooth="yes"/>
      <point x="93" y="1578"/>
      <point x="76" y="1583"/>
      <point x="49" y="1575" type="curve" smooth="yes"/>
      <point x="20" y="1568"/>
      <point x="8" y="1556"/>
      <point x="13" y="1538" type="curve" smooth="yes"/>
      <point x="428" y="-59" type="line" smooth="yes"/>
      <point x="433" y="-77"/>
      <point x="449" y="-82"/>
    </contour>
  </outline>
</glyph>
<glyph name="bracketright" format="2">
  <advance width="500"/>
  <unicode hex="005D"/>
  <outline>
    <contour>
      <point x="87" y="-28" type="curve" smooth="yes"/>
      <point x="87" y="-52"/>
      <point x="93" y="-60"/>
      <point x="109" y="-60" type="curve" smooth="yes"/>
      <point x="265" y="-60" type="line" smooth="yes"/>
      <point x="288" y="-60"/>
      <point x="300" y="-53"/>
      <point x="300" y="-38" type="curve" smooth="yes"/>
      <point x="300" y="1238" type="line" smooth="yes"/>
      <point x="300" y="1253"/>
      <point x="288" y="1260"/>
      <point x="265" y="1260" type="curve" smooth="yes"/>
      <point x="109" y="1260" type="line" smooth="yes"/>
      <point x="93" y="1260"/>
      <point x="87" y="1252"/>
      <point x="87" y="1228" type="curve" smooth="yes"/>
      <point x="87" y="1204"/>
      <point x="93" y="1196"/>
      <point x="109" y="1196" type="curve" smooth="yes"/>
      <point x="230" y="1196" type="line"/>
      <point x="230" y="4" type="line"/>
      <point x="109" y="4" type="line" smooth="yes"/>
      <point x="93" y="4"/>
      <point x="87" y="-4"/>
    </contour>
  </outline>
</glyph>
<glyph name="asciicircum" format="2">
  <advance width="610"/>
  <unicode hex="005E"/>
  <outline>
    <contour>
      <point x="99" y="919" type="line" smooth="yes"/>
      <point x="86" y="898"/>
      <point x="88" y="887"/>
      <point x="107" y="874" type="curve" smooth="yes"/>
      <point x="129" y="859"/>
      <point x="142" y="865"/>
      <point x="153" y="883" type="curve" smooth="yes"/>
      <point x="305" y="1129" type="line"/>
      <point x="457" y="883" type="line" smooth="yes"/>
      <point x="467" y="866"/>
      <point x="479" y="859"/>
      <point x="501" y="874" type="curve" smooth="yes"/>
      <point x="520" y="887"/>
      <point x="524" y="898"/>
      <point x="511" y="919" type="curve" smooth="yes"/>
      <point x="343" y="1187" type="line" smooth="yes"/>
      <point x="332" y="1204"/>
      <point x="323" y="1212"/>
      <point x="305" y="1212" type="curve" smooth="yes"/>
      <point x="287" y="1212"/>
      <point x="278" y="1204"/>
      <point x="267" y="1187" type="curve" smooth="yes"/>
    </contour>
  </outline>
</glyph>
<glyph name="underscore" format="2">
	<unicode hex="005F"/>
	<advance width="440"/>
	<outline>
		<contour>
			<point x="50" y="-109" type="curve" smooth="yes"/>
			<point x="390" y="-109" type="line" smooth="yes"/>
			<point x="406" y="-109"/>
			<point x="412" y="-101"/>
			<point x="412" y="-77" type="curve" smooth="yes"/>
			<point x="412" y="-53"/>
			<point x="406" y="-45"/>
			<point x="390" y="-45" type="curve" smooth="yes"/>
			<point x="50" y="-45" type="line" smooth="yes"/>
			<point x="34" y="-45"/>
			<point x="28" y="-53"/>
			<point x="28" y="-77" type="curve" smooth="yes"/>
			<point x="28" y="-101"/>
			<point x="34" y="-109"/>
		</contour>
	</outline>
</glyph>
<glyph name="b" format="2">
  <advance width="478"/>
  <unicode hex="0062"/>
  <anchor x="268" y="0" name="bottom"/>
  <anchor x="268" y="200" name="center"/>
  <anchor x="268" y="400" name="top"/>
  <outline>
    <contour>
      <point x="114" y="-12" type="curve" smooth="yes"/>
      <point x="137" y="-12"/>
      <point x="149" y="-5"/>
      <point x="149" y="9" type="curve" smooth="yes"/>
      <point x="149" y="11" type="line"/>
      <point x="178" y="-5"/>
      <point x="212" y="-14"/>
      <point x="243" y="-14" type="curve" smooth="yes"/>
      <point x="364" y="-14"/>
      <point x="428" y="83"/>
      <point x="428" y="223" type="curve" smooth="yes"/>
      <point x="428" y="344"/>
      <point x="378" y="415"/>
      <point x="295" y="415" type="curve" smooth="yes"/>
      <point x="235" y="415"/>
      <point x="182" y="377"/>
      <point x="149" y="285" type="curve"/>
      <point x="149" y="1191" type="line" smooth="yes"/>
      <point x="149" y="1205"/>
      <point x="137" y="1212"/>
      <point x="114" y="1212" type="curve" smooth="yes"/>
      <point x="91" y="1212"/>
      <point x="80" y="1205"/>
      <point x="80" y="1191" type="curve" smooth="yes"/>
      <point x="80" y="9" type="line" smooth="yes"/>
      <point x="80" y="-5"/>
      <point x="91" y="-12"/>
    </contour>
    <contour>
      <point x="149" y="72" type="curve"/>
      <point x="149" y="120" type="line"/>
      <point x="171" y="292"/>
      <point x="227" y="351"/>
      <point x="284" y="351" type="curve" smooth="yes"/>
      <point x="339" y="351"/>
      <point x="357" y="290"/>
      <point x="357" y="222" type="curve" smooth="yes"/>
      <point x="357" y="110"/>
      <point x="313" y="46"/>
      <point x="237" y="46" type="curve" smooth="yes"/>
      <point x="212" y="46"/>
      <point x="182" y="53"/>
    </contour>
  </outline>
</glyph>
<glyph name="f" format="2">
  <advance width="293"/>
  <unicode hex="0066"/>
  <outline>
    <contour>
      <point x="60" y="-815" type="curve" smooth="yes"/>
      <point x="121" y="-815"/>
      <point x="171" y="-787"/>
      <point x="171" y="-701" type="curve" smooth="yes"/>
      <point x="171" y="336" type="line"/>
      <point x="274" y="336" type="line" smooth="yes"/>
      <point x="286" y="336"/>
      <point x="293" y="346"/>
      <point x="293" y="368" type="curve" smooth="yes"/>
      <point x="293" y="389"/>
      <point x="286" y="400"/>
      <point x="274" y="400" type="curve" smooth="yes"/>
      <point x="171" y="400" type="line"/>
      <point x="171" y="1076" type="line" smooth="yes"/>
      <point x="171" y="1135"/>
      <point x="196" y="1151"/>
      <point x="229" y="1151" type="curve" smooth="yes"/>
      <point x="255" y="1151"/>
      <point x="271" y="1141"/>
      <point x="295" y="1124" type="curve" smooth="yes"/>
      <point x="308" y="1115"/>
      <point x="319" y="1117"/>
      <point x="333" y="1131" type="curve" smooth="yes"/>
      <point x="345" y="1144"/>
      <point x="350" y="1156"/>
      <point x="338" y="1168" type="curve" smooth="yes"/>
      <point x="314" y="1193"/>
      <point x="279" y="1215"/>
      <point x="227" y="1215" type="curve" smooth="yes"/>
      <point x="164" y="1215"/>
      <point x="102" y="1177"/>
      <point x="102" y="1081" type="curve" smooth="yes"/>
      <point x="102" y="400" type="line"/>
      <point x="33" y="400" type="line" smooth="yes"/>
      <point x="20" y="400"/>
      <point x="13" y="389"/>
      <point x="13" y="368" type="curve" smooth="yes"/>
      <point x="13" y="346"/>
      <point x="21" y="336"/>
      <point x="34" y="336" type="curve" smooth="yes"/>
      <point x="102" y="336" type="line"/>
      <point x="102" y="-701" type="line" smooth="yes"/>
      <point x="102" y="-732"/>
      <point x="94" y="-755"/>
      <point x="67" y="-755" type="curve" smooth="yes"/>
      <point x="46" y="-755"/>
      <point x="30" y="-743"/>
      <point x="13" y="-725" type="curve" smooth="yes"/>
      <point x="1" y="-712"/>
      <point x="-8" y="-712"/>
      <point x="-24" y="-722" type="curve" smooth="yes"/>
      <point x="-41" y="-733"/>
      <point x="-47" y="-745"/>
      <point x="-40" y="-760" type="curve" smooth="yes"/>
      <point x="-23" y="-794"/>
      <point x="17" y="-815"/>
    </contour>
  </outline>
</glyph>
<glyph name="g" format="2">
  <advance width="478"/>
  <unicode hex="0067"/>
  <anchor x="237" y="400" name="top"/>
  <outline>
    <contour>
      <point x="243" y="-815" type="curve" smooth="yes"/>
      <point x="349" y="-815"/>
      <point x="403" y="-752"/>
      <point x="403" y="-632" type="curve" smooth="yes"/>
      <point x="403" y="391" type="line" smooth="yes"/>
      <point x="403" y="405"/>
      <point x="391" y="412"/>
      <point x="368" y="412" type="curve" smooth="yes"/>
      <point x="345" y="412"/>
      <point x="334" y="405"/>
      <point x="334" y="391" type="curve" smooth="yes"/>
      <point x="334" y="-627" type="line" smooth="yes"/>
      <point x="334" y="-717"/>
      <point x="310" y="-753"/>
      <point x="247" y="-753" type="curve" smooth="yes"/>
      <point x="201" y="-753"/>
      <point x="164" y="-734"/>
      <point x="128" y="-704" type="curve" smooth="yes"/>
      <point x="111" y="-689"/>
      <point x="101" y="-691"/>
      <point x="85" y="-707" type="curve" smooth="yes"/>
      <point x="67" y="-725"/>
      <point x="71" y="-739"/>
      <point x="84" y="-752" type="curve" smooth="yes"/>
      <point x="117" y="-787"/>
      <point x="181" y="-815"/>
    </contour>
    <contour>
      <point x="183" y="-14" type="curve" smooth="yes"/>
      <point x="272" y="-14"/>
      <point x="335" y="65"/>
      <point x="367" y="280" type="curve"/>
      <point x="342" y="359" type="line"/>
      <point x="318" y="141"/>
      <point x="259" y="50"/>
      <point x="194" y="50" type="curve" smooth="yes"/>
      <point x="139" y="50"/>
      <point x="121" y="111"/>
      <point x="121" y="179" type="curve" smooth="yes"/>
      <point x="121" y="291"/>
      <point x="164" y="353"/>
      <point x="242" y="353" type="curve" smooth="yes"/>
      <point x="273" y="353"/>
      <point x="315" y="346"/>
      <point x="359" y="311" type="curve"/>
      <point x="359" y="375" type="line"/>
      <point x="320" y="400"/>
      <point x="278" y="415"/>
      <point x="231" y="415" type="curve" smooth="yes"/>
      <point x="114" y="415"/>
      <point x="50" y="318"/>
      <point x="50" y="178" type="curve" smooth="yes"/>
      <point x="50" y="57"/>
      <point x="100" y="-14"/>
    </contour>
  </outline>
</glyph>
<glyph name="h" format="2">
  <advance width="650"/>
  <unicode hex="0068"/>
  <anchor x="330" y="0" name="bottom"/>
  <anchor x="180" y="949" name="center"/>
  <anchor x="144" y="1424" name="top"/>
  <outline>
    <contour>
      <point x="534" y="-17" type="curve" smooth="yes"/>
      <point x="585" y="-17"/>
      <point x="623" y="23"/>
      <point x="645" y="85" type="curve" smooth="yes"/>
      <point x="651" y="101"/>
      <point x="644" y="113"/>
      <point x="625" y="120" type="curve" smooth="yes"/>
      <point x="606" y="126"/>
      <point x="595" y="123"/>
      <point x="590" y="111" type="curve" smooth="yes"/>
      <point x="573" y="75"/>
      <point x="563" y="61"/>
      <point x="549" y="61" type="curve" smooth="yes"/>
      <point x="531" y="61"/>
      <point x="526" y="75"/>
      <point x="526" y="106" type="curve" smooth="yes"/>
      <point x="526" y="369" type="line" smooth="yes"/>
      <point x="526" y="484"/>
      <point x="464" y="519"/>
      <point x="386" y="519" type="curve" smooth="yes"/>
      <point x="323" y="519"/>
      <point x="238" y="474"/>
      <point x="186" y="318" type="curve"/>
      <point x="186" y="1489" type="line" smooth="yes"/>
      <point x="186" y="1506"/>
      <point x="171" y="1515"/>
      <point x="143" y="1515" type="curve" smooth="yes"/>
      <point x="114" y="1515"/>
      <point x="100" y="1506"/>
      <point x="100" y="1489" type="curve" smooth="yes"/>
      <point x="100" y="11" type="line" smooth="yes"/>
      <point x="100" y="-6"/>
      <point x="114" y="-15"/>
      <point x="143" y="-15" type="curve" smooth="yes"/>
      <point x="171" y="-15"/>
      <point x="186" y="-6"/>
      <point x="186" y="11" type="curve" smooth="yes"/>
      <point x="186" y="86" type="line"/>
      <point x="215" y="305"/>
      <point x="283" y="440"/>
      <point x="374" y="440" type="curve" smooth="yes"/>
      <point x="424" y="440"/>
      <point x="440" y="414"/>
      <point x="440" y="359" type="curve" smooth="yes"/>
      <point x="440" y="93" type="line" smooth="yes"/>
      <point x="440" y="15"/>
      <point x="480" y="-17"/>
    </contour>
  </outline>
</glyph>
<glyph name="j" format="2">
  <advance width="268"/>
  <unicode hex="006A"/>
  <outline>
    <contour>
      <point x="56" y="-1019" type="curve" smooth="yes"/>
      <point x="116" y="-1019"/>
      <point x="175" y="-984"/>
      <point x="175" y="-872" type="curve" smooth="yes"/>
      <point x="175" y="489" type="line" smooth="yes"/>
      <point x="175" y="506"/>
      <point x="160" y="515"/>
      <point x="131" y="515" type="curve" smooth="yes"/>
      <point x="103" y="515"/>
      <point x="89" y="506"/>
      <point x="89" y="489" type="curve" smooth="yes"/>
      <point x="89" y="-876" type="line" smooth="yes"/>
      <point x="89" y="-919"/>
      <point x="81" y="-944"/>
      <point x="53" y="-944" type="curve" smooth="yes"/>
      <point x="26" y="-944"/>
      <point x="5" y="-924"/>
      <point x="-14" y="-901" type="curve" smooth="yes"/>
      <point x="-27" y="-885"/>
      <point x="-42" y="-884"/>
      <point x="-65" y="-900" type="curve" smooth="yes"/>
      <point x="-81" y="-911"/>
      <point x="-92" y="-930"/>
      <point x="-79" y="-949" type="curve" smooth="yes"/>
      <point x="-51" y="-989"/>
      <point x="-1" y="-1019"/>
    </contour>
    <contour>
      <point x="131" y="669" type="curve" smooth="yes"/>
      <point x="168" y="669"/>
      <point x="186" y="689"/>
      <point x="186" y="731" type="curve" smooth="yes"/>
      <point x="186" y="774"/>
      <point x="168" y="795"/>
      <point x="131" y="795" type="curve" smooth="yes"/>
      <point x="94" y="795"/>
      <point x="75" y="774"/>
      <point x="75" y="731" type="curve" smooth="yes"/>
      <point x="75" y="689"/>
      <point x="94" y="669"/>
    </contour>
  </outline>
</glyph>
<glyph name="k" format="2">
	<unicode hex="006B"/>
	<advance width="451"/>
	<outline>
		<contour>
			<point x="114" y="-12" type="curve" smooth="yes"/>
			<point x="137" y="-12"/>
			<point x="149" y="-5"/>
			<point x="149" y="9" type="curve" smooth="yes"/>
			<point x="149" y="183" type="line"/>
			<point x="266" y="20"/>
			<point x="300" y="-15"/>
			<point x="356" y="-15" type="curve" smooth="yes"/>
			<point x="386" y="-15"/>
			<point x="427" y="5"/>
			<point x="456" y="64" type="curve" smooth="yes"/>
			<point x="462" y="77"/>
			<point x="460" y="88"/>
			<point x="445" y="96" type="curve" smooth="yes"/>
			<point x="430" y="104"/>
			<point x="421" y="103"/>
			<point x="412" y="89" type="curve" smooth="yes"/>
			<point x="391" y="57"/>
			<point x="380" y="45"/>
			<point x="362" y="45" type="curve" smooth="yes"/>
			<point x="340" y="45"/>
			<point x="315" y="69"/>
			<point x="203" y="227" type="curve"/>
			<point x="377" y="355" type="line" smooth="yes"/>
			<point x="396" y="369"/>
			<point x="392" y="384"/>
			<point x="383" y="396" type="curve" smooth="yes"/>
			<point x="369" y="415"/>
			<point x="355" y="415"/>
			<point x="339" y="403" type="curve" smooth="yes"/>
			<point x="149" y="263" type="line"/>
			<point x="149" y="1191" type="line" smooth="yes"/>
			<point x="149" y="1205"/>
			<point x="137" y="1212"/>
			<point x="114" y="1212" type="curve" smooth="yes"/>
			<point x="91" y="1212"/>
			<point x="80" y="1205"/>
			<point x="80" y="1191" type="curve" smooth="yes"/>
			<point x="80" y="9" type="line" smooth="yes"/>
			<point x="80" y="-5"/>
			<point x="91" y="-12"/>
		</contour>
	</outline>
	<anchor name="bottom" x="236" y="0"/>
	<anchor name="top" x="114" y="670"/>
</glyph>
<glyph name="l" format="2">
	<unicode hex="006C"/>
	<advance width="246"/>
	<outline>
		<contour>
			<point x="150" y="-14" type="curve" smooth="yes"/>
			<point x="191" y="-14"/>
			<point x="221" y="18"/>
			<point x="240" y="71" type="curve" smooth="yes"/>
			<point x="244" y="81"/>
			<point x="238" y="91"/>
			<point x="223" y="96" type="curve" smooth="yes"/>
			<point x="208" y="101"/>
			<point x="199" y="98"/>
			<point x="195" y="89" type="curve" smooth="yes"/>
			<point x="181" y="60"/>
			<point x="173" y="49"/>
			<point x="162" y="49" type="curve" smooth="yes"/>
			<point x="148" y="49"/>
			<point x="144" y="57"/>
			<point x="144" y="85" type="curve" smooth="yes"/>
			<point x="144" y="1191" type="line" smooth="yes"/>
			<point x="144" y="1205"/>
			<point x="132" y="1212"/>
			<point x="109" y="1212" type="curve" smooth="yes"/>
			<point x="86" y="1212"/>
			<point x="75" y="1205"/>
			<point x="75" y="1191" type="curve" smooth="yes"/>
			<point x="75" y="74" type="line" smooth="yes"/>
			<point x="75" y="16"/>
			<point x="101" y="-14"/>
		</contour>
	</outline>
	<anchor name="bottom" x="158" y="0"/>
	<anchor name="center" x="111" y="570"/>
	<anchor name="top" x="118" y="1139"/>
	<anchor name="topright" x="126" y="1200"/>
</glyph>
<glyph name="m" format="2">
  <advance width="964"/>
  <unicode hex="006D"/>
  <anchor x="469" y="0" name="bottom"/>
  <anchor x="474" y="500" name="top"/>
  <outline>
    <contour>
      <point x="845" y="-17" type="curve" smooth="yes"/>
      <point x="901" y="-17"/>
      <point x="935" y="23"/>
      <point x="959" y="86" type="curve" smooth="yes"/>
      <point x="964" y="101"/>
      <point x="958" y="113"/>
      <point x="939" y="120" type="curve" smooth="yes"/>
      <point x="920" y="126"/>
      <point x="909" y="123"/>
      <point x="904" y="111" type="curve" smooth="yes"/>
      <point x="886" y="75"/>
      <point x="876" y="61"/>
      <point x="861" y="61" type="curve" smooth="yes"/>
      <point x="845" y="61"/>
      <point x="839" y="71"/>
      <point x="839" y="106" type="curve" smooth="yes"/>
      <point x="839" y="369" type="line" smooth="yes"/>
      <point x="839" y="484"/>
      <point x="779" y="519"/>
      <point x="705" y="519" type="curve" smooth="yes"/>
      <point x="610" y="519"/>
      <point x="471" y="405"/>
      <point x="471" y="26" type="curve"/>
      <point x="504" y="26" type="line"/>
      <point x="520" y="256"/>
      <point x="595" y="440"/>
      <point x="691" y="440" type="curve" smooth="yes"/>
      <point x="738" y="440"/>
      <point x="753" y="414"/>
      <point x="753" y="359" type="curve" smooth="yes"/>
      <point x="753" y="93" type="line" smooth="yes"/>
      <point x="753" y="18"/>
      <point x="790" y="-17"/>
    </contour>
    <contour>
      <point x="136" y="-15" type="curve" smooth="yes"/>
      <point x="165" y="-15"/>
      <point x="180" y="-6"/>
      <point x="180" y="11" type="curve" smooth="yes"/>
      <point x="180" y="83" type="line"/>
      <point x="203" y="285"/>
      <point x="273" y="440"/>
      <point x="361" y="440" type="curve" smooth="yes"/>
      <point x="408" y="440"/>
      <point x="423" y="414"/>
      <point x="423" y="359" type="curve" smooth="yes"/>
      <point x="423" y="11" type="line" smooth="yes"/>
      <point x="423" y="-6"/>
      <point x="436" y="-15"/>
      <point x="465" y="-15" type="curve" smooth="yes"/>
      <point x="494" y="-15"/>
      <point x="509" y="-6"/>
      <point x="509" y="11" type="curve" smooth="yes"/>
      <point x="509" y="369" type="line" smooth="yes"/>
      <point x="509" y="484"/>
      <point x="446" y="519"/>
      <point x="375" y="519" type="curve" smooth="yes"/>
      <point x="313" y="519"/>
      <point x="230" y="469"/>
      <point x="180" y="315" type="curve"/>
      <point x="180" y="489" type="line" smooth="yes"/>
      <point x="180" y="506"/>
      <point x="165" y="515"/>
      <point x="136" y="515" type="curve" smooth="yes"/>
      <point x="108" y="515"/>
      <point x="94" y="506"/>
      <point x="94" y="489" type="curve" smooth="yes"/>
      <point x="94" y="11" type="line" smooth="yes"/>
      <point x="94" y="-6"/>
      <point x="108" y="-15"/>
    </contour>
  </outline>
</glyph>
<glyph name="n" format="2">
	<unicode hex="006E"/>
	<advance width="517"/>
	<outline>
		<contour>
			<point x="423" y="-14" type="curve" smooth="yes"/>
			<point x="464" y="-14"/>
			<point x="494" y="18"/>
			<point x="513" y="71" type="curve" smooth="yes"/>
			<point x="517" y="81"/>
			<point x="511" y="90"/>
			<point x="496" y="96" type="curve" smooth="yes"/>
			<point x="481" y="101"/>
			<point x="472" y="98"/>
			<point x="468" y="89" type="curve" smooth="yes"/>
			<point x="454" y="60"/>
			<point x="446" y="49"/>
			<point x="433" y="49" type="curve" smooth="yes"/>
			<point x="421" y="49"/>
			<point x="417" y="57"/>
			<point x="417" y="85" type="curve" smooth="yes"/>
			<point x="417" y="295" type="line" smooth="yes"/>
			<point x="417" y="387"/>
			<point x="367" y="415"/>
			<point x="305" y="415" type="curve" smooth="yes"/>
			<point x="252" y="415"/>
			<point x="185" y="379"/>
			<point x="144" y="254" type="curve"/>
			<point x="144" y="391" type="line" smooth="yes"/>
			<point x="144" y="405"/>
			<point x="132" y="412"/>
			<point x="109" y="412" type="curve" smooth="yes"/>
			<point x="86" y="412"/>
			<point x="75" y="405"/>
			<point x="75" y="391" type="curve" smooth="yes"/>
			<point x="75" y="9" type="line" smooth="yes"/>
			<point x="75" y="-5"/>
			<point x="86" y="-12"/>
			<point x="109" y="-12" type="curve" smooth="yes"/>
			<point x="132" y="-12"/>
			<point x="144" y="-5"/>
			<point x="144" y="9" type="curve" smooth="yes"/>
			<point x="144" y="68" type="line"/>
			<point x="167" y="244"/>
			<point x="221" y="352"/>
			<point x="296" y="352" type="curve" smooth="yes"/>
			<point x="335" y="352"/>
			<point x="348" y="331"/>
			<point x="348" y="287" type="curve" smooth="yes"/>
			<point x="348" y="74" type="line" smooth="yes"/>
			<point x="348" y="16"/>
			<point x="374" y="-14"/>
		</contour>
	</outline>
	<anchor name="bottom" x="259" y="0"/>
	<anchor name="top" x="248" y="400"/>
</glyph>
<glyph name="o" format="2">
  <advance width="471"/>
  <unicode hex="006F"/>
  <anchor x="236" y="0" name="bottom"/>
  <anchor x="236" y="200" name="center"/>
  <anchor x="308" y="0" name="ogonek"/>
  <anchor x="236" y="400" name="top"/>
  <anchor x="292" y="405" name="topright"/>
  <outline>
    <contour>
      <point x="236" y="-15" type="curve" smooth="yes"/>
      <point x="343" y="-15"/>
      <point x="421" y="75"/>
      <point x="421" y="204" type="curve" smooth="yes"/>
      <point x="421" y="325"/>
      <point x="343" y="415"/>
      <point x="236" y="415" type="curve" smooth="yes"/>
      <point x="128" y="415"/>
      <point x="50" y="325"/>
      <point x="50" y="200" type="curve" smooth="yes"/>
      <point x="50" y="62"/>
      <point x="128" y="-15"/>
    </contour>
    <contour>
      <point x="236" y="49" type="curve" smooth="yes"/>
      <point x="169" y="49"/>
      <point x="121" y="112"/>
      <point x="121" y="200" type="curve" smooth="yes"/>
      <point x="121" y="288"/>
      <point x="169" y="351"/>
      <point x="236" y="351" type="curve" smooth="yes"/>
      <point x="302" y="351"/>
      <point x="350" y="288"/>
      <point x="350" y="204" type="curve" smooth="yes"/>
      <point x="350" y="112"/>
      <point x="302" y="49"/>
    </contour>
  </outline>
</glyph>
<glyph name="p" format="2">
  <advance width="598"/>
  <unicode hex="0070"/>
  <outline>
    <contour>
      <point x="143" y="-1015" type="curve" smooth="yes"/>
      <point x="171" y="-1015"/>
      <point x="186" y="-1006"/>
      <point x="186" y="-989" type="curve" smooth="yes"/>
      <point x="186" y="13" type="line"/>
      <point x="224" y="-7"/>
      <point x="261" y="-17"/>
      <point x="298" y="-17" type="curve" smooth="yes"/>
      <point x="456" y="-17"/>
      <point x="535" y="104"/>
      <point x="535" y="279" type="curve" smooth="yes"/>
      <point x="535" y="430"/>
      <point x="473" y="519"/>
      <point x="369" y="519" type="curve" smooth="yes"/>
      <point x="294" y="519"/>
      <point x="230" y="473"/>
      <point x="186" y="354" type="curve"/>
      <point x="186" y="489" type="line" smooth="yes"/>
      <point x="186" y="506"/>
      <point x="171" y="515"/>
      <point x="143" y="515" type="curve" smooth="yes"/>
      <point x="114" y="515"/>
      <point x="100" y="506"/>
      <point x="100" y="489" type="curve" smooth="yes"/>
      <point x="100" y="-989" type="line" smooth="yes"/>
      <point x="100" y="-1006"/>
      <point x="114" y="-1015"/>
    </contour>
    <contour>
      <point x="186" y="90" type="curve"/>
      <point x="186" y="166" type="line"/>
      <point x="221" y="369"/>
      <point x="284" y="439"/>
      <point x="354" y="439" type="curve" smooth="yes"/>
      <point x="424" y="439"/>
      <point x="446" y="363"/>
      <point x="446" y="278" type="curve" smooth="yes"/>
      <point x="446" y="138"/>
      <point x="391" y="58"/>
      <point x="294" y="58" type="curve" smooth="yes"/>
      <point x="266" y="58"/>
      <point x="226" y="66"/>
    </contour>
  </outline>
</glyph>
<glyph name="s" format="2">
	<unicode hex="0073"/>
	<advance width="383"/>
	<outline>
		<contour>
			<point x="201" y="-15" type="curve" smooth="yes"/>
			<point x="293" y="-15"/>
			<point x="343" y="44"/>
			<point x="343" y="108" type="curve" smooth="yes"/>
			<point x="343" y="252"/>
			<point x="136" y="219"/>
			<point x="136" y="307" type="curve" smooth="yes"/>
			<point x="136" y="347"/>
			<point x="169" y="360"/>
			<point x="203" y="360" type="curve" smooth="yes"/>
			<point x="236" y="360"/>
			<point x="261" y="346"/>
			<point x="286" y="324" type="curve" smooth="yes"/>
			<point x="298" y="314"/>
			<point x="307" y="313"/>
			<point x="321" y="324" type="curve" smooth="yes"/>
			<point x="335" y="335"/>
			<point x="336" y="343"/>
			<point x="326" y="357" type="curve" smooth="yes"/>
			<point x="305" y="386"/>
			<point x="261" y="415"/>
			<point x="205" y="415" type="curve" smooth="yes"/>
			<point x="120" y="415"/>
			<point x="67" y="367"/>
			<point x="67" y="302" type="curve" smooth="yes"/>
			<point x="67" y="161"/>
			<point x="274" y="195"/>
			<point x="274" y="101" type="curve" smooth="yes"/>
			<point x="274" y="58"/>
			<point x="240" y="40"/>
			<point x="199" y="40" type="curve" smooth="yes"/>
			<point x="160" y="40"/>
			<point x="122" y="62"/>
			<point x="89" y="92" type="curve" smooth="yes"/>
			<point x="77" y="103"/>
			<point x="69" y="100"/>
			<point x="56" y="90" type="curve" smooth="yes"/>
			<point x="42" y="79"/>
			<point x="41" y="65"/>
			<point x="49" y="55" type="curve" smooth="yes"/>
			<point x="77" y="20"/>
			<point x="134" y="-15"/>
		</contour>
	</outline>
	<anchor name="bottom" x="190" y="0"/>
	<anchor name="top" x="202" y="400"/>
</glyph>
<glyph name="u" format="2">
  <advance width="517"/>
  <unicode hex="0075"/>
  <guideline x="241" y="401" angle="90.232"/>
  <anchor x="239" y="0" name="bottom"/>
  <anchor x="462" y="10" name="ogonek"/>
  <anchor x="239" y="400" name="top"/>
  <anchor x="373" y="411" name="topright"/>
  <outline>
    <contour>
      <point x="185" y="-14" type="curve" smooth="yes"/>
      <point x="254" y="-14"/>
      <point x="352" y="60"/>
      <point x="374" y="295" type="curve"/>
      <point x="349" y="369" type="line"/>
      <point x="332" y="187"/>
      <point x="276" y="49"/>
      <point x="195" y="49" type="curve" smooth="yes"/>
      <point x="157" y="49"/>
      <point x="144" y="73"/>
      <point x="144" y="124" type="curve" smooth="yes"/>
      <point x="144" y="391" type="line" smooth="yes"/>
      <point x="144" y="405"/>
      <point x="132" y="412"/>
      <point x="109" y="412" type="curve" smooth="yes"/>
      <point x="86" y="412"/>
      <point x="75" y="405"/>
      <point x="75" y="391" type="curve" smooth="yes"/>
      <point x="75" y="116" type="line" smooth="yes"/>
      <point x="75" y="16"/>
      <point x="126" y="-14"/>
    </contour>
    <contour>
      <point x="419" y="-14" type="curve" smooth="yes"/>
      <point x="461" y="-14"/>
      <point x="492" y="18"/>
      <point x="511" y="71" type="curve" smooth="yes"/>
      <point x="515" y="81"/>
      <point x="509" y="90"/>
      <point x="494" y="96" type="curve" smooth="yes"/>
      <point x="479" y="102"/>
      <point x="470" y="98"/>
      <point x="466" y="89" type="curve" smooth="yes"/>
      <point x="452" y="60"/>
      <point x="443" y="49"/>
      <point x="431" y="49" type="curve" smooth="yes"/>
      <point x="417" y="49"/>
      <point x="414" y="57"/>
      <point x="414" y="85" type="curve" smooth="yes"/>
      <point x="414" y="391" type="line" smooth="yes"/>
      <point x="414" y="405"/>
      <point x="402" y="412"/>
      <point x="379" y="412" type="curve" smooth="yes"/>
      <point x="356" y="412"/>
      <point x="345" y="405"/>
      <point x="345" y="391" type="curve" smooth="yes"/>
      <point x="345" y="78" type="line" smooth="yes"/>
      <point x="345" y="16"/>
      <point x="369" y="-14"/>
    </contour>
  </outline>
</glyph>
<glyph name="v" format="2">
	<unicode hex="0076"/>
	<advance width="407"/>
	<outline>
		<contour>
			<point x="203" y="-12" type="curve" smooth="yes"/>
			<point x="226" y="-12"/>
			<point x="235" y="-4"/>
			<point x="240" y="9" type="curve" smooth="yes"/>
			<point x="386" y="372" type="line" smooth="yes"/>
			<point x="395" y="395"/>
			<point x="383" y="412"/>
			<point x="353" y="412" type="curve" smooth="yes"/>
			<point x="337" y="412"/>
			<point x="328" y="406"/>
			<point x="322" y="391" type="curve" smooth="yes"/>
			<point x="205" y="87" type="line"/>
			<point x="86" y="391" type="line" smooth="yes"/>
			<point x="80" y="406"/>
			<point x="72" y="412"/>
			<point x="56" y="412" type="curve" smooth="yes"/>
			<point x="26" y="412"/>
			<point x="11" y="393"/>
			<point x="20" y="372" type="curve" smooth="yes"/>
			<point x="166" y="9" type="line" smooth="yes"/>
			<point x="171" y="-4"/>
			<point x="180" y="-12"/>
		</contour>
	</outline>
</glyph>
<glyph name="w" format="2">
  <advance width="805"/>
  <unicode hex="0077"/>
  <anchor x="404" y="0" name="bottom"/>
  <anchor x="404" y="500" name="top"/>
  <outline>
    <contour>
      <point x="229" y="-15" type="curve" smooth="yes"/>
      <point x="257" y="-15"/>
      <point x="270" y="-4"/>
      <point x="275" y="11" type="curve" smooth="yes"/>
      <point x="402" y="378" type="line"/>
      <point x="532" y="11" type="line" smooth="yes"/>
      <point x="537" y="-4"/>
      <point x="546" y="-15"/>
      <point x="575" y="-15" type="curve" smooth="yes"/>
      <point x="604" y="-15"/>
      <point x="615" y="-5"/>
      <point x="621" y="11" type="curve" smooth="yes"/>
      <point x="780" y="465" type="line" smooth="yes"/>
      <point x="790" y="494"/>
      <point x="775" y="515"/>
      <point x="737" y="515" type="curve" smooth="yes"/>
      <point x="717" y="515"/>
      <point x="705" y="508"/>
      <point x="699" y="489" type="curve" smooth="yes"/>
      <point x="576" y="109" type="line"/>
      <point x="441" y="489" type="line" smooth="yes"/>
      <point x="435" y="508"/>
      <point x="422" y="515"/>
      <point x="402" y="515" type="curve" smooth="yes"/>
      <point x="381" y="515"/>
      <point x="369" y="508"/>
      <point x="362" y="489" type="curve" smooth="yes"/>
      <point x="230" y="109" type="line"/>
      <point x="106" y="489" type="line" smooth="yes"/>
      <point x="100" y="508"/>
      <point x="89" y="515"/>
      <point x="69" y="515" type="curve" smooth="yes"/>
      <point x="31" y="515"/>
      <point x="16" y="491"/>
      <point x="25" y="465" type="curve" smooth="yes"/>
      <point x="182" y="11" type="line" smooth="yes"/>
      <point x="189" y="-5"/>
      <point x="200" y="-15"/>
    </contour>
  </outline>
</glyph>
<glyph name="x" format="2">
  <advance width="534"/>
  <unicode hex="0078"/>
  <outline>
    <contour>
      <point x="486" y="40" type="curve" smooth="yes"/>
      <point x="320" y="250" type="line"/>
      <point x="488" y="461" type="line" smooth="yes"/>
      <point x="511" y="491"/>
      <point x="486" y="515"/>
      <point x="449" y="515" type="curve" smooth="yes"/>
      <point x="434" y="515"/>
      <point x="425" y="510"/>
      <point x="410" y="491" type="curve" smooth="yes"/>
      <point x="270" y="314" type="line"/>
      <point x="133" y="488" type="line" smooth="yes"/>
      <point x="113" y="513"/>
      <point x="101" y="515"/>
      <point x="80" y="515" type="curve" smooth="yes"/>
      <point x="49" y="515"/>
      <point x="21" y="494"/>
      <point x="48" y="460" type="curve" smooth="yes"/>
      <point x="214" y="250" type="line"/>
      <point x="46" y="39" type="line" smooth="yes"/>
      <point x="23" y="9"/>
      <point x="48" y="-15"/>
      <point x="85" y="-15" type="curve" smooth="yes"/>
      <point x="100" y="-15"/>
      <point x="109" y="-10"/>
      <point x="124" y="9" type="curve" smooth="yes"/>
      <point x="264" y="186" type="line"/>
      <point x="401" y="13" type="line" smooth="yes"/>
      <point x="421" y="-12"/>
      <point x="433" y="-15"/>
      <point x="453" y="-15" type="curve" smooth="yes"/>
      <point x="484" y="-15"/>
      <point x="513" y="6"/>
    </contour>
  </outline>
</glyph>
<glyph name="y" format="2">
	<unicode hex="0079"/>
	<advance width="489"/>
	<outline>
		<contour>
			<point x="185" y="-14" type="curve" smooth="yes"/>
			<point x="237" y="-14"/>
			<point x="304" y="29"/>
			<point x="345" y="150" type="curve"/>
			<point x="345" y="-618" type="line" smooth="yes"/>
			<point x="345" y="-717"/>
			<point x="326" y="-753"/>
			<point x="259" y="-753" type="curve" smooth="yes"/>
			<point x="217" y="-753"/>
			<point x="185" y="-739"/>
			<point x="142" y="-708" type="curve" smooth="yes"/>
			<point x="124" y="-695"/>
			<point x="117" y="-697"/>
			<point x="101" y="-711" type="curve" smooth="yes"/>
			<point x="82" y="-728"/>
			<point x="86" y="-741"/>
			<point x="99" y="-754" type="curve" smooth="yes"/>
			<point x="131" y="-786"/>
			<point x="197" y="-815"/>
			<point x="259" y="-815" type="curve" smooth="yes"/>
			<point x="365" y="-815"/>
			<point x="414" y="-752"/>
			<point x="414" y="-620" type="curve" smooth="yes"/>
			<point x="414" y="391" type="line" smooth="yes"/>
			<point x="414" y="405"/>
			<point x="402" y="412"/>
			<point x="379" y="412" type="curve" smooth="yes"/>
			<point x="356" y="412"/>
			<point x="345" y="405"/>
			<point x="345" y="391" type="curve" smooth="yes"/>
			<point x="345" y="330" type="line"/>
			<point x="322" y="167"/>
			<point x="270" y="49"/>
			<point x="195" y="49" type="curve" smooth="yes"/>
			<point x="157" y="49"/>
			<point x="144" y="73"/>
			<point x="144" y="124" type="curve" smooth="yes"/>
			<point x="144" y="391" type="line" smooth="yes"/>
			<point x="144" y="405"/>
			<point x="132" y="412"/>
			<point x="109" y="412" type="curve" smooth="yes"/>
			<point x="86" y="412"/>
			<point x="75" y="405"/>
			<point x="75" y="391" type="curve" smooth="yes"/>
			<point x="75" y="116" type="line" smooth="yes"/>
			<point x="75" y="16"/>
			<point x="126" y="-14"/>
		</contour>
	</outline>
	<anchor name="bottom" x="246" y="0"/>
	<anchor name="top" x="246" y="400"/>
</glyph>
<glyph name="bar" format="2">
  <advance width="575"/>
  <unicode hex="007C"/>
  <outline>
    <contour>
      <point x="288" y="-77" type="curve" smooth="yes"/>
      <point x="316" y="-77"/>
      <point x="331" y="-69"/>
      <point x="331" y="-50" type="curve" smooth="yes"/>
      <point x="331" y="1550" type="line" smooth="yes"/>
      <point x="331" y="1569"/>
      <point x="316" y="1578"/>
      <point x="288" y="1578" type="curve" smooth="yes"/>
      <point x="259" y="1578"/>
      <point x="244" y="1569"/>
      <point x="244" y="1550" type="curve" smooth="yes"/>
      <point x="244" y="-50" type="line" smooth="yes"/>
      <point x="244" y="-69"/>
      <point x="259" y="-77"/>
    </contour>
  </outline>
</glyph>
<glyph name="braceright" format="2">
	<unicode hex="007D"/>
	<advance width="443"/>
	<outline>
		<contour>
			<point x="132" y="-60" type="curve" smooth="yes"/>
			<point x="253" y="-60"/>
			<point x="326" y="5"/>
			<point x="326" y="113" type="curve" smooth="yes"/>
			<point x="326" y="225"/>
			<point x="222" y="319"/>
			<point x="222" y="424" type="curve" smooth="yes"/>
			<point x="222" y="497"/>
			<point x="260" y="549"/>
			<point x="336" y="568" type="curve" smooth="yes"/>
			<point x="352" y="572"/>
			<point x="358" y="576"/>
			<point x="358" y="600" type="curve" smooth="yes"/>
			<point x="358" y="624"/>
			<point x="352" y="627"/>
			<point x="336" y="632" type="curve" smooth="yes"/>
			<point x="260" y="656"/>
			<point x="222" y="708"/>
			<point x="222" y="776" type="curve" smooth="yes"/>
			<point x="222" y="881"/>
			<point x="326" y="983"/>
			<point x="326" y="1087" type="curve" smooth="yes"/>
			<point x="326" y="1195"/>
			<point x="253" y="1260"/>
			<point x="132" y="1260" type="curve" smooth="yes"/>
			<point x="116" y="1260"/>
			<point x="110" y="1252"/>
			<point x="110" y="1228" type="curve" smooth="yes"/>
			<point x="110" y="1204"/>
			<point x="116" y="1196"/>
			<point x="132" y="1196" type="curve" smooth="yes"/>
			<point x="209" y="1196"/>
			<point x="256" y="1154"/>
			<point x="256" y="1086" type="curve" smooth="yes"/>
			<point x="256" y="1011"/>
			<point x="153" y="889"/>
			<point x="153" y="776" type="curve" smooth="yes"/>
			<point x="153" y="694"/>
			<point x="202" y="627"/>
			<point x="283" y="600" type="curve"/>
			<point x="202" y="573"/>
			<point x="153" y="506"/>
			<point x="153" y="424" type="curve" smooth="yes"/>
			<point x="153" y="311"/>
			<point x="256" y="197"/>
			<point x="256" y="114" type="curve" smooth="yes"/>
			<point x="256" y="46"/>
			<point x="209" y="4"/>
			<point x="132" y="4" type="curve" smooth="yes"/>
			<point x="116" y="4"/>
			<point x="110" y="-4"/>
			<point x="110" y="-28" type="curve" smooth="yes"/>
			<point x="110" y="-52"/>
			<point x="116" y="-60"/>
		</contour>
	</outline>
</glyph>
<glyph name="asciitilde" format="2">
	<unicode hex="007E"/>
	<advance width="610"/>
	<outline>
		<contour>
			<point x="413" y="253" type="curve" smooth="yes"/>
			<point x="486" y="253"/>
			<point x="550" y="304"/>
			<point x="550" y="405" type="curve" smooth="yes"/>
			<point x="550" y="428"/>
			<point x="540" y="436"/>
			<point x="516" y="436" type="curve" smooth="yes"/>
			<point x="492" y="436"/>
			<point x="482" y="427"/>
			<point x="482" y="406" type="curve" smooth="yes"/>
			<point x="482" y="344"/>
			<point x="448" y="320"/>
			<point x="413" y="320" type="curve" smooth="yes"/>
			<point x="388" y="320"/>
			<point x="368" y="334"/>
			<point x="336" y="370" type="curve" smooth="yes"/>
			<point x="299" y="411"/>
			<point x="263" y="445"/>
			<point x="198" y="445" type="curve" smooth="yes"/>
			<point x="125" y="445"/>
			<point x="60" y="394"/>
			<point x="60" y="293" type="curve" smooth="yes"/>
			<point x="60" y="270"/>
			<point x="70" y="262"/>
			<point x="94" y="262" type="curve" smooth="yes"/>
			<point x="118" y="262"/>
			<point x="128" y="271"/>
			<point x="128" y="292" type="curve" smooth="yes"/>
			<point x="128" y="354"/>
			<point x="163" y="378"/>
			<point x="198" y="378" type="curve" smooth="yes"/>
			<point x="224" y="378"/>
			<point x="244" y="365"/>
			<point x="275" y="330" type="curve" smooth="yes"/>
			<point x="312" y="288"/>
			<point x="347" y="253"/>
		</contour>
	</outline>
</glyph>
<glyph name="cent" format="2">
  <advance width="657"/>
  <unicode hex="00A2"/>
  <outline>
    <contour>
      <point x="331" y="-15" type="curve" smooth="yes"/>
      <point x="417" y="-15"/>
      <point x="501" y="44"/>
      <point x="584" y="161" type="curve" smooth="yes"/>
      <point x="592" y="176"/>
      <point x="590" y="188"/>
      <point x="574" y="198" type="curve" smooth="yes"/>
      <point x="559" y="209"/>
      <point x="547" y="208"/>
      <point x="536" y="194" type="curve" smooth="yes"/>
      <point x="461" y="98"/>
      <point x="402" y="49"/>
      <point x="331" y="49" type="curve" smooth="yes"/>
      <point x="213" y="49"/>
      <point x="141" y="158"/>
      <point x="141" y="338" type="curve" smooth="yes"/>
      <point x="141" y="527"/>
      <point x="221" y="642"/>
      <point x="352" y="642" type="curve" smooth="yes"/>
      <point x="421" y="642"/>
      <point x="463" y="617"/>
      <point x="516" y="563" type="curve" smooth="yes"/>
      <point x="527" y="552"/>
      <point x="537" y="553"/>
      <point x="551" y="565" type="curve" smooth="yes"/>
      <point x="566" y="579"/>
      <point x="568" y="589"/>
      <point x="559" y="600" type="curve" smooth="yes"/>
      <point x="506" y="666"/>
      <point x="426" y="706"/>
      <point x="352" y="706" type="curve" smooth="yes"/>
      <point x="177" y="706"/>
      <point x="70" y="567"/>
      <point x="70" y="338" type="curve" smooth="yes"/>
      <point x="70" y="119"/>
      <point x="168" y="-15"/>
    </contour>
    <contour>
      <point x="342" y="-120" type="curve" smooth="yes"/>
      <point x="363" y="-120"/>
      <point x="374" y="-113"/>
      <point x="374" y="-98" type="curve" smooth="yes"/>
      <point x="374" y="792" type="line" smooth="yes"/>
      <point x="374" y="807"/>
      <point x="363" y="814"/>
      <point x="342" y="814" type="curve" smooth="yes"/>
      <point x="321" y="814"/>
      <point x="310" y="807"/>
      <point x="310" y="792" type="curve" smooth="yes"/>
      <point x="310" y="-98" type="line" smooth="yes"/>
      <point x="310" y="-113"/>
      <point x="321" y="-120"/>
    </contour>
  </outline>
</glyph>
<glyph name="sterling" format="2">
  <advance width="1046"/>
  <unicode hex="00A3"/>
  <outline>
    <contour>
      <point x="93" y="0" type="curve" smooth="yes"/>
      <point x="976" y="0" type="line" smooth="yes"/>
      <point x="999" y="0"/>
      <point x="1004" y="9"/>
      <point x="1004" y="40" type="curve" smooth="yes"/>
      <point x="1004" y="71"/>
      <point x="995" y="80"/>
      <point x="976" y="80" type="curve" smooth="yes"/>
      <point x="398" y="80" type="line"/>
      <point x="398" y="603" type="line"/>
      <point x="739" y="603" type="line" smooth="yes"/>
      <point x="761" y="603"/>
      <point x="766" y="611"/>
      <point x="766" y="643" type="curve" smooth="yes"/>
      <point x="766" y="674"/>
      <point x="758" y="683"/>
      <point x="739" y="683" type="curve" smooth="yes"/>
      <point x="398" y="683" type="line"/>
      <point x="398" y="1164" type="line" smooth="yes"/>
      <point x="398" y="1333"/>
      <point x="483" y="1434"/>
      <point x="623" y="1434" type="curve" smooth="yes"/>
      <point x="704" y="1434"/>
      <point x="801" y="1391"/>
      <point x="911" y="1309" type="curve" smooth="yes"/>
      <point x="931" y="1294"/>
      <point x="946" y="1291"/>
      <point x="966" y="1315" type="curve" smooth="yes"/>
      <point x="988" y="1339"/>
      <point x="976" y="1359"/>
      <point x="964" y="1369" type="curve" smooth="yes"/>
      <point x="848" y="1466"/>
      <point x="731" y="1515"/>
      <point x="623" y="1515" type="curve" smooth="yes"/>
      <point x="428" y="1515"/>
      <point x="310" y="1383"/>
      <point x="310" y="1164" type="curve" smooth="yes"/>
      <point x="310" y="683" type="line"/>
      <point x="134" y="683" type="line" smooth="yes"/>
      <point x="115" y="683"/>
      <point x="106" y="674"/>
      <point x="106" y="643" type="curve" smooth="yes"/>
      <point x="106" y="611"/>
      <point x="111" y="603"/>
      <point x="134" y="603" type="curve" smooth="yes"/>
      <point x="310" y="603" type="line"/>
      <point x="310" y="80" type="line"/>
      <point x="93" y="80" type="line" smooth="yes"/>
      <point x="74" y="80"/>
      <point x="65" y="71"/>
      <point x="65" y="40" type="curve" smooth="yes"/>
      <point x="65" y="9"/>
      <point x="70" y="0"/>
    </contour>
  </outline>
</glyph>
<glyph name="yen" format="2">
  <advance width="840"/>
  <unicode hex="00A5"/>
  <outline>
    <contour>
      <point x="415" y="-11" type="curve" smooth="yes"/>
      <point x="438" y="-11"/>
      <point x="450" y="-4"/>
      <point x="450" y="11" type="curve" smooth="yes"/>
      <point x="450" y="516" type="line"/>
      <point x="813" y="1168" type="line" smooth="yes"/>
      <point x="820" y="1181"/>
      <point x="815" y="1192"/>
      <point x="793" y="1204" type="curve" smooth="yes"/>
      <point x="773" y="1215"/>
      <point x="762" y="1217"/>
      <point x="752" y="1199" type="curve" smooth="yes"/>
      <point x="417" y="592" type="line"/>
      <point x="90" y="1199" type="line" smooth="yes"/>
      <point x="80" y="1217"/>
      <point x="67" y="1215"/>
      <point x="47" y="1204" type="curve" smooth="yes"/>
      <point x="25" y="1192"/>
      <point x="20" y="1181"/>
      <point x="27" y="1168" type="curve" smooth="yes"/>
      <point x="380" y="516" type="line"/>
      <point x="380" y="11" type="line" smooth="yes"/>
      <point x="380" y="-4"/>
      <point x="392" y="-11"/>
    </contour>
    <contour>
      <point x="131" y="501" type="curve" smooth="yes"/>
      <point x="703" y="501" type="line" smooth="yes"/>
      <point x="719" y="501"/>
      <point x="725" y="508"/>
      <point x="725" y="532" type="curve" smooth="yes"/>
      <point x="725" y="556"/>
      <point x="719" y="563"/>
      <point x="703" y="563" type="curve" smooth="yes"/>
      <point x="131" y="563" type="line" smooth="yes"/>
      <point x="115" y="563"/>
      <point x="109" y="556"/>
      <point x="109" y="532" type="curve" smooth="yes"/>
      <point x="109" y="508"/>
      <point x="115" y="501"/>
    </contour>
    <contour>
      <point x="131" y="352" type="curve" smooth="yes"/>
      <point x="703" y="352" type="line" smooth="yes"/>
      <point x="719" y="352"/>
      <point x="725" y="359"/>
      <point x="725" y="383" type="curve" smooth="yes"/>
      <point x="725" y="407"/>
      <point x="719" y="414"/>
      <point x="703" y="414" type="curve" smooth="yes"/>
      <point x="131" y="414" type="line" smooth="yes"/>
      <point x="115" y="414"/>
      <point x="109" y="407"/>
      <point x="109" y="383" type="curve" smooth="yes"/>
      <point x="109" y="359"/>
      <point x="115" y="352"/>
    </contour>
  </outline>
</glyph>
<glyph name="section" format="2">
  <advance width="826"/>
  <unicode hex="00A7"/>
  <outline>
    <contour>
      <point x="757" y="321" type="curve" smooth="yes"/>
      <point x="757" y="693"/>
      <point x="213" y="627"/>
      <point x="213" y="925" type="curve" smooth="yes"/>
      <point x="213" y="1063"/>
      <point x="283" y="1144"/>
      <point x="420" y="1144" type="curve" smooth="yes"/>
      <point x="505" y="1144"/>
      <point x="591" y="1101"/>
      <point x="675" y="1015" type="curve" smooth="yes"/>
      <point x="683" y="1005"/>
      <point x="695" y="1008"/>
      <point x="711" y="1023" type="curve" smooth="yes"/>
      <point x="725" y="1036"/>
      <point x="727" y="1048"/>
      <point x="718" y="1057" type="curve" smooth="yes"/>
      <point x="622" y="1160"/>
      <point x="521" y="1212"/>
      <point x="419" y="1212" type="curve" smooth="yes"/>
      <point x="257" y="1212"/>
      <point x="139" y="1103"/>
      <point x="139" y="925" type="curve" smooth="yes"/>
      <point x="139" y="568"/>
      <point x="683" y="630"/>
      <point x="683" y="321" type="curve" smooth="yes"/>
      <point x="683" y="199"/>
      <point x="614" y="104"/>
      <point x="520" y="46" type="curve"/>
      <point x="574" y="16" type="line"/>
      <point x="679" y="83"/>
      <point x="757" y="184"/>
    </contour>
    <contour>
      <point x="87" y="411" type="curve" smooth="yes"/>
      <point x="87" y="40"/>
      <point x="642" y="110"/>
      <point x="642" y="-214" type="curve" smooth="yes"/>
      <point x="642" y="-377"/>
      <point x="529" y="-468"/>
      <point x="403" y="-468" type="curve" smooth="yes"/>
      <point x="295" y="-468"/>
      <point x="201" y="-416"/>
      <point x="133" y="-339" type="curve" smooth="yes"/>
      <point x="118" y="-322"/>
      <point x="107" y="-322"/>
      <point x="90" y="-339" type="curve" smooth="yes"/>
      <point x="76" y="-352"/>
      <point x="73" y="-363"/>
      <point x="82" y="-374" type="curve" smooth="yes"/>
      <point x="156" y="-471"/>
      <point x="266" y="-536"/>
      <point x="402" y="-536" type="curve" smooth="yes"/>
      <point x="564" y="-536"/>
      <point x="716" y="-419"/>
      <point x="716" y="-214" type="curve" smooth="yes"/>
      <point x="716" y="170"/>
      <point x="161" y="102"/>
      <point x="161" y="411" type="curve" smooth="yes"/>
      <point x="161" y="527"/>
      <point x="224" y="624"/>
      <point x="324" y="685" type="curve"/>
      <point x="271" y="716" type="line"/>
      <point x="162" y="647"/>
      <point x="87" y="545"/>
    </contour>
  </outline>
</glyph>
<glyph name="copyright" format="2">
  <advance width="1125"/>
  <unicode hex="00A9"/>
  <outline>
    <contour>
      <point x="562" y="95" type="curve" smooth="yes"/>
      <point x="822" y="95"/>
      <point x="1011" y="302"/>
      <point x="1011" y="587" type="curve" smooth="yes"/>
      <point x="1011" y="872"/>
      <point x="822" y="1078"/>
      <point x="562" y="1078" type="curve" smooth="yes"/>
      <point x="302" y="1078"/>
      <point x="114" y="872"/>
      <point x="114" y="587" type="curve" smooth="yes"/>
      <point x="114" y="302"/>
      <point x="302" y="95"/>
    </contour>
    <contour>
      <point x="562" y="135" type="curve" smooth="yes"/>
      <point x="328" y="135"/>
      <point x="158" y="325"/>
      <point x="158" y="587" type="curve" smooth="yes"/>
      <point x="158" y="849"/>
      <point x="328" y="1038"/>
      <point x="562" y="1038" type="curve" smooth="yes"/>
      <point x="797" y="1038"/>
      <point x="967" y="849"/>
      <point x="967" y="587" type="curve" smooth="yes"/>
      <point x="967" y="325"/>
      <point x="797" y="135"/>
    </contour>
    <contour>
      <point x="555" y="311" type="curve" smooth="yes"/>
      <point x="618" y="311"/>
      <point x="676" y="353"/>
      <point x="728" y="436" type="curve" smooth="yes"/>
      <point x="734" y="446"/>
      <point x="732" y="455"/>
      <point x="720" y="463" type="curve" smooth="yes"/>
      <point x="707" y="472"/>
      <point x="696" y="471"/>
      <point x="688" y="459" type="curve" smooth="yes"/>
      <point x="648" y="399"/>
      <point x="604" y="368"/>
      <point x="558" y="368" type="curve" smooth="yes"/>
      <point x="477" y="368"/>
      <point x="427" y="444"/>
      <point x="427" y="570" type="curve" smooth="yes"/>
      <point x="427" y="720"/>
      <point x="484" y="811"/>
      <point x="577" y="811" type="curve" smooth="yes"/>
      <point x="613" y="811"/>
      <point x="649" y="800"/>
      <point x="682" y="774" type="curve" smooth="yes"/>
      <point x="693" y="765"/>
      <point x="702" y="761"/>
      <point x="713" y="771" type="curve" smooth="yes"/>
      <point x="726" y="782"/>
      <point x="729" y="792"/>
      <point x="720" y="802" type="curve" smooth="yes"/>
      <point x="679" y="847"/>
      <point x="628" y="867"/>
      <point x="580" y="867" type="curve" smooth="yes"/>
      <point x="446" y="867"/>
      <point x="365" y="755"/>
      <point x="365" y="570" type="curve" smooth="yes"/>
      <point x="365" y="409"/>
      <point x="437" y="311"/>
    </contour>
  </outline>
</glyph>
<glyph name="ordfeminine" format="2">
  <advance width="480"/>
  <unicode hex="00AA"/>
  <outline>
    <contour>
      <point x="174" y="1111" type="curve" smooth="yes"/>
      <point x="228" y="1111"/>
      <point x="280" y="1158"/>
      <point x="309" y="1234" type="curve"/>
      <point x="309" y="1224"/>
      <point x="309" y="1213"/>
      <point x="309" y="1203" type="curve" smooth="yes"/>
      <point x="309" y="1148"/>
      <point x="338" y="1111"/>
      <point x="391" y="1111" type="curve" smooth="yes"/>
      <point x="439" y="1111"/>
      <point x="463" y="1153"/>
      <point x="475" y="1189" type="curve" smooth="yes"/>
      <point x="480" y="1204"/>
      <point x="475" y="1214"/>
      <point x="456" y="1221" type="curve" smooth="yes"/>
      <point x="440" y="1228"/>
      <point x="430" y="1223"/>
      <point x="426" y="1214" type="curve" smooth="yes"/>
      <point x="416" y="1194"/>
      <point x="409" y="1184"/>
      <point x="401" y="1184" type="curve" smooth="yes"/>
      <point x="391" y="1184"/>
      <point x="388" y="1188"/>
      <point x="388" y="1211" type="curve" smooth="yes"/>
      <point x="388" y="1499" type="line" smooth="yes"/>
      <point x="388" y="1514"/>
      <point x="373" y="1521"/>
      <point x="348" y="1521" type="curve" smooth="yes"/>
      <point x="324" y="1521"/>
      <point x="309" y="1514"/>
      <point x="309" y="1501" type="curve"/>
      <point x="309" y="1504" type="line"/>
      <point x="280" y="1519"/>
      <point x="250" y="1525"/>
      <point x="218" y="1525" type="curve" smooth="yes"/>
      <point x="109" y="1525"/>
      <point x="45" y="1431"/>
      <point x="45" y="1296" type="curve" smooth="yes"/>
      <point x="45" y="1180"/>
      <point x="95" y="1111"/>
    </contour>
    <contour>
      <point x="125" y="1298" type="curve" smooth="yes"/>
      <point x="125" y="1398"/>
      <point x="163" y="1454"/>
      <point x="233" y="1454" type="curve" smooth="yes"/>
      <point x="251" y="1454"/>
      <point x="280" y="1449"/>
      <point x="309" y="1435" type="curve"/>
      <point x="309" y="1400" type="line"/>
      <point x="288" y="1280"/>
      <point x="239" y="1185"/>
      <point x="188" y="1185" type="curve" smooth="yes"/>
      <point x="140" y="1185"/>
      <point x="125" y="1231"/>
    </contour>
  </outline>
</glyph>
<glyph name="registered" format="2">
  <advance width="546"/>
  <unicode hex="00AE"/>
  <outline>
    <contour>
      <point x="273" y="842" type="curve" smooth="yes"/>
      <point x="398" y="842"/>
      <point x="498" y="942"/>
      <point x="498" y="1067" type="curve" smooth="yes"/>
      <point x="498" y="1192"/>
      <point x="398" y="1292"/>
      <point x="273" y="1292" type="curve" smooth="yes"/>
      <point x="148" y="1292"/>
      <point x="48" y="1192"/>
      <point x="48" y="1067" type="curve" smooth="yes"/>
      <point x="48" y="942"/>
      <point x="148" y="842"/>
    </contour>
    <contour>
      <point x="273" y="872" type="curve" smooth="yes"/>
      <point x="166" y="872"/>
      <point x="78" y="960"/>
      <point x="78" y="1067" type="curve" smooth="yes"/>
      <point x="78" y="1174"/>
      <point x="166" y="1262"/>
      <point x="273" y="1262" type="curve" smooth="yes"/>
      <point x="380" y="1262"/>
      <point x="468" y="1174"/>
      <point x="468" y="1067" type="curve" smooth="yes"/>
      <point x="468" y="960"/>
      <point x="380" y="872"/>
    </contour>
    <contour>
      <point x="213" y="929" type="curve" smooth="yes"/>
      <point x="233" y="929"/>
      <point x="240" y="935"/>
      <point x="240" y="946" type="curve" smooth="yes"/>
      <point x="240" y="1047" type="line"/>
      <point x="269" y="1003"/>
      <point x="302" y="968"/>
      <point x="339" y="938" type="curve" smooth="yes"/>
      <point x="353" y="927"/>
      <point x="364" y="929"/>
      <point x="377" y="943" type="curve" smooth="yes"/>
      <point x="390" y="958"/>
      <point x="388" y="968"/>
      <point x="374" y="979" type="curve" smooth="yes"/>
      <point x="345" y="1002"/>
      <point x="319" y="1026"/>
      <point x="294" y="1059" type="curve"/>
      <point x="340" y="1071"/>
      <point x="372" y="1097"/>
      <point x="372" y="1139" type="curve" smooth="yes"/>
      <point x="372" y="1194"/>
      <point x="333" y="1213"/>
      <point x="266" y="1213" type="curve" smooth="yes"/>
      <point x="218" y="1213" type="line" smooth="yes"/>
      <point x="198" y="1213"/>
      <point x="187" y="1207"/>
      <point x="187" y="1196" type="curve" smooth="yes"/>
      <point x="187" y="946" type="line" smooth="yes"/>
      <point x="187" y="935"/>
      <point x="194" y="929"/>
    </contour>
    <contour>
      <point x="240" y="1095" type="curve"/>
      <point x="240" y="1160" type="line"/>
      <point x="280" y="1160" type="line" smooth="yes"/>
      <point x="300" y="1160"/>
      <point x="318" y="1152"/>
      <point x="318" y="1134" type="curve" smooth="yes"/>
      <point x="318" y="1107"/>
      <point x="286" y="1095"/>
    </contour>
  </outline>
</glyph>
<glyph name="paragraph" format="2">
  <advance width="1230"/>
  <unicode hex="00B6"/>
  <outline>
    <contour>
      <point x="624" y="-390" type="curve" smooth="yes"/>
      <point x="653" y="-390"/>
      <point x="668" y="-381"/>
      <point x="668" y="-362" type="curve" smooth="yes"/>
      <point x="668" y="1408" type="line"/>
      <point x="874" y="1408" type="line"/>
      <point x="874" y="-362" type="line" smooth="yes"/>
      <point x="874" y="-381"/>
      <point x="889" y="-390"/>
      <point x="918" y="-390" type="curve" smooth="yes"/>
      <point x="947" y="-390"/>
      <point x="962" y="-381"/>
      <point x="962" y="-362" type="curve" smooth="yes"/>
      <point x="962" y="1408" type="line"/>
      <point x="1128" y="1408" type="line" smooth="yes"/>
      <point x="1148" y="1408"/>
      <point x="1156" y="1418"/>
      <point x="1156" y="1448" type="curve" smooth="yes"/>
      <point x="1156" y="1478"/>
      <point x="1148" y="1488"/>
      <point x="1128" y="1488" type="curve" smooth="yes"/>
      <point x="536" y="1488" type="line" smooth="yes"/>
      <point x="245" y="1488"/>
      <point x="68" y="1315"/>
      <point x="68" y="1032" type="curve" smooth="yes"/>
      <point x="68" y="747"/>
      <point x="245" y="574"/>
      <point x="536" y="574" type="curve" smooth="yes"/>
      <point x="581" y="574" type="line"/>
      <point x="581" y="-362" type="line" smooth="yes"/>
      <point x="581" y="-381"/>
      <point x="596" y="-390"/>
    </contour>
  </outline>
</glyph>
<glyph name="ordmasculine" format="2">
  <advance width="454"/>
  <unicode hex="00BA"/>
  <outline>
    <contour>
      <point x="228" y="1110" type="curve" smooth="yes"/>
      <point x="330" y="1110"/>
      <point x="409" y="1199"/>
      <point x="409" y="1323" type="curve" smooth="yes"/>
      <point x="409" y="1436"/>
      <point x="331" y="1525"/>
      <point x="228" y="1525" type="curve" smooth="yes"/>
      <point x="121" y="1525"/>
      <point x="45" y="1436"/>
      <point x="45" y="1318" type="curve" smooth="yes"/>
      <point x="45" y="1181"/>
      <point x="125" y="1110"/>
    </contour>
    <contour>
      <point x="228" y="1184" type="curve" smooth="yes"/>
      <point x="170" y="1184"/>
      <point x="126" y="1240"/>
      <point x="126" y="1318" type="curve" smooth="yes"/>
      <point x="126" y="1395"/>
      <point x="170" y="1451"/>
      <point x="228" y="1451" type="curve" smooth="yes"/>
      <point x="284" y="1451"/>
      <point x="328" y="1395"/>
      <point x="328" y="1323" type="curve" smooth="yes"/>
      <point x="328" y="1240"/>
      <point x="284" y="1184"/>
    </contour>
  </outline>
</glyph>
<glyph name="AE" format="2">
  <advance width="1195"/>
  <unicode hex="00C6"/>
  <anchor x="860" y="1139" name="top"/>
  <outline>
    <contour>
      <point x="1118" y="0" type="line" smooth="yes"/>
      <point x="1134" y="0"/>
      <point x="1140" y="8"/>
      <point x="1140" y="32" type="curve" smooth="yes"/>
      <point x="1140" y="56"/>
      <point x="1134" y="64"/>
      <point x="1118" y="64" type="curve" smooth="yes"/>
      <point x="680" y="64" type="line"/>
      <point x="680" y="1126" type="line"/>
      <point x="1118" y="1126" type="line" smooth="yes"/>
      <point x="1134" y="1126"/>
      <point x="1140" y="1134"/>
      <point x="1140" y="1158" type="curve" smooth="yes"/>
      <point x="1140" y="1182"/>
      <point x="1134" y="1190"/>
      <point x="1118" y="1190" type="curve" smooth="yes"/>
      <point x="604" y="1190" type="line" smooth="yes"/>
      <point x="574" y="1190"/>
      <point x="566" y="1185"/>
      <point x="556" y="1162" type="curve" smooth="yes"/>
      <point x="31" y="29" type="line" smooth="yes"/>
      <point x="24" y="14"/>
      <point x="31" y="0"/>
      <point x="48" y="-8" type="curve" smooth="yes"/>
      <point x="68" y="-17"/>
      <point x="84" y="-13"/>
      <point x="91" y="1" type="curve" smooth="yes"/>
      <point x="610" y="1128" type="line"/>
      <point x="610" y="32" type="line" smooth="yes"/>
      <point x="610" y="10"/>
      <point x="622" y="0"/>
      <point x="645" y="0" type="curve" smooth="yes"/>
    </contour>
    <contour>
      <point x="1040" y="563" type="line" smooth="yes"/>
      <point x="1056" y="563"/>
      <point x="1062" y="571"/>
      <point x="1062" y="595" type="curve" smooth="yes"/>
      <point x="1062" y="619"/>
      <point x="1056" y="627"/>
      <point x="1040" y="627" type="curve" smooth="yes"/>
      <point x="345" y="627" type="line"/>
      <point x="316" y="563" type="line"/>
    </contour>
  </outline>
</glyph>
<glyph name="Thorn" format="2">
	<unicode hex="00DE"/>
	<advance width="890"/>
	<outline>
		<contour>
			<point x="208" y="-11" type="curve" smooth="yes"/>
			<point x="231" y="-11"/>
			<point x="243" y="-4"/>
			<point x="243" y="11" type="curve" smooth="yes"/>
			<point x="243" y="293" type="line"/>
			<point x="295" y="295"/>
			<point x="355" y="299"/>
			<point x="420" y="308" type="curve" smooth="yes"/>
			<point x="632" y="336"/>
			<point x="812" y="451"/>
			<point x="812" y="693" type="curve" smooth="yes"/>
			<point x="812" y="907"/>
			<point x="685" y="990"/>
			<point x="446" y="990" type="curve" smooth="yes"/>
			<point x="243" y="990" type="line"/>
			<point x="243" y="1190" type="line" smooth="yes"/>
			<point x="243" y="1205"/>
			<point x="231" y="1212"/>
			<point x="208" y="1212" type="curve" smooth="yes"/>
			<point x="185" y="1212"/>
			<point x="173" y="1205"/>
			<point x="173" y="1190" type="curve" smooth="yes"/>
			<point x="173" y="11" type="line" smooth="yes"/>
			<point x="173" y="-4"/>
			<point x="185" y="-11"/>
		</contour>
		<contour>
			<point x="243" y="356" type="curve"/>
			<point x="243" y="926" type="line"/>
			<point x="446" y="926" type="line" smooth="yes"/>
			<point x="637" y="926"/>
			<point x="737" y="861"/>
			<point x="737" y="691" type="curve" smooth="yes"/>
			<point x="737" y="493"/>
			<point x="598" y="396"/>
			<point x="418" y="371" type="curve" smooth="yes"/>
			<point x="352" y="362"/>
			<point x="289" y="358"/>
		</contour>
	</outline>
</glyph>
<glyph name="germandbls" format="2">
  <advance width="560"/>
  <unicode hex="00DF"/>
  <outline>
    <contour>
      <point x="515" y="192" type="curve" smooth="yes"/>
      <point x="515" y="302"/>
      <point x="432" y="393"/>
      <point x="296" y="396" type="curve"/>
      <point x="296" y="384" type="line"/>
      <point x="465" y="384"/>
      <point x="552" y="581"/>
      <point x="552" y="841" type="curve" smooth="yes"/>
      <point x="552" y="1072"/>
      <point x="465" y="1212"/>
      <point x="322" y="1212" type="curve" smooth="yes"/>
      <point x="187" y="1212"/>
      <point x="105" y="1089"/>
      <point x="105" y="886" type="curve" smooth="yes"/>
      <point x="105" y="-791" type="line" smooth="yes"/>
      <point x="105" y="-805"/>
      <point x="116" y="-812"/>
      <point x="139" y="-812" type="curve" smooth="yes"/>
      <point x="162" y="-812"/>
      <point x="174" y="-805"/>
      <point x="174" y="-791" type="curve" smooth="yes"/>
      <point x="174" y="886" type="line" smooth="yes"/>
      <point x="174" y="1059"/>
      <point x="230" y="1148"/>
      <point x="322" y="1148" type="curve" smooth="yes"/>
      <point x="423" y="1148"/>
      <point x="485" y="1032"/>
      <point x="485" y="842" type="curve" smooth="yes"/>
      <point x="485" y="602"/>
      <point x="407" y="418"/>
      <point x="279" y="418" type="curve" smooth="yes"/>
      <point x="268" y="418" type="line" smooth="yes"/>
      <point x="252" y="418"/>
      <point x="246" y="410"/>
      <point x="246" y="386" type="curve" smooth="yes"/>
      <point x="246" y="362"/>
      <point x="252" y="354"/>
      <point x="268" y="354" type="curve" smooth="yes"/>
      <point x="276" y="354" type="line" smooth="yes"/>
      <point x="380" y="354"/>
      <point x="445" y="282"/>
      <point x="445" y="192" type="curve" smooth="yes"/>
      <point x="445" y="97"/>
      <point x="395" y="49"/>
      <point x="314" y="49" type="curve" smooth="yes"/>
      <point x="280" y="49"/>
      <point x="259" y="58"/>
      <point x="245" y="64" type="curve" smooth="yes"/>
      <point x="231" y="70"/>
      <point x="220" y="66"/>
      <point x="211" y="47" type="curve" smooth="yes"/>
      <point x="204" y="31"/>
      <point x="206" y="18"/>
      <point x="217" y="11" type="curve" smooth="yes"/>
      <point x="237" y="-2"/>
      <point x="269" y="-15"/>
      <point x="314" y="-15" type="curve" smooth="yes"/>
      <point x="439" y="-15"/>
      <point x="515" y="57"/>
    </contour>
  </outline>
</glyph>
<glyph name="ae" format="2">
  <advance width="715"/>
  <unicode hex="00E6"/>
  <anchor x="395" y="400" name="top"/>
  <outline>
    <contour>
      <point x="50" y="171" type="curve" smooth="yes"/>
      <point x="50" y="56"/>
      <point x="103" y="-14"/>
      <point x="184" y="-14" type="curve" smooth="yes"/>
      <point x="263" y="-14"/>
      <point x="327" y="53"/>
      <point x="426" y="338" type="curve"/>
      <point x="377" y="350" type="line"/>
      <point x="283" y="106"/>
      <point x="236" y="50"/>
      <point x="190" y="50" type="curve" smooth="yes"/>
      <point x="142" y="50"/>
      <point x="121" y="101"/>
      <point x="121" y="174" type="curve" smooth="yes"/>
      <point x="121" y="276"/>
      <point x="165" y="351"/>
      <point x="258" y="351" type="curve" smooth="yes"/>
      <point x="313" y="351"/>
      <point x="354" y="336"/>
      <point x="403" y="314" type="curve"/>
      <point x="385" y="369" type="line"/>
      <point x="366" y="325"/>
      <point x="345" y="264"/>
      <point x="345" y="183" type="curve" smooth="yes"/>
      <point x="345" y="60"/>
      <point x="411" y="-15"/>
      <point x="511" y="-15" type="curve" smooth="yes"/>
      <point x="581" y="-15"/>
      <point x="635" y="17"/>
      <point x="681" y="86" type="curve" smooth="yes"/>
      <point x="690" y="100"/>
      <point x="686" y="110"/>
      <point x="671" y="122" type="curve" smooth="yes"/>
      <point x="656" y="134"/>
      <point x="642" y="137"/>
      <point x="630" y="121" type="curve" smooth="yes"/>
      <point x="603" y="85"/>
      <point x="578" y="49"/>
      <point x="519" y="49" type="curve" smooth="yes"/>
      <point x="454" y="49"/>
      <point x="416" y="97"/>
      <point x="416" y="190" type="curve" smooth="yes"/>
      <point x="416" y="252"/>
      <point x="431" y="313"/>
      <point x="459" y="373" type="curve"/>
      <point x="395" y="397"/>
      <point x="338" y="415"/>
      <point x="261" y="415" type="curve" smooth="yes"/>
      <point x="113" y="415"/>
      <point x="50" y="301"/>
    </contour>
    <contour>
      <point x="672" y="313" type="curve" smooth="yes"/>
      <point x="672" y="382"/>
      <point x="618" y="415"/>
      <point x="552" y="415" type="curve" smooth="yes"/>
      <point x="502" y="415"/>
      <point x="443" y="399"/>
      <point x="398" y="370" type="curve"/>
      <point x="413" y="307" type="line"/>
      <point x="450" y="338"/>
      <point x="492" y="352"/>
      <point x="540" y="352" type="curve" smooth="yes"/>
      <point x="573" y="352"/>
      <point x="600" y="339"/>
      <point x="600" y="305" type="curve" smooth="yes"/>
      <point x="600" y="240"/>
      <point x="493" y="199"/>
      <point x="380" y="175" type="curve"/>
      <point x="380" y="120" type="line"/>
      <point x="540" y="147"/>
      <point x="672" y="212"/>
    </contour>
  </outline>
</glyph>
<glyph name="eth" format="2">
  <advance width="603"/>
  <unicode hex="00F0"/>
  <outline>
    <contour>
      <point x="294" y="-19" type="curve" smooth="yes"/>
      <point x="426" y="-19"/>
      <point x="539" y="129"/>
      <point x="539" y="409" type="curve" smooth="yes"/>
      <point x="539" y="875"/>
      <point x="429" y="1288"/>
      <point x="249" y="1499" type="curve" smooth="yes"/>
      <point x="235" y="1515"/>
      <point x="220" y="1514"/>
      <point x="200" y="1498" type="curve" smooth="yes"/>
      <point x="180" y="1481"/>
      <point x="181" y="1463"/>
      <point x="194" y="1446" type="curve" smooth="yes"/>
      <point x="353" y="1250"/>
      <point x="450" y="856"/>
      <point x="450" y="409" type="curve" smooth="yes"/>
      <point x="450" y="173"/>
      <point x="376" y="61"/>
      <point x="294" y="61" type="curve" smooth="yes"/>
      <point x="209" y="61"/>
      <point x="164" y="139"/>
      <point x="164" y="250" type="curve" smooth="yes"/>
      <point x="164" y="359"/>
      <point x="216" y="439"/>
      <point x="304" y="439" type="curve" smooth="yes"/>
      <point x="361" y="439"/>
      <point x="426" y="421"/>
      <point x="496" y="386" type="curve"/>
      <point x="510" y="454" type="line"/>
      <point x="438" y="496"/>
      <point x="369" y="519"/>
      <point x="304" y="519" type="curve" smooth="yes"/>
      <point x="170" y="519"/>
      <point x="75" y="408"/>
      <point x="75" y="250" type="curve" smooth="yes"/>
      <point x="75" y="90"/>
      <point x="150" y="-19"/>
    </contour>
    <contour>
      <point x="219" y="1118" type="curve" smooth="yes"/>
      <point x="510" y="1279" type="line" smooth="yes"/>
      <point x="525" y="1286"/>
      <point x="528" y="1299"/>
      <point x="518" y="1318" type="curve" smooth="yes"/>
      <point x="508" y="1340"/>
      <point x="494" y="1344"/>
      <point x="476" y="1335" type="curve" smooth="yes"/>
      <point x="189" y="1176" type="line" smooth="yes"/>
      <point x="171" y="1168"/>
      <point x="168" y="1155"/>
      <point x="178" y="1136" type="curve" smooth="yes"/>
      <point x="189" y="1115"/>
      <point x="203" y="1109"/>
    </contour>
  </outline>
</glyph>
<glyph name="idotless" format="2">
	<unicode hex="0131"/>
	<advance width="244"/>
	<outline>
		<contour>
			<point x="149" y="-14" type="curve" smooth="yes"/>
			<point x="196" y="-14"/>
			<point x="220" y="18"/>
			<point x="238" y="71" type="curve" smooth="yes"/>
			<point x="242" y="81"/>
			<point x="236" y="91"/>
			<point x="221" y="96" type="curve" smooth="yes"/>
			<point x="206" y="101"/>
			<point x="197" y="98"/>
			<point x="194" y="91" type="curve" smooth="yes"/>
			<point x="180" y="60"/>
			<point x="173" y="49"/>
			<point x="162" y="49" type="curve" smooth="yes"/>
			<point x="148" y="49"/>
			<point x="144" y="57"/>
			<point x="144" y="85" type="curve" smooth="yes"/>
			<point x="144" y="391" type="line" smooth="yes"/>
			<point x="144" y="405"/>
			<point x="132" y="412"/>
			<point x="109" y="412" type="curve" smooth="yes"/>
			<point x="86" y="412"/>
			<point x="75" y="405"/>
			<point x="75" y="391" type="curve" smooth="yes"/>
			<point x="75" y="74" type="line" smooth="yes"/>
			<point x="75" y="9"/>
			<point x="99" y="-14"/>
		</contour>
	</outline>
	<anchor name="bottom" x="153" y="0"/>
	<anchor name="ogonek" x="202" y="0"/>
	<anchor name="top" x="104" y="400"/>
</glyph>
<glyph name="Eng" format="2">
  <advance width="1375"/>
  <unicode hex="014A"/>
  <outline>
    <contour>
      <point x="1159" y="-209" type="curve" smooth="yes"/>
      <point x="1159" y="1488" type="line" smooth="yes"/>
      <point x="1159" y="1506"/>
      <point x="1144" y="1515"/>
      <point x="1115" y="1515" type="curve" smooth="yes"/>
      <point x="1086" y="1515"/>
      <point x="1071" y="1506"/>
      <point x="1071" y="1488" type="curve" smooth="yes"/>
      <point x="1071" y="184" type="line"/>
      <point x="310" y="1488" type="line" smooth="yes"/>
      <point x="299" y="1506"/>
      <point x="284" y="1515"/>
      <point x="260" y="1515" type="curve" smooth="yes"/>
      <point x="231" y="1515"/>
      <point x="216" y="1506"/>
      <point x="216" y="1488" type="curve" smooth="yes"/>
      <point x="216" y="14" type="line" smooth="yes"/>
      <point x="216" y="-5"/>
      <point x="231" y="-14"/>
      <point x="260" y="-14" type="curve" smooth="yes"/>
      <point x="289" y="-14"/>
      <point x="304" y="-5"/>
      <point x="304" y="14" type="curve" smooth="yes"/>
      <point x="304" y="1326" type="line"/>
      <point x="1073" y="11" type="line"/>
      <point x="1073" y="-209" type="line" smooth="yes"/>
      <point x="1073" y="-315"/>
      <point x="1056" y="-361"/>
      <point x="995" y="-361" type="curve" smooth="yes"/>
      <point x="946" y="-361"/>
      <point x="901" y="-327"/>
      <point x="865" y="-285" type="curve" smooth="yes"/>
      <point x="850" y="-267"/>
      <point x="831" y="-265"/>
      <point x="810" y="-284" type="curve" smooth="yes"/>
      <point x="789" y="-302"/>
      <point x="785" y="-324"/>
      <point x="803" y="-345" type="curve" smooth="yes"/>
      <point x="849" y="-401"/>
      <point x="914" y="-442"/>
      <point x="996" y="-442" type="curve" smooth="yes"/>
      <point x="1101" y="-442"/>
      <point x="1159" y="-376"/>
    </contour>
  </outline>
</glyph>
<glyph name="OE" format="2">
  <advance width="1974"/>
  <unicode hex="0152"/>
  <anchor x="1065" y="1424" name="top"/>
  <outline>
    <contour>
      <point x="700" y="-19" type="curve" smooth="yes"/>
      <point x="1033" y="-19"/>
      <point x="1251" y="285"/>
      <point x="1251" y="749" type="curve" smooth="yes"/>
      <point x="1251" y="1211"/>
      <point x="1033" y="1515"/>
      <point x="700" y="1515" type="curve" smooth="yes"/>
      <point x="360" y="1515"/>
      <point x="138" y="1211"/>
      <point x="138" y="749" type="curve" smooth="yes"/>
      <point x="138" y="285"/>
      <point x="360" y="-19"/>
    </contour>
    <contour>
      <point x="700" y="66" type="curve" smooth="yes"/>
      <point x="416" y="66"/>
      <point x="231" y="336"/>
      <point x="231" y="749" type="curve" smooth="yes"/>
      <point x="231" y="1160"/>
      <point x="416" y="1430"/>
      <point x="700" y="1430" type="curve" smooth="yes"/>
      <point x="981" y="1430"/>
      <point x="1165" y="1160"/>
      <point x="1165" y="749" type="curve" smooth="yes"/>
      <point x="1165" y="336"/>
      <point x="981" y="66"/>
    </contour>
    <contour>
      <point x="1209" y="0" type="curve" smooth="yes"/>
      <point x="1879" y="0" type="line" smooth="yes"/>
      <point x="1899" y="0"/>
      <point x="1906" y="10"/>
      <point x="1906" y="40" type="curve" smooth="yes"/>
      <point x="1906" y="70"/>
      <point x="1899" y="80"/>
      <point x="1879" y="80" type="curve" smooth="yes"/>
      <point x="1253" y="80" type="line"/>
      <point x="1253" y="746" type="line"/>
      <point x="1781" y="746" type="line" smooth="yes"/>
      <point x="1801" y="746"/>
      <point x="1809" y="756"/>
      <point x="1809" y="786" type="curve" smooth="yes"/>
      <point x="1809" y="816"/>
      <point x="1801" y="826"/>
      <point x="1781" y="826" type="curve" smooth="yes"/>
      <point x="1253" y="826" type="line"/>
      <point x="1253" y="1408" type="line"/>
      <point x="1879" y="1408" type="line" smooth="yes"/>
      <point x="1899" y="1408"/>
      <point x="1906" y="1418"/>
      <point x="1906" y="1448" type="curve" smooth="yes"/>
      <point x="1906" y="1478"/>
      <point x="1899" y="1488"/>
      <point x="1879" y="1488" type="curve" smooth="yes"/>
      <point x="1209" y="1488" type="line" smooth="yes"/>
      <point x="1180" y="1488"/>
      <point x="1165" y="1479"/>
      <point x="1165" y="1460" type="curve" smooth="yes"/>
      <point x="1165" y="40" type="line" smooth="yes"/>
      <point x="1165" y="13"/>
      <point x="1180" y="0"/>
    </contour>
  </outline>
</glyph>
<glyph name="oe" format="2">
	<unicode hex="0153"/>
	<advance width="720"/>
	<outline>
		<contour>
			<point x="226" y="-15" type="curve" smooth="yes"/>
			<point x="328" y="-15"/>
			<point x="397" y="72"/>
			<point x="397" y="200" type="curve" smooth="yes"/>
			<point x="397" y="328"/>
			<point x="327" y="415"/>
			<point x="226" y="415" type="curve" smooth="yes"/>
			<point x="124" y="415"/>
			<point x="50" y="328"/>
			<point x="50" y="200" type="curve" smooth="yes"/>
			<point x="50" y="72"/>
			<point x="115" y="-15"/>
		</contour>
		<contour>
			<point x="226" y="13" type="curve" smooth="yes"/>
			<point x="136" y="13"/>
			<point x="81" y="90"/>
			<point x="81" y="200" type="curve" smooth="yes"/>
			<point x="81" y="310"/>
			<point x="136" y="387"/>
			<point x="226" y="387" type="curve" smooth="yes"/>
			<point x="315" y="387"/>
			<point x="370" y="310"/>
			<point x="370" y="200" type="curve" smooth="yes"/>
			<point x="370" y="90"/>
			<point x="315" y="13"/>
		</contour>
		<contour>
			<point x="526" y="-15" type="curve" smooth="yes"/>
			<point x="601" y="-15"/>
			<point x="663" y="52"/>
			<point x="689" y="93" type="curve" smooth="yes"/>
			<point x="694" y="100"/>
			<point x="689" y="106"/>
			<point x="684" y="110" type="curve" smooth="yes"/>
			<point x="678" y="114"/>
			<point x="672" y="116"/>
			<point x="667" y="110" type="curve" smooth="yes"/>
			<point x="643" y="76"/>
			<point x="596" y="12"/>
			<point x="527" y="12" type="curve" smooth="yes"/>
			<point x="462" y="12"/>
			<point x="401" y="61"/>
			<point x="401" y="183" type="curve" smooth="yes"/>
			<point x="401" y="330"/>
			<point x="482" y="388"/>
			<point x="554" y="388" type="curve" smooth="yes"/>
			<point x="613" y="388"/>
			<point x="645" y="363"/>
			<point x="645" y="322" type="curve" smooth="yes"/>
			<point x="645" y="235"/>
			<point x="487" y="185"/>
			<point x="396" y="165" type="curve"/>
			<point x="396" y="138" type="line"/>
			<point x="512" y="160"/>
			<point x="677" y="221"/>
			<point x="677" y="322" type="curve" smooth="yes"/>
			<point x="677" y="365"/>
			<point x="646" y="415"/>
			<point x="557" y="415" type="curve" smooth="yes"/>
			<point x="451" y="415"/>
			<point x="374" y="322"/>
			<point x="374" y="180" type="curve" smooth="yes"/>
			<point x="374" y="70"/>
			<point x="428" y="-15"/>
		</contour>
	</outline>
	<anchor name="top" x="386" y="400"/>
</glyph>
<glyph name="jdotless" format="2">
  <advance width="214"/>
  <unicode hex="0237"/>
  <anchor x="104" y="400" name="top"/>
  <outline>
    <contour>
      <point x="43" y="-315" type="curve" smooth="yes"/>
      <point x="93" y="-315"/>
      <point x="140" y="-287"/>
      <point x="140" y="-198" type="curve" smooth="yes"/>
      <point x="140" y="391" type="line" smooth="yes"/>
      <point x="140" y="405"/>
      <point x="128" y="412"/>
      <point x="105" y="412" type="curve" smooth="yes"/>
      <point x="82" y="412"/>
      <point x="71" y="405"/>
      <point x="71" y="391" type="curve" smooth="yes"/>
      <point x="71" y="-201" type="line" smooth="yes"/>
      <point x="71" y="-232"/>
      <point x="68" y="-255"/>
      <point x="45" y="-255" type="curve" smooth="yes"/>
      <point x="18" y="-255"/>
      <point x="4" y="-240"/>
      <point x="-11" y="-224" type="curve" smooth="yes"/>
      <point x="-22" y="-211"/>
      <point x="-34" y="-210"/>
      <point x="-52" y="-223" type="curve" smooth="yes"/>
      <point x="-65" y="-232"/>
      <point x="-75" y="-246"/>
      <point x="-63" y="-261" type="curve" smooth="yes"/>
      <point x="-34" y="-296"/>
      <point x="-1" y="-315"/>
    </contour>
  </outline>
</glyph>
<glyph name="tildecomb" format="2">
  <unicode hex="0303"/>
  <anchor x="0" y="400" name="_top"/>
  <anchor x="0" y="604" name="top"/>
  <outline>
    <contour>
      <point x="-120" y="512" type="curve" smooth="yes"/>
      <point x="-102" y="512"/>
      <point x="-92" y="519"/>
      <point x="-91" y="533" type="curve" smooth="yes"/>
      <point x="-90" y="561"/>
      <point x="-83" y="571"/>
      <point x="-71" y="571" type="curve" smooth="yes"/>
      <point x="-40" y="571"/>
      <point x="4" y="513"/>
      <point x="72" y="513" type="curve" smooth="yes"/>
      <point x="123" y="513"/>
      <point x="144" y="555"/>
      <point x="145" y="620" type="curve" smooth="yes"/>
      <point x="145" y="634"/>
      <point x="137" y="642"/>
      <point x="116" y="642" type="curve" smooth="yes"/>
      <point x="98" y="642"/>
      <point x="90" y="636"/>
      <point x="89" y="625" type="curve" smooth="yes"/>
      <point x="88" y="597"/>
      <point x="81" y="584"/>
      <point x="68" y="584" type="curve" smooth="yes"/>
      <point x="34" y="584"/>
      <point x="-12" y="641"/>
      <point x="-75" y="641" type="curve" smooth="yes"/>
      <point x="-121" y="641"/>
      <point x="-146" y="610"/>
      <point x="-147" y="533" type="curve" smooth="yes"/>
      <point x="-147" y="518"/>
      <point x="-137" y="512"/>
    </contour>
  </outline>
</glyph>
<glyph name="macroncomb" format="2">
	<unicode hex="0304"/>
	<outline>
		<contour>
			<point x="-107" y="549" type="curve" smooth="yes"/>
			<point x="107" y="549" type="line" smooth="yes"/>
			<point x="126" y="549"/>
			<point x="129" y="563"/>
			<point x="129" y="582" type="curve" smooth="yes"/>
			<point x="129" y="602"/>
			<point x="126" y="617"/>
			<point x="107" y="617" type="curve" smooth="yes"/>
			<point x="-107" y="617" type="line" smooth="yes"/>
			<point x="-126" y="617"/>
			<point x="-129" y="602"/>
			<point x="-129" y="582" type="curve" smooth="yes"/>
			<point x="-129" y="563"/>
			<point x="-126" y="549"/>
		</contour>
	</outline>
	<anchor name="_top" x="0" y="400"/>
	<anchor name="top" x="0" y="654"/>
</glyph>
<glyph name="brevecomb" format="2">
	<unicode hex="0306"/>
	<outline>
		<contour>
			<point x="0" y="494" type="curve" smooth="yes"/>
			<point x="80" y="494"/>
			<point x="137" y="556"/>
			<point x="141" y="647" type="curve" smooth="yes"/>
			<point x="142" y="660"/>
			<point x="133" y="670"/>
			<point x="113" y="670" type="curve" smooth="yes"/>
			<point x="93" y="670"/>
			<point x="88" y="662"/>
			<point x="85" y="647" type="curve" smooth="yes"/>
			<point x="75" y="599"/>
			<point x="50" y="565"/>
			<point x="0" y="565" type="curve" smooth="yes"/>
			<point x="-50" y="565"/>
			<point x="-75" y="599"/>
			<point x="-85" y="647" type="curve" smooth="yes"/>
			<point x="-88" y="661"/>
			<point x="-94" y="670"/>
			<point x="-114" y="670" type="curve" smooth="yes"/>
			<point x="-134" y="670"/>
			<point x="-142" y="660"/>
			<point x="-141" y="647" type="curve" smooth="yes"/>
			<point x="-137" y="551"/>
			<point x="-84" y="494"/>
		</contour>
	</outline>
	<anchor name="_top" x="0" y="400"/>
	<anchor name="top" x="0" y="654"/>
</glyph>
<glyph name="ringcomb" format="2">
  <unicode hex="030A"/>
  <anchor x="0" y="500" name="_top"/>
  <anchor x="0" y="818" name="top"/>
  <outline>
    <contour>
      <point x="0" y="601" type="curve" smooth="yes"/>
      <point x="81" y="601"/>
      <point x="136" y="653"/>
      <point x="136" y="731" type="curve" smooth="yes"/>
      <point x="136" y="809"/>
      <point x="81" y="860"/>
      <point x="0" y="860" type="curve" smooth="yes"/>
      <point x="-81" y="860"/>
      <point x="-136" y="809"/>
      <point x="-136" y="731" type="curve" smooth="yes"/>
      <point x="-136" y="653"/>
      <point x="-81" y="601"/>
    </contour>
    <contour>
      <point x="0" y="661" type="curve" smooth="yes"/>
      <point x="-41" y="661"/>
      <point x="-65" y="689"/>
      <point x="-65" y="731" type="curve" smooth="yes"/>
      <point x="-65" y="773"/>
      <point x="-41" y="800"/>
      <point x="0" y="800" type="curve" smooth="yes"/>
      <point x="41" y="800"/>
      <point x="65" y="773"/>
      <point x="65" y="731" type="curve" smooth="yes"/>
      <point x="65" y="689"/>
      <point x="41" y="661"/>
    </contour>
  </outline>
</glyph>
<glyph name="hungarumlautcomb" format="2">
	<unicode hex="030B"/>
	<outline>
		<contour>
			<point x="-72" y="488" type="curve" smooth="yes"/>
			<point x="-66" y="488"/>
			<point x="-62" y="491"/>
			<point x="-56" y="500" type="curve" smooth="yes"/>
			<point x="21" y="622" type="line" smooth="yes"/>
			<point x="26" y="630"/>
			<point x="27" y="634"/>
			<point x="27" y="639" type="curve" smooth="yes"/>
			<point x="27" y="656"/>
			<point x="-4" y="671"/>
			<point x="-21" y="671" type="curve" smooth="yes"/>
			<point x="-33" y="671"/>
			<point x="-37" y="665"/>
			<point x="-41" y="656" type="curve" smooth="yes"/>
			<point x="-104" y="524" type="line" smooth="yes"/>
			<point x="-107" y="518"/>
			<point x="-107" y="515"/>
			<point x="-107" y="512" type="curve" smooth="yes"/>
			<point x="-107" y="498"/>
			<point x="-85" y="488"/>
		</contour>
		<contour>
			<point x="62" y="488" type="curve" smooth="yes"/>
			<point x="68" y="488"/>
			<point x="72" y="491"/>
			<point x="78" y="500" type="curve" smooth="yes"/>
			<point x="161" y="622" type="line" smooth="yes"/>
			<point x="166" y="630"/>
			<point x="167" y="634"/>
			<point x="167" y="639" type="curve" smooth="yes"/>
			<point x="167" y="656"/>
			<point x="136" y="671"/>
			<point x="119" y="671" type="curve" smooth="yes"/>
			<point x="107" y="671"/>
			<point x="104" y="665"/>
			<point x="99" y="656" type="curve" smooth="yes"/>
			<point x="30" y="524" type="line" smooth="yes"/>
			<point x="27" y="518"/>
			<point x="27" y="515"/>
			<point x="27" y="512" type="curve" smooth="yes"/>
			<point x="27" y="498"/>
			<point x="49" y="488"/>
		</contour>
	</outline>
	<anchor name="_top" x="0" y="400"/>
	<anchor name="top" x="52" y="654"/>
</glyph>
<glyph name="caroncomb" format="2">
	<unicode hex="030C"/>
	<outline>
		<contour>
			<point x="114" y="676" type="curve" smooth="yes"/>
			<point x="107" y="676"/>
			<point x="101" y="672"/>
			<point x="94" y="666" type="curve" smooth="yes"/>
			<point x="0" y="573" type="line"/>
			<point x="-94" y="666" type="line" smooth="yes"/>
			<point x="-101" y="672"/>
			<point x="-107" y="676"/>
			<point x="-114" y="676" type="curve" smooth="yes"/>
			<point x="-124" y="676"/>
			<point x="-142" y="660"/>
			<point x="-142" y="649" type="curve" smooth="yes"/>
			<point x="-142" y="646"/>
			<point x="-142" y="643"/>
			<point x="-137" y="636" type="curve" smooth="yes"/>
			<point x="-34" y="509" type="line" smooth="yes"/>
			<point x="-28" y="502"/>
			<point x="-20" y="493"/>
			<point x="0" y="493" type="curve" smooth="yes"/>
			<point x="21" y="493"/>
			<point x="29" y="502"/>
			<point x="35" y="509" type="curve" smooth="yes"/>
			<point x="137" y="636" type="line" smooth="yes"/>
			<point x="142" y="643"/>
			<point x="142" y="646"/>
			<point x="142" y="649" type="curve" smooth="yes"/>
			<point x="142" y="660"/>
			<point x="124" y="676"/>
		</contour>
	</outline>
	<anchor name="_top" x="0" y="400"/>
	<anchor name="top" x="0" y="654"/>
</glyph>
<glyph name="horncomb" format="2">
	<unicode hex="031B"/>
	<outline>
		<contour>
			<point x="167" y="544" type="curve" smooth="yes"/>
			<point x="160" y="580"/>
			<point x="92" y="574"/>
			<point x="97" y="538" type="curve" smooth="yes"/>
			<point x="108" y="464"/>
			<point x="109" y="419"/>
			<point x="0" y="411" type="curve"/>
			<point x="0" y="361" type="line"/>
			<point x="156" y="361"/>
			<point x="184" y="454"/>
		</contour>
	</outline>
	<anchor name="_topright" x="0" y="412"/>
</glyph>
<glyph name="commaaccentcomb" format="2">
	<unicode hex="0326"/>
	<outline>
		<contour>
			<point x="-45" y="-233" type="curve" smooth="yes"/>
			<point x="-28" y="-239"/>
			<point x="-19" y="-237"/>
			<point x="-8" y="-220" type="curve" smooth="yes"/>
			<point x="17" y="-181"/>
			<point x="35" y="-133"/>
			<point x="35" y="-92" type="curve" smooth="yes"/>
			<point x="35" y="-72"/>
			<point x="21" y="-59"/>
			<point x="-3" y="-59" type="curve" smooth="yes"/>
			<point x="-23" y="-59"/>
			<point x="-34" y="-66"/>
			<point x="-34" y="-84" type="curve" smooth="yes"/>
			<point x="-34" y="-132"/>
			<point x="-36" y="-155"/>
			<point x="-55" y="-204" type="curve" smooth="yes"/>
			<point x="-61" y="-220"/>
			<point x="-58" y="-228"/>
		</contour>
	</outline>
	<anchor name="_bottom" x="0" y="0"/>
</glyph>
<glyph name="ogonekcomb" format="2">
  <unicode hex="0328"/>
  <anchor x="53" y="0" name="_ogonek"/>
  <outline>
    <contour>
      <point x="-24" y="-206" type="curve" smooth="yes"/>
      <point x="12" y="-206"/>
      <point x="64" y="-186"/>
      <point x="89" y="-142" type="curve" smooth="yes"/>
      <point x="95" y="-131"/>
      <point x="87" y="-115"/>
      <point x="74" y="-107" type="curve" smooth="yes"/>
      <point x="61" y="-99"/>
      <point x="51" y="-104"/>
      <point x="45" y="-110" type="curve" smooth="yes"/>
      <point x="28" y="-129"/>
      <point x="13" y="-146"/>
      <point x="-5" y="-146" type="curve" smooth="yes"/>
      <point x="-20" y="-146"/>
      <point x="-26" y="-136"/>
      <point x="-26" y="-122" type="curve" smooth="yes"/>
      <point x="-26" y="-88"/>
      <point x="19" y="-37"/>
      <point x="64" y="9" type="curve"/>
      <point x="64" y="14" type="line"/>
      <point x="14" y="15" type="line"/>
      <point x="-57" y="-49"/>
      <point x="-92" y="-94"/>
      <point x="-92" y="-142" type="curve" smooth="yes"/>
      <point x="-92" y="-180"/>
      <point x="-66" y="-206"/>
    </contour>
  </outline>
</glyph>
<glyph name="slashlongcomb" format="2">
	<unicode hex="0338"/>
	<outline>
		<contour>
			<point x="-109" y="-38" type="curve" smooth="yes"/>
			<point x="157" y="430" type="line" smooth="yes"/>
			<point x="163" y="441"/>
			<point x="156" y="453"/>
			<point x="143" y="461" type="curve" smooth="yes"/>
			<point x="128" y="470"/>
			<point x="113" y="466"/>
			<point x="107" y="456" type="curve" smooth="yes"/>
			<point x="-157" y="-9" type="line" smooth="yes"/>
			<point x="-165" y="-24"/>
			<point x="-159" y="-36"/>
			<point x="-146" y="-43" type="curve" smooth="yes"/>
			<point x="-133" y="-50"/>
			<point x="-116" y="-50"/>
		</contour>
	</outline>
	<anchor name="_center" x="0" y="214"/>
</glyph>
<glyph name="Germandbls" format="2">
  <advance width="1325"/>
  <unicode hex="1E9E"/>
  <outline>
    <contour>
      <point x="820" y="-19" type="curve" smooth="yes"/>
      <point x="1053" y="-19"/>
      <point x="1221" y="151"/>
      <point x="1221" y="385" type="curve" smooth="yes"/>
      <point x="1221" y="838"/>
      <point x="698" y="874"/>
      <point x="698" y="1173" type="curve" smooth="yes"/>
      <point x="698" y="1329"/>
      <point x="813" y="1433"/>
      <point x="976" y="1433" type="curve" smooth="yes"/>
      <point x="996" y="1433"/>
      <point x="1004" y="1443"/>
      <point x="1004" y="1474" type="curve" smooth="yes"/>
      <point x="1004" y="1505"/>
      <point x="996" y="1515"/>
      <point x="976" y="1515" type="curve" smooth="yes"/>
      <point x="931" y="1515" type="line" smooth="yes"/>
      <point x="350" y="1515"/>
      <point x="204" y="1199"/>
      <point x="204" y="820" type="curve" smooth="yes"/>
      <point x="204" y="14" type="line" smooth="yes"/>
      <point x="204" y="-5"/>
      <point x="219" y="-14"/>
      <point x="248" y="-14" type="curve" smooth="yes"/>
      <point x="276" y="-14"/>
      <point x="291" y="-5"/>
      <point x="291" y="14" type="curve" smooth="yes"/>
      <point x="291" y="823" type="line" smooth="yes"/>
      <point x="291" y="1126"/>
      <point x="377" y="1381"/>
      <point x="769" y="1435" type="curve"/>
      <point x="672" y="1382"/>
      <point x="606" y="1283"/>
      <point x="606" y="1159" type="curve" smooth="yes"/>
      <point x="606" y="818"/>
      <point x="1128" y="774"/>
      <point x="1128" y="385" type="curve" smooth="yes"/>
      <point x="1128" y="200"/>
      <point x="1003" y="66"/>
      <point x="820" y="66" type="curve" smooth="yes"/>
      <point x="715" y="66"/>
      <point x="635" y="95"/>
      <point x="540" y="159" type="curve" smooth="yes"/>
      <point x="521" y="173"/>
      <point x="504" y="168"/>
      <point x="490" y="145" type="curve" smooth="yes"/>
      <point x="476" y="121"/>
      <point x="478" y="103"/>
      <point x="493" y="90" type="curve"/>
      <point x="588" y="20"/>
      <point x="700" y="-19"/>
    </contour>
  </outline>
</glyph>
<glyph name="emdash" format="2">
  <advance width="1000"/>
  <unicode hex="2014"/>
  <outline>
    <contour>
      <point x="70" y="241" type="curve" smooth="yes"/>
      <point x="930" y="241" type="line" smooth="yes"/>
      <point x="946" y="241"/>
      <point x="952" y="249"/>
      <point x="952" y="273" type="curve" smooth="yes"/>
      <point x="952" y="297"/>
      <point x="946" y="305"/>
      <point x="930" y="305" type="curve" smooth="yes"/>
      <point x="70" y="305" type="line" smooth="yes"/>
      <point x="54" y="305"/>
      <point x="48" y="297"/>
      <point x="48" y="273" type="curve" smooth="yes"/>
      <point x="48" y="249"/>
      <point x="54" y="241"/>
    </contour>
  </outline>
</glyph>
<glyph name="bullet" format="2">
	<unicode hex="2022"/>
	<advance width="367"/>
	<outline>
		<contour>
			<point x="184" y="65" type="curve" smooth="yes"/>
			<point x="261" y="65"/>
			<point x="317" y="119"/>
			<point x="317" y="220" type="curve" smooth="yes"/>
			<point x="317" y="320"/>
			<point x="261" y="375"/>
			<point x="184" y="375" type="curve" smooth="yes"/>
			<point x="106" y="375"/>
			<point x="50" y="320"/>
			<point x="50" y="220" type="curve" smooth="yes"/>
			<point x="50" y="119"/>
			<point x="106" y="65"/>
		</contour>
	</outline>
</glyph>
<glyph name="euro" format="2">
  <advance width="961"/>
  <unicode hex="20AC"/>
  <outline>
    <contour>
      <point x="530" y="-15" type="curve" smooth="yes"/>
      <point x="685" y="-15"/>
      <point x="797" y="103"/>
      <point x="900" y="270" type="curve" smooth="yes"/>
      <point x="908" y="283"/>
      <point x="906" y="292"/>
      <point x="889" y="303" type="curve" smooth="yes"/>
      <point x="872" y="314"/>
      <point x="861" y="317"/>
      <point x="851" y="303" type="curve" smooth="yes"/>
      <point x="770" y="190"/>
      <point x="670" y="53"/>
      <point x="530" y="53" type="curve" smooth="yes"/>
      <point x="337" y="53"/>
      <point x="185" y="244"/>
      <point x="185" y="582" type="curve" smooth="yes"/>
      <point x="185" y="920"/>
      <point x="349" y="1144"/>
      <point x="575" y="1144" type="curve" smooth="yes"/>
      <point x="682" y="1144"/>
      <point x="745" y="1109"/>
      <point x="824" y="1023" type="curve" smooth="yes"/>
      <point x="834" y="1013"/>
      <point x="846" y="1017"/>
      <point x="861" y="1030" type="curve" smooth="yes"/>
      <point x="872" y="1040"/>
      <point x="879" y="1048"/>
      <point x="870" y="1061" type="curve" smooth="yes"/>
      <point x="793" y="1168"/>
      <point x="695" y="1212"/>
      <point x="577" y="1212" type="curve" smooth="yes"/>
      <point x="300" y="1212"/>
      <point x="110" y="952"/>
      <point x="110" y="582" type="curve" smooth="yes"/>
      <point x="110" y="212"/>
      <point x="286" y="-15"/>
    </contour>
    <contour>
      <point x="22" y="640" type="curve" smooth="yes"/>
      <point x="704" y="640" type="line" smooth="yes"/>
      <point x="720" y="640"/>
      <point x="726" y="647"/>
      <point x="726" y="671" type="curve" smooth="yes"/>
      <point x="726" y="695"/>
      <point x="720" y="702"/>
      <point x="704" y="702" type="curve" smooth="yes"/>
      <point x="22" y="702" type="line" smooth="yes"/>
      <point x="6" y="702"/>
      <point x="0" y="695"/>
      <point x="0" y="671" type="curve" smooth="yes"/>
      <point x="0" y="647"/>
      <point x="6" y="640"/>
    </contour>
    <contour>
      <point x="22" y="491" type="curve" smooth="yes"/>
      <point x="704" y="491" type="line" smooth="yes"/>
      <point x="720" y="491"/>
      <point x="726" y="498"/>
      <point x="726" y="522" type="curve" smooth="yes"/>
      <point x="726" y="546"/>
      <point x="720" y="553"/>
      <point x="704" y="553" type="curve" smooth="yes"/>
      <point x="22" y="553" type="line" smooth="yes"/>
      <point x="6" y="553"/>
      <point x="0" y="546"/>
      <point x="0" y="522" type="curve" smooth="yes"/>
      <point x="0" y="498"/>
      <point x="6" y="491"/>
    </contour>
  </outline>
</glyph>
<glyph name="trademark" format="2">
  <advance width="768"/>
  <unicode hex="2122"/>
  <outline>
    <contour>
      <point x="158" y="834" type="curve" smooth="yes"/>
      <point x="179" y="834"/>
      <point x="190" y="841"/>
      <point x="190" y="853" type="curve" smooth="yes"/>
      <point x="190" y="1133" type="line"/>
      <point x="277" y="1133" type="line" smooth="yes"/>
      <point x="293" y="1133"/>
      <point x="298" y="1137"/>
      <point x="298" y="1161" type="curve" smooth="yes"/>
      <point x="298" y="1183"/>
      <point x="294" y="1190"/>
      <point x="277" y="1190" type="curve" smooth="yes"/>
      <point x="40" y="1190" type="line" smooth="yes"/>
      <point x="23" y="1190"/>
      <point x="18" y="1185"/>
      <point x="18" y="1161" type="curve" smooth="yes"/>
      <point x="18" y="1138"/>
      <point x="23" y="1133"/>
      <point x="40" y="1133" type="curve" smooth="yes"/>
      <point x="126" y="1133" type="line"/>
      <point x="126" y="853" type="line" smooth="yes"/>
      <point x="126" y="841"/>
      <point x="137" y="834"/>
    </contour>
    <contour>
      <point x="379" y="834" type="curve" smooth="yes"/>
      <point x="399" y="834"/>
      <point x="411" y="840"/>
      <point x="411" y="853" type="curve" smooth="yes"/>
      <point x="411" y="1044" type="line"/>
      <point x="488" y="901" type="line" smooth="yes"/>
      <point x="494" y="891"/>
      <point x="501" y="890"/>
      <point x="523" y="890" type="curve" smooth="yes"/>
      <point x="542" y="890"/>
      <point x="549" y="894"/>
      <point x="554" y="902" type="curve" smooth="yes"/>
      <point x="632" y="1044" type="line"/>
      <point x="632" y="853" type="line" smooth="yes"/>
      <point x="632" y="840"/>
      <point x="643" y="834"/>
      <point x="664" y="834" type="curve" smooth="yes"/>
      <point x="684" y="834"/>
      <point x="696" y="840"/>
      <point x="696" y="853" type="curve" smooth="yes"/>
      <point x="696" y="1171" type="line" smooth="yes"/>
      <point x="696" y="1183"/>
      <point x="690" y="1190"/>
      <point x="669" y="1190" type="curve" smooth="yes"/>
      <point x="652" y="1190"/>
      <point x="642" y="1181"/>
      <point x="635" y="1169" type="curve" smooth="yes"/>
      <point x="521" y="962" type="line"/>
      <point x="408" y="1169" type="line" smooth="yes"/>
      <point x="401" y="1182"/>
      <point x="392" y="1190"/>
      <point x="374" y="1190" type="curve" smooth="yes"/>
      <point x="353" y="1190"/>
      <point x="347" y="1183"/>
      <point x="347" y="1171" type="curve" smooth="yes"/>
      <point x="347" y="853" type="line" smooth="yes"/>
      <point x="347" y="840"/>
      <point x="358" y="834"/>
    </contour>
  </outline>
</glyph>
<glyph name="integral" format="2">
  <advance width="506"/>
  <unicode hex="222B"/>
  <outline>
    <contour>
      <point x="58" y="-75" type="curve" smooth="yes"/>
      <point x="183" y="-75"/>
      <point x="224" y="-12"/>
      <point x="239" y="66" type="curve" smooth="yes"/>
      <point x="361" y="740" type="line" smooth="yes"/>
      <point x="371" y="795"/>
      <point x="391" y="819"/>
      <point x="458" y="819" type="curve" smooth="yes"/>
      <point x="486" y="819"/>
      <point x="496" y="829"/>
      <point x="496" y="856" type="curve" smooth="yes"/>
      <point x="496" y="885"/>
      <point x="486" y="894"/>
      <point x="458" y="894" type="curve" smooth="yes"/>
      <point x="333" y="894"/>
      <point x="291" y="831"/>
      <point x="276" y="753" type="curve" smooth="yes"/>
      <point x="154" y="79" type="line" smooth="yes"/>
      <point x="144" y="24"/>
      <point x="124" y="0"/>
      <point x="58" y="0" type="curve" smooth="yes"/>
      <point x="29" y="0"/>
      <point x="19" y="-9"/>
      <point x="19" y="-37" type="curve" smooth="yes"/>
      <point x="19" y="-65"/>
      <point x="29" y="-75"/>
    </contour>
  </outline>
</glyph>
<glyph name="notequal" format="2">
	<unicode hex="2260"/>
	<advance width="610"/>
	<outline>
		<contour>
			<point x="233" y="43" type="curve" smooth="yes"/>
			<point x="253" y="43"/>
			<point x="262" y="50"/>
			<point x="266" y="66" type="curve" smooth="yes"/>
			<point x="411" y="621" type="line" smooth="yes"/>
			<point x="418" y="646"/>
			<point x="407" y="655"/>
			<point x="373" y="655" type="curve" smooth="yes"/>
			<point x="357" y="655"/>
			<point x="347" y="648"/>
			<point x="343" y="632" type="curve" smooth="yes"/>
			<point x="198" y="77" type="line" smooth="yes"/>
			<point x="191" y="52"/>
			<point x="202" y="43"/>
		</contour>
		<component base="equal"/>
	</outline>
</glyph>
<glyph name="A.cur" format="2">
  <advance width="1214"/>
  <anchor x="439" y="0" name="bottom"/>
  <anchor x="1093" y="17" name="ogonek"/>
  <anchor x="569" y="1139" name="top"/>
  <outline>
    <contour>
      <point x="440" y="-15" type="curve" smooth="yes"/>
      <point x="674" y="-15"/>
      <point x="875" y="295"/>
      <point x="917" y="724" type="curve"/>
      <point x="871" y="738" type="line"/>
      <point x="819" y="341"/>
      <point x="640" y="53"/>
      <point x="444" y="53" type="curve" smooth="yes"/>
      <point x="267" y="53"/>
      <point x="163" y="231"/>
      <point x="163" y="532" type="curve" smooth="yes"/>
      <point x="163" y="902"/>
      <point x="324" y="1144"/>
      <point x="569" y="1144" type="curve" smooth="yes"/>
      <point x="690" y="1144"/>
      <point x="798" y="1093"/>
      <point x="881" y="996" type="curve" smooth="yes"/>
      <point x="899" y="975"/>
      <point x="912" y="971"/>
      <point x="928" y="983" type="curve" smooth="yes"/>
      <point x="947" y="998"/>
      <point x="949" y="1012"/>
      <point x="933" y="1033" type="curve" smooth="yes"/>
      <point x="842" y="1150"/>
      <point x="716" y="1212"/>
      <point x="569" y="1212" type="curve" smooth="yes"/>
      <point x="278" y="1212"/>
      <point x="88" y="943"/>
      <point x="88" y="532" type="curve" smooth="yes"/>
      <point x="88" y="188"/>
      <point x="219" y="-15"/>
    </contour>
    <contour>
      <point x="995" y="-15" type="curve" smooth="yes"/>
      <point x="1070" y="-15"/>
      <point x="1142" y="58"/>
      <point x="1187" y="181" type="curve" smooth="yes"/>
      <point x="1193" y="198"/>
      <point x="1186" y="208"/>
      <point x="1170" y="214" type="curve" smooth="yes"/>
      <point x="1149" y="222"/>
      <point x="1134" y="219"/>
      <point x="1128" y="202" type="curve" smooth="yes"/>
      <point x="1092" y="104"/>
      <point x="1049" y="52"/>
      <point x="1003" y="52" type="curve" smooth="yes"/>
      <point x="960" y="52"/>
      <point x="941" y="91"/>
      <point x="941" y="184" type="curve" smooth="yes"/>
      <point x="941" y="738" type="line" smooth="yes"/>
      <point x="941" y="753"/>
      <point x="929" y="760"/>
      <point x="906" y="760" type="curve" smooth="yes"/>
      <point x="883" y="760"/>
      <point x="871" y="753"/>
      <point x="871" y="738" type="curve" smooth="yes"/>
      <point x="871" y="173" type="line" smooth="yes"/>
      <point x="871" y="43"/>
      <point x="914" y="-15"/>
    </contour>
  </outline>
</glyph>
<glyph name="A.cur.ini" format="2">
  <advance width="1440"/>
  <anchor x="549" y="0" name="bottom"/>
  <anchor x="1440" y="0" name="cnct"/>
  <anchor x="1366" y="21" name="ogonek"/>
  <anchor x="711" y="1424" name="top"/>
  <outline>
    <contour>
      <point x="550" y="-17" type="curve" smooth="yes"/>
      <point x="781" y="-17"/>
      <point x="988" y="225"/>
      <point x="1089" y="590" type="curve"/>
      <point x="1089" y="575" type="line" smooth="yes"/>
      <point x="1089" y="173"/>
      <point x="1179" y="-17"/>
      <point x="1331" y="-17" type="curve" smooth="yes"/>
      <point x="1381" y="-17"/>
      <point x="1400" y="58"/>
      <point x="1350" y="58" type="curve" smooth="yes"/>
      <point x="1240" y="58"/>
      <point x="1176" y="219"/>
      <point x="1176" y="575" type="curve" smooth="yes"/>
      <point x="1176" y="923" type="line" smooth="yes"/>
      <point x="1176" y="941"/>
      <point x="1161" y="950"/>
      <point x="1133" y="950" type="curve" smooth="yes"/>
      <point x="1104" y="950"/>
      <point x="1089" y="941"/>
      <point x="1089" y="923" type="curve"/>
      <point x="1024" y="428"/>
      <point x="800" y="68"/>
      <point x="555" y="68" type="curve" smooth="yes"/>
      <point x="334" y="68"/>
      <point x="204" y="289"/>
      <point x="204" y="665" type="curve" smooth="yes"/>
      <point x="204" y="1128"/>
      <point x="405" y="1430"/>
      <point x="711" y="1430" type="curve" smooth="yes"/>
      <point x="863" y="1430"/>
      <point x="998" y="1366"/>
      <point x="1101" y="1245" type="curve" smooth="yes"/>
      <point x="1124" y="1219"/>
      <point x="1140" y="1214"/>
      <point x="1160" y="1229" type="curve" smooth="yes"/>
      <point x="1184" y="1248"/>
      <point x="1186" y="1265"/>
      <point x="1166" y="1291" type="curve" smooth="yes"/>
      <point x="1053" y="1438"/>
      <point x="895" y="1515"/>
      <point x="711" y="1515" type="curve" smooth="yes"/>
      <point x="348" y="1515"/>
      <point x="110" y="1179"/>
      <point x="110" y="665" type="curve" smooth="yes"/>
      <point x="110" y="235"/>
      <point x="274" y="-17"/>
    </contour>
  </outline>
</glyph>
<glyph name="A.cur_locl.ini" format="2">
	<advance width="1152"/>
	<outline>
		<contour>
			<point x="440" y="-15" type="curve" smooth="yes"/>
			<point x="674" y="-15"/>
			<point x="875" y="295"/>
			<point x="917" y="724" type="curve"/>
			<point x="871" y="738" type="line"/>
			<point x="819" y="341"/>
			<point x="640" y="53"/>
			<point x="444" y="53" type="curve" smooth="yes"/>
			<point x="267" y="53"/>
			<point x="163" y="231"/>
			<point x="163" y="532" type="curve" smooth="yes"/>
			<point x="163" y="902"/>
			<point x="324" y="1144"/>
			<point x="569" y="1144" type="curve" smooth="yes"/>
			<point x="690" y="1144"/>
			<point x="794" y="1094"/>
			<point x="878" y="997" type="curve"/>
			<point x="878" y="1085" type="line"/>
			<point x="799" y="1164"/>
			<point x="682" y="1212"/>
			<point x="569" y="1212" type="curve" smooth="yes"/>
			<point x="278" y="1212"/>
			<point x="88" y="943"/>
			<point x="88" y="532" type="curve" smooth="yes"/>
			<point x="88" y="188"/>
			<point x="219" y="-15"/>
		</contour>
		<contour>
			<point x="1065" y="-14" type="curve" smooth="yes"/>
			<point x="1105" y="-14"/>
			<point x="1120" y="46"/>
			<point x="1080" y="46" type="curve" smooth="yes"/>
			<point x="992" y="46"/>
			<point x="941" y="175"/>
			<point x="941" y="460" type="curve" smooth="yes"/>
			<point x="941" y="1190" type="line" smooth="yes"/>
			<point x="941" y="1205"/>
			<point x="929" y="1212"/>
			<point x="906" y="1212" type="curve" smooth="yes"/>
			<point x="883" y="1212"/>
			<point x="871" y="1205"/>
			<point x="871" y="1190" type="curve" smooth="yes"/>
			<point x="871" y="460" type="line" smooth="yes"/>
			<point x="871" y="138"/>
			<point x="943" y="-14"/>
		</contour>
	</outline>
	<anchor name="bottom" x="439" y="0"/>
	<anchor name="cnct" x="1152" y="0"/>
	<anchor name="ogonek" x="1093" y="17"/>
	<anchor name="top" x="569" y="1139"/>
</glyph>
<glyph name="A.dec" format="2">
  <advance width="1163"/>
  <anchor x="647" y="0" name="bottom"/>
  <anchor x="1030" y="0" name="ogonek"/>
  <anchor x="687" y="1139" name="top"/>
  <outline>
    <contour>
      <point x="202" y="-14" type="curve" smooth="yes"/>
      <point x="408" y="-14"/>
      <point x="552" y="335"/>
      <point x="703" y="1166" type="curve"/>
      <point x="678" y="1166" type="line"/>
      <point x="747" y="781"/>
      <point x="841" y="402"/>
      <point x="976" y="0" type="curve" smooth="yes"/>
      <point x="981" y="-15"/>
      <point x="995" y="-19"/>
      <point x="1016" y="-13" type="curve" smooth="yes"/>
      <point x="1038" y="-7"/>
      <point x="1046" y="4"/>
      <point x="1041" y="19" type="curve" smooth="yes"/>
      <point x="907" y="420"/>
      <point x="815" y="804"/>
      <point x="747" y="1174" type="curve" smooth="yes"/>
      <point x="741" y="1206"/>
      <point x="723" y="1212"/>
      <point x="693" y="1212" type="curve" smooth="yes"/>
      <point x="664" y="1212"/>
      <point x="644" y="1205"/>
      <point x="638" y="1174" type="curve" smooth="yes"/>
      <point x="487" y="383"/>
      <point x="361" y="51"/>
      <point x="201" y="51" type="curve" smooth="yes"/>
      <point x="164" y="51"/>
      <point x="132" y="72"/>
      <point x="99" y="100" type="curve" smooth="yes"/>
      <point x="85" y="112"/>
      <point x="73" y="111"/>
      <point x="60" y="96" type="curve" smooth="yes"/>
      <point x="47" y="80"/>
      <point x="47" y="67"/>
      <point x="59" y="55" type="curve" smooth="yes"/>
      <point x="103" y="11"/>
      <point x="149" y="-14"/>
    </contour>
    <contour>
      <point x="960" y="49" type="curve"/>
      <point x="1012" y="66" type="line"/>
      <point x="885" y="391"/>
      <point x="730" y="528"/>
      <point x="487" y="528" type="curve" smooth="yes"/>
      <point x="358" y="528"/>
      <point x="265" y="460"/>
      <point x="265" y="366" type="curve" smooth="yes"/>
      <point x="265" y="258"/>
      <point x="371" y="192"/>
      <point x="546" y="192" type="curve" smooth="yes"/>
      <point x="697" y="192"/>
      <point x="872" y="229"/>
      <point x="1092" y="340" type="curve" smooth="yes"/>
      <point x="1113" y="351"/>
      <point x="1121" y="362"/>
      <point x="1108" y="389" type="curve" smooth="yes"/>
      <point x="1098" y="411"/>
      <point x="1081" y="410"/>
      <point x="1063" y="400" type="curve" smooth="yes"/>
      <point x="858" y="294"/>
      <point x="691" y="254"/>
      <point x="546" y="254" type="curve" smooth="yes"/>
      <point x="416" y="254"/>
      <point x="336" y="296"/>
      <point x="336" y="366" type="curve" smooth="yes"/>
      <point x="336" y="423"/>
      <point x="399" y="465"/>
      <point x="485" y="465" type="curve" smooth="yes"/>
      <point x="695" y="465"/>
      <point x="835" y="342"/>
    </contour>
  </outline>
</glyph>
<glyph name="A.dec2.ini" format="2">
	<advance width="1094"/>
	<outline>
		<contour>
			<point x="1007" y="-14" type="curve" smooth="yes"/>
			<point x="1047" y="-14"/>
			<point x="1062" y="46"/>
			<point x="1022" y="46" type="curve" smooth="yes"/>
			<point x="973" y="46"/>
			<point x="935" y="106"/>
			<point x="912" y="223" type="curve" smooth="yes"/>
			<point x="852" y="518"/>
			<point x="810" y="830"/>
			<point x="779" y="1180" type="curve"/>
			<point x="711" y="1166" type="line"/>
			<point x="741" y="820"/>
			<point x="780" y="508"/>
			<point x="844" y="205" type="curve" smooth="yes"/>
			<point x="875" y="60"/>
			<point x="930" y="-14"/>
		</contour>
		<contour>
			<point x="296" y="-14" type="curve" smooth="yes"/>
			<point x="655" y="-14"/>
			<point x="454" y="1048"/>
			<point x="783" y="1147" type="curve" smooth="yes"/>
			<point x="801" y="1152"/>
			<point x="806" y="1164"/>
			<point x="799" y="1189" type="curve" smooth="yes"/>
			<point x="794" y="1207"/>
			<point x="783" y="1215"/>
			<point x="766" y="1210" type="curve" smooth="yes"/>
			<point x="394" y="1099"/>
			<point x="555" y="54"/>
			<point x="296" y="54" type="curve" smooth="yes"/>
			<point x="216" y="54"/>
			<point x="140" y="191"/>
			<point x="140" y="313" type="curve" smooth="yes"/>
			<point x="140" y="472"/>
			<point x="261" y="516"/>
			<point x="617" y="516" type="curve" smooth="yes"/>
			<point x="944" y="516" type="line" smooth="yes"/>
			<point x="960" y="516"/>
			<point x="968" y="528"/>
			<point x="968" y="551" type="curve" smooth="yes"/>
			<point x="968" y="572"/>
			<point x="960" y="582"/>
			<point x="944" y="582" type="curve" smooth="yes"/>
			<point x="617" y="582" type="line" smooth="yes"/>
			<point x="208" y="582"/>
			<point x="65" y="508"/>
			<point x="65" y="313" type="curve" smooth="yes"/>
			<point x="65" y="152"/>
			<point x="172" y="-14"/>
		</contour>
	</outline>
	<anchor name="bottom" x="680" y="0"/>
	<anchor name="cnct" x="1094" y="0"/>
	<anchor name="ogonek" x="1045" y="-3"/>
	<anchor name="top" x="692" y="1139"/>
</glyph>
<glyph name="A.dec_locl" format="2">
  <advance width="1604"/>
  <anchor x="796" y="0" name="bottom"/>
  <anchor x="1435" y="0" name="ogonek"/>
  <anchor x="859" y="1424" name="top"/>
  <outline>
    <contour>
      <point x="253" y="-17" type="curve" smooth="yes"/>
      <point x="510" y="-17"/>
      <point x="690" y="419"/>
      <point x="879" y="1458" type="curve"/>
      <point x="848" y="1458" type="line"/>
      <point x="920" y="1056"/>
      <point x="1013" y="660"/>
      <point x="1124" y="306" type="curve" smooth="yes"/>
      <point x="1200" y="65"/>
      <point x="1250" y="-17"/>
      <point x="1359" y="-17" type="curve" smooth="yes"/>
      <point x="1481" y="-17"/>
      <point x="1570" y="121"/>
      <point x="1631" y="393" type="curve" smooth="yes"/>
      <point x="1638" y="418"/>
      <point x="1625" y="433"/>
      <point x="1601" y="436" type="curve" smooth="yes"/>
      <point x="1575" y="441"/>
      <point x="1559" y="434"/>
      <point x="1554" y="411" type="curve" smooth="yes"/>
      <point x="1499" y="180"/>
      <point x="1430" y="63"/>
      <point x="1361" y="63" type="curve" smooth="yes"/>
      <point x="1301" y="63"/>
      <point x="1264" y="130"/>
      <point x="1204" y="330" type="curve" smooth="yes"/>
      <point x="1096" y="685"/>
      <point x="1005" y="1083"/>
      <point x="934" y="1468" type="curve" smooth="yes"/>
      <point x="926" y="1508"/>
      <point x="904" y="1515"/>
      <point x="866" y="1515" type="curve" smooth="yes"/>
      <point x="830" y="1515"/>
      <point x="805" y="1506"/>
      <point x="798" y="1468" type="curve" smooth="yes"/>
      <point x="609" y="479"/>
      <point x="451" y="64"/>
      <point x="251" y="64" type="curve" smooth="yes"/>
      <point x="205" y="64"/>
      <point x="165" y="90"/>
      <point x="124" y="125" type="curve" smooth="yes"/>
      <point x="106" y="140"/>
      <point x="91" y="139"/>
      <point x="75" y="120" type="curve" smooth="yes"/>
      <point x="59" y="100"/>
      <point x="59" y="84"/>
      <point x="74" y="69" type="curve" smooth="yes"/>
      <point x="129" y="14"/>
      <point x="186" y="-17"/>
    </contour>
    <contour>
      <point x="604" y="444" type="line"/>
      <point x="1119" y="444" type="line"/>
      <point x="1119" y="521" type="line"/>
      <point x="604" y="521" type="line"/>
    </contour>
  </outline>
</glyph>
<glyph name="A.dec_locl.ini" format="2">
  <advance width="1454"/>
  <anchor x="796" y="0" name="bottom"/>
  <anchor x="1454" y="0" name="cnct"/>
  <anchor x="1361" y="0" name="ogonek"/>
  <anchor x="859" y="1424" name="top"/>
  <outline>
    <contour>
      <point x="253" y="-17" type="curve" smooth="yes"/>
      <point x="510" y="-17"/>
      <point x="690" y="419"/>
      <point x="879" y="1458" type="curve"/>
      <point x="848" y="1458" type="line"/>
      <point x="920" y="1056"/>
      <point x="1013" y="660"/>
      <point x="1124" y="306" type="curve" smooth="yes"/>
      <point x="1199" y="65"/>
      <point x="1255" y="-17"/>
      <point x="1345" y="-17" type="curve" smooth="yes"/>
      <point x="1395" y="-17"/>
      <point x="1414" y="58"/>
      <point x="1364" y="58" type="curve" smooth="yes"/>
      <point x="1306" y="58"/>
      <point x="1265" y="126"/>
      <point x="1204" y="330" type="curve" smooth="yes"/>
      <point x="1096" y="685"/>
      <point x="1005" y="1083"/>
      <point x="934" y="1468" type="curve" smooth="yes"/>
      <point x="926" y="1508"/>
      <point x="904" y="1515"/>
      <point x="866" y="1515" type="curve" smooth="yes"/>
      <point x="830" y="1515"/>
      <point x="805" y="1506"/>
      <point x="798" y="1468" type="curve" smooth="yes"/>
      <point x="609" y="479"/>
      <point x="451" y="64"/>
      <point x="251" y="64" type="curve" smooth="yes"/>
      <point x="205" y="64"/>
      <point x="165" y="90"/>
      <point x="124" y="125" type="curve" smooth="yes"/>
      <point x="106" y="140"/>
      <point x="91" y="139"/>
      <point x="75" y="120" type="curve" smooth="yes"/>
      <point x="59" y="100"/>
      <point x="59" y="84"/>
      <point x="74" y="69" type="curve" smooth="yes"/>
      <point x="129" y="14"/>
      <point x="186" y="-17"/>
    </contour>
    <contour>
      <point x="604" y="444" type="line"/>
      <point x="1119" y="444" type="line"/>
      <point x="1119" y="521" type="line"/>
      <point x="604" y="521" type="line"/>
    </contour>
  </outline>
</glyph>
<glyph name="AE.cur" format="2">
  <advance width="1598"/>
  <anchor x="931" y="1139" name="top"/>
  <outline>
    <contour>
      <point x="179" y="-14" type="curve" smooth="yes"/>
      <point x="322" y="-14"/>
      <point x="407" y="133"/>
      <point x="772" y="1162" type="curve"/>
      <point x="743" y="1157" type="line"/>
      <point x="757" y="860"/>
      <point x="793" y="541"/>
      <point x="851" y="227" type="curve" smooth="yes"/>
      <point x="854" y="210"/>
      <point x="869" y="203"/>
      <point x="891" y="208" type="curve" smooth="yes"/>
      <point x="912" y="213"/>
      <point x="922" y="228"/>
      <point x="918" y="246" type="curve" smooth="yes"/>
      <point x="860" y="561"/>
      <point x="825" y="879"/>
      <point x="810" y="1171" type="curve" smooth="yes"/>
      <point x="809" y="1197"/>
      <point x="793" y="1210"/>
      <point x="762" y="1210" type="curve" smooth="yes"/>
      <point x="734" y="1210"/>
      <point x="716" y="1199"/>
      <point x="708" y="1177" type="curve" smooth="yes"/>
      <point x="353" y="188"/>
      <point x="272" y="51"/>
      <point x="178" y="51" type="curve" smooth="yes"/>
      <point x="148" y="51"/>
      <point x="127" y="65"/>
      <point x="101" y="89" type="curve" smooth="yes"/>
      <point x="85" y="103"/>
      <point x="73" y="104"/>
      <point x="59" y="89" type="curve" smooth="yes"/>
      <point x="41" y="69"/>
      <point x="43" y="60"/>
      <point x="56" y="45" type="curve" smooth="yes"/>
      <point x="88" y="9"/>
      <point x="125" y="-14"/>
    </contour>
    <contour>
      <point x="449" y="381" type="line"/>
      <point x="862" y="381" type="line"/>
      <point x="851" y="443" type="line"/>
      <point x="473" y="443" type="line"/>
    </contour>
    <contour>
      <point x="1170" y="-15" type="curve" smooth="yes"/>
      <point x="1325" y="-15"/>
      <point x="1459" y="74"/>
      <point x="1530" y="225" type="curve" smooth="yes"/>
      <point x="1542" y="250"/>
      <point x="1542" y="264"/>
      <point x="1521" y="276" type="curve" smooth="yes"/>
      <point x="1502" y="287"/>
      <point x="1489" y="286"/>
      <point x="1478" y="264" type="curve" smooth="yes"/>
      <point x="1412" y="126"/>
      <point x="1304" y="53"/>
      <point x="1169" y="53" type="curve" smooth="yes"/>
      <point x="1012" y="53"/>
      <point x="920" y="148"/>
      <point x="920" y="308" type="curve" smooth="yes"/>
      <point x="920" y="476"/>
      <point x="1038" y="597"/>
      <point x="1202" y="597" type="curve" smooth="yes"/>
      <point x="1349" y="597" type="line" smooth="yes"/>
      <point x="1365" y="597"/>
      <point x="1371" y="605"/>
      <point x="1371" y="629" type="curve" smooth="yes"/>
      <point x="1371" y="653"/>
      <point x="1365" y="661"/>
      <point x="1349" y="661" type="curve" smooth="yes"/>
      <point x="1202" y="661" type="line" smooth="yes"/>
      <point x="1059" y="661"/>
      <point x="966" y="754"/>
      <point x="966" y="897" type="curve" smooth="yes"/>
      <point x="966" y="1040"/>
      <point x="1066" y="1144"/>
      <point x="1204" y="1144" type="curve" smooth="yes"/>
      <point x="1296" y="1144"/>
      <point x="1385" y="1097"/>
      <point x="1445" y="1029" type="curve" smooth="yes"/>
      <point x="1463" y="1008"/>
      <point x="1476" y="1007"/>
      <point x="1492" y="1020" type="curve" smooth="yes"/>
      <point x="1511" y="1035"/>
      <point x="1511" y="1050"/>
      <point x="1493" y="1072" type="curve" smooth="yes"/>
      <point x="1424" y="1156"/>
      <point x="1317" y="1212"/>
      <point x="1205" y="1212" type="curve" smooth="yes"/>
      <point x="1023" y="1212"/>
      <point x="891" y="1079"/>
      <point x="891" y="896" type="curve" smooth="yes"/>
      <point x="891" y="762"/>
      <point x="961" y="662"/>
      <point x="1080" y="629" type="curve"/>
      <point x="944" y="595"/>
      <point x="845" y="460"/>
      <point x="845" y="306" type="curve" smooth="yes"/>
      <point x="845" y="104"/>
      <point x="966" y="-15"/>
    </contour>
  </outline>
</glyph>
<glyph name="AE.cur.locl" format="2">
  <advance width="1860"/>
  <anchor x="1025" y="1424" name="top"/>
  <outline>
    <contour>
      <point x="181" y="-17" type="curve" smooth="yes"/>
      <point x="336" y="-17"/>
      <point x="442" y="123"/>
      <point x="686" y="704" type="curve"/>
      <point x="969" y="704" type="line"/>
      <point x="969" y="40" type="line" smooth="yes"/>
      <point x="969" y="13"/>
      <point x="984" y="0"/>
      <point x="1013" y="0" type="curve" smooth="yes"/>
      <point x="1446" y="0" type="line" smooth="yes"/>
      <point x="1639" y="0"/>
      <point x="1755" y="118"/>
      <point x="1816" y="348" type="curve" smooth="yes"/>
      <point x="1821" y="365"/>
      <point x="1818" y="380"/>
      <point x="1791" y="389" type="curve" smooth="yes"/>
      <point x="1766" y="398"/>
      <point x="1751" y="393"/>
      <point x="1745" y="373" type="curve" smooth="yes"/>
      <point x="1685" y="166"/>
      <point x="1605" y="80"/>
      <point x="1450" y="80" type="curve" smooth="yes"/>
      <point x="1056" y="80" type="line"/>
      <point x="1056" y="704" type="line"/>
      <point x="1423" y="704" type="line" smooth="yes"/>
      <point x="1443" y="704"/>
      <point x="1450" y="714"/>
      <point x="1450" y="744" type="curve" smooth="yes"/>
      <point x="1450" y="774"/>
      <point x="1443" y="784"/>
      <point x="1423" y="784" type="curve" smooth="yes"/>
      <point x="1058" y="784" type="line"/>
      <point x="1056" y="1408" type="line"/>
      <point x="1590" y="1408" type="line" smooth="yes"/>
      <point x="1610" y="1408"/>
      <point x="1618" y="1418"/>
      <point x="1618" y="1446" type="curve" smooth="yes"/>
      <point x="1618" y="1478"/>
      <point x="1610" y="1488"/>
      <point x="1590" y="1488" type="curve" smooth="yes"/>
      <point x="960" y="1488" type="line" smooth="yes"/>
      <point x="921" y="1488"/>
      <point x="905" y="1473"/>
      <point x="893" y="1443" type="curve" smooth="yes"/>
      <point x="444" y="300"/>
      <point x="323" y="64"/>
      <point x="183" y="64" type="curve" smooth="yes"/>
      <point x="146" y="64"/>
      <point x="116" y="84"/>
      <point x="76" y="121" type="curve" smooth="yes"/>
      <point x="61" y="136"/>
      <point x="45" y="133"/>
      <point x="29" y="114" type="curve" smooth="yes"/>
      <point x="11" y="94"/>
      <point x="9" y="76"/>
      <point x="23" y="63" type="curve" smooth="yes"/>
      <point x="68" y="18"/>
      <point x="119" y="-17"/>
    </contour>
    <contour>
      <point x="719" y="784" type="line"/>
      <point x="790" y="955"/>
      <point x="872" y="1162"/>
      <point x="969" y="1409" type="curve"/>
      <point x="969" y="784" type="line"/>
    </contour>
  </outline>
</glyph>
<glyph name="B.cur" format="2">
  <advance width="1385"/>
  <guideline y="91"/>
  <anchor x="761" y="0" name="bottom"/>
  <anchor x="463" y="438" name="center"/>
  <anchor x="761" y="1424" name="top"/>
  <outline>
    <contour>
      <point x="853" y="-17" type="curve" smooth="yes"/>
      <point x="1088" y="-17"/>
      <point x="1284" y="184"/>
      <point x="1284" y="458" type="curve" smooth="yes"/>
      <point x="1284" y="665"/>
      <point x="1133" y="815"/>
      <point x="924" y="815" type="curve"/>
      <point x="924" y="818" type="line"/>
      <point x="1093" y="858"/>
      <point x="1204" y="999"/>
      <point x="1204" y="1175" type="curve" smooth="yes"/>
      <point x="1204" y="1389"/>
      <point x="1024" y="1515"/>
      <point x="720" y="1515" type="curve" smooth="yes"/>
      <point x="454" y="1515"/>
      <point x="226" y="1433"/>
      <point x="94" y="1241" type="curve" smooth="yes"/>
      <point x="76" y="1216"/>
      <point x="80" y="1198"/>
      <point x="103" y="1183" type="curve" smooth="yes"/>
      <point x="126" y="1168"/>
      <point x="141" y="1173"/>
      <point x="160" y="1196" type="curve" smooth="yes"/>
      <point x="288" y="1364"/>
      <point x="493" y="1430"/>
      <point x="720" y="1430" type="curve" smooth="yes"/>
      <point x="965" y="1430"/>
      <point x="1110" y="1335"/>
      <point x="1110" y="1175" type="curve" smooth="yes"/>
      <point x="1110" y="1009"/>
      <point x="995" y="880"/>
      <point x="819" y="849" type="curve"/>
      <point x="794" y="860"/>
      <point x="766" y="866"/>
      <point x="741" y="866" type="curve" smooth="yes"/>
      <point x="681" y="866"/>
      <point x="653" y="831"/>
      <point x="653" y="799" type="curve" smooth="yes"/>
      <point x="653" y="758"/>
      <point x="685" y="739"/>
      <point x="726" y="739" type="curve" smooth="yes"/>
      <point x="756" y="739"/>
      <point x="790" y="748"/>
      <point x="821" y="765" type="curve"/>
      <point x="1044" y="765"/>
      <point x="1190" y="643"/>
      <point x="1190" y="455" type="curve" smooth="yes"/>
      <point x="1190" y="233"/>
      <point x="1044" y="68"/>
      <point x="853" y="68" type="curve" smooth="yes"/>
      <point x="773" y="68"/>
      <point x="698" y="98"/>
      <point x="643" y="163" type="curve" smooth="yes"/>
      <point x="620" y="188"/>
      <point x="604" y="190"/>
      <point x="583" y="171" type="curve" smooth="yes"/>
      <point x="564" y="154"/>
      <point x="565" y="136"/>
      <point x="584" y="108" type="curve" smooth="yes"/>
      <point x="636" y="29"/>
      <point x="738" y="-17"/>
    </contour>
    <contour>
      <point x="321" y="-19" type="curve" smooth="yes"/>
      <point x="445" y="-19"/>
      <point x="504" y="70"/>
      <point x="504" y="258" type="curve" smooth="yes"/>
      <point x="504" y="1240" type="line" smooth="yes"/>
      <point x="504" y="1259"/>
      <point x="489" y="1268"/>
      <point x="460" y="1268" type="curve" smooth="yes"/>
      <point x="431" y="1268"/>
      <point x="416" y="1259"/>
      <point x="416" y="1240" type="curve" smooth="yes"/>
      <point x="416" y="258" type="line" smooth="yes"/>
      <point x="416" y="119"/>
      <point x="389" y="66"/>
      <point x="316" y="66" type="curve" smooth="yes"/>
      <point x="248" y="66"/>
      <point x="176" y="135"/>
      <point x="126" y="251" type="curve" smooth="yes"/>
      <point x="116" y="274"/>
      <point x="100" y="280"/>
      <point x="75" y="268" type="curve" smooth="yes"/>
      <point x="53" y="258"/>
      <point x="46" y="241"/>
      <point x="55" y="216" type="curve" smooth="yes"/>
      <point x="110" y="69"/>
      <point x="210" y="-19"/>
    </contour>
  </outline>
</glyph>
<glyph name="B.dec" format="2">
  <advance width="1424"/>
  <anchor x="816" y="0" name="bottom"/>
  <anchor x="399" y="438" name="center"/>
  <anchor x="816" y="1424" name="top"/>
  <outline>
    <contour>
      <point x="883" y="-12" type="curve" smooth="yes"/>
      <point x="1138" y="-12"/>
      <point x="1323" y="170"/>
      <point x="1323" y="421" type="curve" smooth="yes"/>
      <point x="1323" y="640"/>
      <point x="1196" y="779"/>
      <point x="950" y="814" type="curve"/>
      <point x="950" y="816" type="line"/>
      <point x="1121" y="868"/>
      <point x="1236" y="1028"/>
      <point x="1236" y="1208" type="curve" smooth="yes"/>
      <point x="1236" y="1390"/>
      <point x="1123" y="1515"/>
      <point x="939" y="1515" type="curve" smooth="yes"/>
      <point x="719" y="1515"/>
      <point x="535" y="1336"/>
      <point x="441" y="1064" type="curve"/>
      <point x="441" y="1488" type="line" smooth="yes"/>
      <point x="441" y="1506"/>
      <point x="426" y="1515"/>
      <point x="398" y="1515" type="curve" smooth="yes"/>
      <point x="368" y="1515"/>
      <point x="356" y="1506"/>
      <point x="351" y="1488" type="curve" smooth="yes"/>
      <point x="298" y="1301"/>
      <point x="198" y="1156"/>
      <point x="59" y="1024" type="curve" smooth="yes"/>
      <point x="43" y="1009"/>
      <point x="39" y="990"/>
      <point x="58" y="969" type="curve" smooth="yes"/>
      <point x="75" y="949"/>
      <point x="94" y="941"/>
      <point x="113" y="959" type="curve" smooth="yes"/>
      <point x="221" y="1063"/>
      <point x="298" y="1161"/>
      <point x="354" y="1280" type="curve"/>
      <point x="354" y="14" type="line" smooth="yes"/>
      <point x="354" y="-5"/>
      <point x="369" y="-14"/>
      <point x="398" y="-14" type="curve" smooth="yes"/>
      <point x="426" y="-14"/>
      <point x="441" y="-5"/>
      <point x="441" y="14" type="curve" smooth="yes"/>
      <point x="441" y="638" type="line" smooth="yes"/>
      <point x="441" y="1065"/>
      <point x="650" y="1430"/>
      <point x="931" y="1430" type="curve" smooth="yes"/>
      <point x="1068" y="1430"/>
      <point x="1144" y="1336"/>
      <point x="1144" y="1201" type="curve" smooth="yes"/>
      <point x="1144" y="1033"/>
      <point x="1036" y="893"/>
      <point x="864" y="850" type="curve"/>
      <point x="840" y="863"/>
      <point x="806" y="868"/>
      <point x="779" y="868" type="curve" smooth="yes"/>
      <point x="725" y="868"/>
      <point x="696" y="836"/>
      <point x="696" y="801" type="curve" smooth="yes"/>
      <point x="696" y="763"/>
      <point x="729" y="741"/>
      <point x="773" y="741" type="curve" smooth="yes"/>
      <point x="799" y="741"/>
      <point x="831" y="751"/>
      <point x="864" y="769" type="curve"/>
      <point x="1118" y="725"/>
      <point x="1229" y="619"/>
      <point x="1229" y="418" type="curve" smooth="yes"/>
      <point x="1229" y="218"/>
      <point x="1084" y="73"/>
      <point x="885" y="73" type="curve" smooth="yes"/>
      <point x="793" y="73"/>
      <point x="718" y="94"/>
      <point x="661" y="123" type="curve" smooth="yes"/>
      <point x="643" y="131"/>
      <point x="623" y="123"/>
      <point x="613" y="101" type="curve" smooth="yes"/>
      <point x="600" y="74"/>
      <point x="606" y="54"/>
      <point x="629" y="44" type="curve" smooth="yes"/>
      <point x="698" y="11"/>
      <point x="780" y="-12"/>
    </contour>
  </outline>
</glyph>
<glyph name="C.cur" format="2">
	<advance width="960"/>
	<outline>
		<contour>
			<point x="530" y="-15" type="curve" smooth="yes"/>
			<point x="677" y="-15"/>
			<point x="805" y="80"/>
			<point x="897" y="259" type="curve" smooth="yes"/>
			<point x="908" y="280"/>
			<point x="907" y="291"/>
			<point x="887" y="304" type="curve" smooth="yes"/>
			<point x="866" y="317"/>
			<point x="854" y="314"/>
			<point x="844" y="295" type="curve" smooth="yes"/>
			<point x="756" y="131"/>
			<point x="654" y="53"/>
			<point x="530" y="53" type="curve" smooth="yes"/>
			<point x="335" y="53"/>
			<point x="185" y="245"/>
			<point x="185" y="582" type="curve" smooth="yes"/>
			<point x="185" y="919"/>
			<point x="347" y="1144"/>
			<point x="575" y="1144" type="curve" smooth="yes"/>
			<point x="668" y="1144"/>
			<point x="749" y="1109"/>
			<point x="815" y="1031" type="curve" smooth="yes"/>
			<point x="829" y="1014"/>
			<point x="843" y="1015"/>
			<point x="859" y="1028" type="curve" smooth="yes"/>
			<point x="873" y="1040"/>
			<point x="880" y="1051"/>
			<point x="866" y="1070" type="curve" smooth="yes"/>
			<point x="793" y="1168"/>
			<point x="695" y="1212"/>
			<point x="577" y="1212" type="curve" smooth="yes"/>
			<point x="300" y="1212"/>
			<point x="110" y="950"/>
			<point x="110" y="582" type="curve" smooth="yes"/>
			<point x="110" y="215"/>
			<point x="286" y="-15"/>
		</contour>
	</outline>
	<anchor name="bottom" x="546" y="0"/>
	<anchor name="top" x="566" y="1139"/>
</glyph>
<glyph name="D.cur" format="2">
	<advance width="1238"/>
	<outline>
		<contour>
			<point x="682" y="-14" type="curve" smooth="yes"/>
			<point x="948" y="-14"/>
			<point x="1132" y="243"/>
			<point x="1132" y="598" type="curve" smooth="yes"/>
			<point x="1132" y="984"/>
			<point x="925" y="1212"/>
			<point x="576" y="1212" type="curve" smooth="yes"/>
			<point x="363" y="1212"/>
			<point x="181" y="1146"/>
			<point x="75" y="993" type="curve" smooth="yes"/>
			<point x="61" y="973"/>
			<point x="64" y="958"/>
			<point x="82" y="946" type="curve" smooth="yes"/>
			<point x="101" y="934"/>
			<point x="113" y="938"/>
			<point x="128" y="957" type="curve" smooth="yes"/>
			<point x="230" y="1091"/>
			<point x="394" y="1144"/>
			<point x="576" y="1144" type="curve" smooth="yes"/>
			<point x="877" y="1144"/>
			<point x="1055" y="942"/>
			<point x="1055" y="599" type="curve" smooth="yes"/>
			<point x="1055" y="283"/>
			<point x="898" y="54"/>
			<point x="682" y="54" type="curve" smooth="yes"/>
			<point x="618" y="54"/>
			<point x="558" y="78"/>
			<point x="514" y="130" type="curve" smooth="yes"/>
			<point x="497" y="151"/>
			<point x="483" y="152"/>
			<point x="466" y="137" type="curve" smooth="yes"/>
			<point x="451" y="123"/>
			<point x="452" y="109"/>
			<point x="467" y="86" type="curve" smooth="yes"/>
			<point x="509" y="23"/>
			<point x="590" y="-14"/>
		</contour>
		<contour>
			<point x="257" y="-15" type="curve" smooth="yes"/>
			<point x="356" y="-15"/>
			<point x="403" y="56"/>
			<point x="403" y="206" type="curve" smooth="yes"/>
			<point x="403" y="992" type="line" smooth="yes"/>
			<point x="403" y="1007"/>
			<point x="391" y="1014"/>
			<point x="368" y="1014" type="curve" smooth="yes"/>
			<point x="345" y="1014"/>
			<point x="333" y="1007"/>
			<point x="333" y="992" type="curve" smooth="yes"/>
			<point x="333" y="206" type="line" smooth="yes"/>
			<point x="333" y="95"/>
			<point x="311" y="53"/>
			<point x="253" y="53" type="curve" smooth="yes"/>
			<point x="198" y="53"/>
			<point x="141" y="108"/>
			<point x="101" y="201" type="curve" smooth="yes"/>
			<point x="93" y="219"/>
			<point x="80" y="224"/>
			<point x="60" y="214" type="curve" smooth="yes"/>
			<point x="42" y="206"/>
			<point x="37" y="193"/>
			<point x="44" y="173" type="curve" smooth="yes"/>
			<point x="88" y="55"/>
			<point x="168" y="-15"/>
		</contour>
	</outline>
	<anchor name="bottom" x="651" y="0"/>
	<anchor name="center" x="448" y="595"/>
	<anchor name="top" x="665" y="1139"/>
	<guideline y="-14"/>
	<guideline y="89"/>
</glyph>
<glyph name="D.dec" format="2">
	<advance width="1259"/>
	<outline>
		<contour>
			<point x="254" y="-17" type="curve" smooth="yes"/>
			<point x="352" y="-17"/>
			<point x="425" y="56"/>
			<point x="425" y="224" type="curve" smooth="yes"/>
			<point x="425" y="977" type="line" smooth="yes"/>
			<point x="425" y="992"/>
			<point x="413" y="999"/>
			<point x="390" y="999" type="curve" smooth="yes"/>
			<point x="367" y="999"/>
			<point x="355" y="992"/>
			<point x="355" y="977" type="curve" smooth="yes"/>
			<point x="355" y="224" type="line" smooth="yes"/>
			<point x="355" y="104"/>
			<point x="319" y="48"/>
			<point x="256" y="48" type="curve" smooth="yes"/>
			<point x="211" y="48"/>
			<point x="178" y="77"/>
			<point x="178" y="117" type="curve" smooth="yes"/>
			<point x="178" y="144"/>
			<point x="197" y="163"/>
			<point x="224" y="163" type="curve" smooth="yes"/>
			<point x="341" y="163"/>
			<point x="522" y="-9"/>
			<point x="721" y="-9" type="curve" smooth="yes"/>
			<point x="952" y="-9"/>
			<point x="1155" y="249"/>
			<point x="1155" y="600" type="curve" smooth="yes"/>
			<point x="1155" y="982"/>
			<point x="933" y="1212"/>
			<point x="589" y="1212" type="curve" smooth="yes"/>
			<point x="348" y="1212"/>
			<point x="123" y="1095"/>
			<point x="87" y="869" type="curve" smooth="yes"/>
			<point x="84" y="848"/>
			<point x="94" y="839"/>
			<point x="116" y="837" type="curve" smooth="yes"/>
			<point x="136" y="835"/>
			<point x="151" y="842"/>
			<point x="155" y="863" type="curve" smooth="yes"/>
			<point x="192" y="1051"/>
			<point x="386" y="1144"/>
			<point x="586" y="1144" type="curve" smooth="yes"/>
			<point x="882" y="1144"/>
			<point x="1080" y="947"/>
			<point x="1080" y="600" type="curve" smooth="yes"/>
			<point x="1080" y="290"/>
			<point x="908" y="59"/>
			<point x="721" y="59" type="curve" smooth="yes"/>
			<point x="536" y="59"/>
			<point x="379" y="228"/>
			<point x="222" y="228" type="curve" smooth="yes"/>
			<point x="154" y="228"/>
			<point x="102" y="180"/>
			<point x="102" y="114" type="curve" smooth="yes"/>
			<point x="102" y="38"/>
			<point x="166" y="-17"/>
		</contour>
	</outline>
	<anchor name="bottom" x="672" y="-17"/>
	<anchor name="center" x="469" y="578"/>
	<anchor name="top" x="686" y="1122"/>
</glyph>
<glyph name="E.cur" format="2">
  <advance width="1081"/>
  <anchor x="569" y="0" name="bottom"/>
  <anchor x="700" y="0" name="ogonek"/>
  <anchor x="599" y="1424" name="top"/>
  <outline>
    <contour>
      <point x="546" y="-19" type="curve" smooth="yes"/>
      <point x="740" y="-19"/>
      <point x="908" y="93"/>
      <point x="996" y="281" type="curve" smooth="yes"/>
      <point x="1011" y="313"/>
      <point x="1011" y="330"/>
      <point x="985" y="345" type="curve" smooth="yes"/>
      <point x="961" y="359"/>
      <point x="945" y="358"/>
      <point x="931" y="330" type="curve" smooth="yes"/>
      <point x="849" y="158"/>
      <point x="714" y="66"/>
      <point x="545" y="66" type="curve" smooth="yes"/>
      <point x="349" y="66"/>
      <point x="234" y="185"/>
      <point x="234" y="385" type="curve" smooth="yes"/>
      <point x="234" y="595"/>
      <point x="381" y="746"/>
      <point x="586" y="746" type="curve" smooth="yes"/>
      <point x="770" y="746" type="line" smooth="yes"/>
      <point x="790" y="746"/>
      <point x="798" y="756"/>
      <point x="798" y="786" type="curve" smooth="yes"/>
      <point x="798" y="816"/>
      <point x="790" y="826"/>
      <point x="770" y="826" type="curve" smooth="yes"/>
      <point x="586" y="826" type="line" smooth="yes"/>
      <point x="408" y="826"/>
      <point x="291" y="943"/>
      <point x="291" y="1121" type="curve" smooth="yes"/>
      <point x="291" y="1300"/>
      <point x="416" y="1430"/>
      <point x="589" y="1430" type="curve" smooth="yes"/>
      <point x="704" y="1430"/>
      <point x="815" y="1371"/>
      <point x="890" y="1286" type="curve" smooth="yes"/>
      <point x="913" y="1260"/>
      <point x="929" y="1259"/>
      <point x="949" y="1275" type="curve" smooth="yes"/>
      <point x="973" y="1294"/>
      <point x="973" y="1313"/>
      <point x="950" y="1340" type="curve" smooth="yes"/>
      <point x="864" y="1445"/>
      <point x="730" y="1515"/>
      <point x="590" y="1515" type="curve" smooth="yes"/>
      <point x="363" y="1515"/>
      <point x="198" y="1349"/>
      <point x="198" y="1120" type="curve" smooth="yes"/>
      <point x="198" y="953"/>
      <point x="285" y="828"/>
      <point x="434" y="786" type="curve"/>
      <point x="264" y="744"/>
      <point x="140" y="575"/>
      <point x="140" y="383" type="curve" smooth="yes"/>
      <point x="140" y="130"/>
      <point x="291" y="-19"/>
    </contour>
  </outline>
</glyph>
<glyph name="F.cur" format="2">
	<advance width="920"/>
	<outline>
		<contour>
			<point x="257" y="-15" type="curve" smooth="yes"/>
			<point x="356" y="-15"/>
			<point x="403" y="56"/>
			<point x="403" y="206" type="curve" smooth="yes"/>
			<point x="403" y="563" type="line"/>
			<point x="795" y="563" type="line" smooth="yes"/>
			<point x="811" y="563"/>
			<point x="817" y="571"/>
			<point x="817" y="595" type="curve" smooth="yes"/>
			<point x="817" y="619"/>
			<point x="811" y="627"/>
			<point x="795" y="627" type="curve" smooth="yes"/>
			<point x="403" y="627" type="line"/>
			<point x="403" y="1126" type="line"/>
			<point x="872" y="1126" type="line" smooth="yes"/>
			<point x="888" y="1126"/>
			<point x="894" y="1134"/>
			<point x="894" y="1158" type="curve" smooth="yes"/>
			<point x="894" y="1182"/>
			<point x="888" y="1190"/>
			<point x="872" y="1190" type="curve" smooth="yes"/>
			<point x="310" y="1190" type="line" smooth="yes"/>
			<point x="152" y="1190"/>
			<point x="53" y="1110"/>
			<point x="17" y="953" type="curve" smooth="yes"/>
			<point x="12" y="930"/>
			<point x="17" y="920"/>
			<point x="39" y="914" type="curve" smooth="yes"/>
			<point x="59" y="909"/>
			<point x="70" y="916"/>
			<point x="76" y="935" type="curve" smooth="yes"/>
			<point x="116" y="1070"/>
			<point x="184" y="1126"/>
			<point x="305" y="1126" type="curve" smooth="yes"/>
			<point x="333" y="1126" type="line"/>
			<point x="333" y="206" type="line" smooth="yes"/>
			<point x="333" y="95"/>
			<point x="311" y="53"/>
			<point x="253" y="53" type="curve" smooth="yes"/>
			<point x="198" y="53"/>
			<point x="141" y="108"/>
			<point x="101" y="201" type="curve" smooth="yes"/>
			<point x="93" y="219"/>
			<point x="80" y="224"/>
			<point x="60" y="214" type="curve" smooth="yes"/>
			<point x="42" y="205"/>
			<point x="37" y="193"/>
			<point x="44" y="173" type="curve" smooth="yes"/>
			<point x="88" y="55"/>
			<point x="168" y="-15"/>
		</contour>
	</outline>
</glyph>
<glyph name="F.cur_locl" format="2">
  <advance width="1304"/>
  <outline>
    <contour>
      <point x="388" y="-17" type="curve" smooth="yes"/>
      <point x="708" y="-17"/>
      <point x="1025" y="451"/>
      <point x="1025" y="980" type="curve" smooth="yes"/>
      <point x="1025" y="1335"/>
      <point x="888" y="1515"/>
      <point x="619" y="1515" type="curve" smooth="yes"/>
      <point x="464" y="1515"/>
      <point x="306" y="1446"/>
      <point x="154" y="1313" type="curve" smooth="yes"/>
      <point x="130" y="1291"/>
      <point x="133" y="1275"/>
      <point x="148" y="1255" type="curve" smooth="yes"/>
      <point x="169" y="1226"/>
      <point x="188" y="1228"/>
      <point x="205" y="1244" type="curve" smooth="yes"/>
      <point x="336" y="1368"/>
      <point x="475" y="1430"/>
      <point x="619" y="1430" type="curve" smooth="yes"/>
      <point x="826" y="1430"/>
      <point x="931" y="1279"/>
      <point x="931" y="980" type="curve" smooth="yes"/>
      <point x="931" y="501"/>
      <point x="655" y="68"/>
      <point x="391" y="68" type="curve" smooth="yes"/>
      <point x="285" y="68"/>
      <point x="221" y="150"/>
      <point x="221" y="285" type="curve" smooth="yes"/>
      <point x="221" y="646"/>
      <point x="521" y="845"/>
      <point x="1238" y="958" type="curve"/>
      <point x="1189" y="989" type="line"/>
      <point x="1189" y="789" type="line" smooth="yes"/>
      <point x="1189" y="769"/>
      <point x="1203" y="759"/>
      <point x="1231" y="759" type="curve" smooth="yes"/>
      <point x="1260" y="759"/>
      <point x="1274" y="769"/>
      <point x="1274" y="789" type="curve" smooth="yes"/>
      <point x="1274" y="993" type="line" smooth="yes"/>
      <point x="1274" y="1029"/>
      <point x="1253" y="1048"/>
      <point x="1216" y="1041" type="curve" smooth="yes"/>
      <point x="450" y="919"/>
      <point x="128" y="694"/>
      <point x="128" y="285" type="curve" smooth="yes"/>
      <point x="128" y="98"/>
      <point x="226" y="-17"/>
    </contour>
  </outline>
</glyph>
<glyph name="F.dec" format="2">
  <advance width="1456"/>
  <outline>
    <contour>
      <point x="619" y="-17" type="curve" smooth="yes"/>
      <point x="870" y="-17"/>
      <point x="1018" y="228"/>
      <point x="1018" y="709" type="curve" smooth="yes"/>
      <point x="1018" y="721" type="line"/>
      <point x="1225" y="721" type="line" smooth="yes"/>
      <point x="1243" y="721"/>
      <point x="1251" y="738"/>
      <point x="1251" y="765" type="curve" smooth="yes"/>
      <point x="1251" y="793"/>
      <point x="1243" y="805"/>
      <point x="1225" y="805" type="curve" smooth="yes"/>
      <point x="1020" y="805" type="line"/>
      <point x="1020" y="1344" type="line"/>
      <point x="1048" y="1339"/>
      <point x="1079" y="1336"/>
      <point x="1115" y="1336" type="curve" smooth="yes"/>
      <point x="1208" y="1336"/>
      <point x="1294" y="1360"/>
      <point x="1404" y="1421" type="curve" smooth="yes"/>
      <point x="1425" y="1434"/>
      <point x="1429" y="1451"/>
      <point x="1415" y="1475" type="curve" smooth="yes"/>
      <point x="1401" y="1499"/>
      <point x="1385" y="1504"/>
      <point x="1366" y="1493" type="curve" smooth="yes"/>
      <point x="1281" y="1440"/>
      <point x="1200" y="1418"/>
      <point x="1118" y="1418" type="curve" smooth="yes"/>
      <point x="946" y="1418"/>
      <point x="879" y="1513"/>
      <point x="684" y="1513" type="curve" smooth="yes"/>
      <point x="505" y="1513"/>
      <point x="324" y="1409"/>
      <point x="204" y="1240" type="curve" smooth="yes"/>
      <point x="189" y="1219"/>
      <point x="195" y="1200"/>
      <point x="220" y="1184" type="curve" smooth="yes"/>
      <point x="243" y="1170"/>
      <point x="260" y="1174"/>
      <point x="276" y="1196" type="curve" smooth="yes"/>
      <point x="381" y="1343"/>
      <point x="534" y="1431"/>
      <point x="679" y="1431" type="curve" smooth="yes"/>
      <point x="789" y="1431"/>
      <point x="850" y="1394"/>
      <point x="933" y="1365" type="curve"/>
      <point x="933" y="805" type="line"/>
      <point x="685" y="805" type="line" smooth="yes"/>
      <point x="668" y="805"/>
      <point x="659" y="791"/>
      <point x="659" y="765" type="curve" smooth="yes"/>
      <point x="659" y="739"/>
      <point x="668" y="721"/>
      <point x="685" y="721" type="curve" smooth="yes"/>
      <point x="930" y="721" type="line"/>
      <point x="930" y="709" type="line" smooth="yes"/>
      <point x="930" y="283"/>
      <point x="813" y="65"/>
      <point x="619" y="65" type="curve" smooth="yes"/>
      <point x="443" y="65"/>
      <point x="264" y="213"/>
      <point x="181" y="421" type="curve"/>
      <point x="301" y="396"/>
      <point x="429" y="381"/>
      <point x="585" y="381" type="curve" smooth="yes"/>
      <point x="604" y="381"/>
      <point x="613" y="394"/>
      <point x="613" y="419" type="curve" smooth="yes"/>
      <point x="613" y="444"/>
      <point x="604" y="456"/>
      <point x="585" y="456" type="curve" smooth="yes"/>
      <point x="424" y="456"/>
      <point x="269" y="475"/>
      <point x="133" y="510" type="curve" smooth="yes"/>
      <point x="115" y="514"/>
      <point x="101" y="510"/>
      <point x="90" y="498" type="curve" smooth="yes"/>
      <point x="76" y="483"/>
      <point x="74" y="466"/>
      <point x="81" y="446" type="curve" smooth="yes"/>
      <point x="168" y="168"/>
      <point x="390" y="-17"/>
    </contour>
  </outline>
</glyph>
